solid OpenSCAD_Model
  facet normal 0 0 1
    outer loop
      vertex 12 38.5 -6
      vertex 11.216 32.9589 -6
      vertex 12 32.9589 -6
    endloop
  endfacet
  facet normal 0 0 1
    outer loop
      vertex 12 38.5 -6
      vertex 9.68237 32.6329 -6
      vertex 11.216 32.9589 -6
    endloop
  endfacet
  facet normal 0 0 1
    outer loop
      vertex 12 38.5 -6
      vertex 8.25 31.9952 -6
      vertex 9.68237 32.6329 -6
    endloop
  endfacet
  facet normal -0 0 1
    outer loop
      vertex -5.55112e-016 38.5 -6
      vertex 8.25 31.9952 -6
      vertex 12 38.5 -6
    endloop
  endfacet
  facet normal 0 0 1
    outer loop
      vertex 8.25 31.9952 -6
      vertex -5.55112e-016 38.5 -6
      vertex 6.98152 31.0736 -6
    endloop
  endfacet
  facet normal 0 0 1
    outer loop
      vertex 4.5 25.5 -6
      vertex 2.5 -14.5 -6
      vertex 4.5 -17.5 -6
    endloop
  endfacet
  facet normal 0 0 1
    outer loop
      vertex 4.5 25.5 -6
      vertex 0 -14.5 -6
      vertex 2.5 -14.5 -6
    endloop
  endfacet
  facet normal 0 0 1
    outer loop
      vertex -5.55112e-016 38.5 -6
      vertex 4.5 25.5 -6
      vertex 4.66389 27.0593 -6
    endloop
  endfacet
  facet normal 0 0 1
    outer loop
      vertex 6.98152 31.0736 -6
      vertex -5.55112e-016 38.5 -6
      vertex 5.93237 29.9084 -6
    endloop
  endfacet
  facet normal 0 0 1
    outer loop
      vertex -5.55112e-016 38.5 -6
      vertex 5.14841 28.5505 -6
      vertex 5.93237 29.9084 -6
    endloop
  endfacet
  facet normal 0 0 1
    outer loop
      vertex -5.55112e-016 38.5 -6
      vertex 4.66389 27.0593 -6
      vertex 5.14841 28.5505 -6
    endloop
  endfacet
  facet normal 0 0 1
    outer loop
      vertex 4.5 25.5 -6
      vertex -5.55112e-016 38.5 -6
      vertex 0 -14.5 -6
    endloop
  endfacet
  facet normal 0 0 1
    outer loop
      vertex -5.55112e-016 -26.5 -6
      vertex 0 -14.5 -6
      vertex -5.55112e-016 38.5 -6
    endloop
  endfacet
  facet normal 0 0 1
    outer loop
      vertex 0 -14.5 -6
      vertex -5.55112e-016 -26.5 -6
      vertex 0 -26.5 -6
    endloop
  endfacet
  facet normal -0 0 1
    outer loop
      vertex 11.216 -24.9589 -6
      vertex 12 -26.5 -6
      vertex 12 -24.9589 -6
    endloop
  endfacet
  facet normal 0 0 1
    outer loop
      vertex 9.68237 -24.6329 -6
      vertex 12 -26.5 -6
      vertex 11.216 -24.9589 -6
    endloop
  endfacet
  facet normal 0 0 1
    outer loop
      vertex 2.5 -26.5 -6
      vertex 9.68237 -24.6329 -6
      vertex 8.25 -23.9952 -6
    endloop
  endfacet
  facet normal 0 0 1
    outer loop
      vertex 2.5 -14.5 -6
      vertex 4.66389 -19.0593 -6
      vertex 4.5 -17.5 -6
    endloop
  endfacet
  facet normal 0 0 1
    outer loop
      vertex 2.5 -26.5 -6
      vertex 4.66389 -19.0593 -6
      vertex 2.5 -14.5 -6
    endloop
  endfacet
  facet normal 0 0 1
    outer loop
      vertex 9.68237 -24.6329 -6
      vertex 2.5 -26.5 -6
      vertex 12 -26.5 -6
    endloop
  endfacet
  facet normal 0 0 1
    outer loop
      vertex 6.98152 -23.0736 -6
      vertex 2.5 -26.5 -6
      vertex 8.25 -23.9952 -6
    endloop
  endfacet
  facet normal 0 0 1
    outer loop
      vertex 5.93237 -21.9084 -6
      vertex 2.5 -26.5 -6
      vertex 6.98152 -23.0736 -6
    endloop
  endfacet
  facet normal 0 0 1
    outer loop
      vertex 5.14841 -20.5505 -6
      vertex 2.5 -26.5 -6
      vertex 5.93237 -21.9084 -6
    endloop
  endfacet
  facet normal 0 0 1
    outer loop
      vertex 4.66389 -19.0593 -6
      vertex 2.5 -26.5 -6
      vertex 5.14841 -20.5505 -6
    endloop
  endfacet
  facet normal 1 0 0
    outer loop
      vertex 12 -26.5 -8.5
      vertex 12 -24.9589 -6
      vertex 12 -26.5 -6
    endloop
  endfacet
  facet normal 1 0 0
    outer loop
      vertex 12 -24.9589 -6
      vertex 12 -26.5 -8.5
      vertex 12 -24.9589 -11
    endloop
  endfacet
  facet normal 1 0 0
    outer loop
      vertex 12 -24.9589 -11
      vertex 12 -26.5 -8.5
      vertex 12 -26.5 -11
    endloop
  endfacet
  facet normal 1 -0 0
    outer loop
      vertex 12 32.9589 -6
      vertex 12 38.5 -11
      vertex 12 38.5 -6
    endloop
  endfacet
  facet normal 1 0 0
    outer loop
      vertex 12 38.5 -11
      vertex 12 32.9589 -6
      vertex 12 32.9589 -11
    endloop
  endfacet
  facet normal 0 0 -1
    outer loop
      vertex 12 -26.5 -11
      vertex 11.216 -24.9589 -11
      vertex 12 -24.9589 -11
    endloop
  endfacet
  facet normal 0 0 -1
    outer loop
      vertex 12 -26.5 -11
      vertex 9.68237 -24.6329 -11
      vertex 11.216 -24.9589 -11
    endloop
  endfacet
  facet normal 0 0 -1
    outer loop
      vertex 2.5 -26.5 -11
      vertex 9.68237 -24.6329 -11
      vertex 12 -26.5 -11
    endloop
  endfacet
  facet normal 0 0 -1
    outer loop
      vertex 4.66389 -19.0593 -11
      vertex 2.5 -14.5 -11
      vertex 4.5 -17.5 -11
    endloop
  endfacet
  facet normal 0 0 -1
    outer loop
      vertex 2.5 -14.5 -11
      vertex 4.66389 -19.0593 -11
      vertex 2.5 -26.5 -11
    endloop
  endfacet
  facet normal -0 0 -1
    outer loop
      vertex 5.14841 -20.5505 -11
      vertex 2.5 -26.5 -11
      vertex 4.66389 -19.0593 -11
    endloop
  endfacet
  facet normal -0 0 -1
    outer loop
      vertex 5.93237 -21.9084 -11
      vertex 2.5 -26.5 -11
      vertex 5.14841 -20.5505 -11
    endloop
  endfacet
  facet normal -0 0 -1
    outer loop
      vertex 6.98152 -23.0736 -11
      vertex 2.5 -26.5 -11
      vertex 5.93237 -21.9084 -11
    endloop
  endfacet
  facet normal -0 0 -1
    outer loop
      vertex 8.25 -23.9952 -11
      vertex 2.5 -26.5 -11
      vertex 6.98152 -23.0736 -11
    endloop
  endfacet
  facet normal -0 0 -1
    outer loop
      vertex 9.68237 -24.6329 -11
      vertex 2.5 -26.5 -11
      vertex 8.25 -23.9952 -11
    endloop
  endfacet
  facet normal 0 0 -1
    outer loop
      vertex 11.216 32.9589 -11
      vertex 12 38.5 -11
      vertex 12 32.9589 -11
    endloop
  endfacet
  facet normal 0 0 -1
    outer loop
      vertex 9.68237 32.6329 -11
      vertex 12 38.5 -11
      vertex 11.216 32.9589 -11
    endloop
  endfacet
  facet normal 0 0 -1
    outer loop
      vertex 8.25 31.9952 -11
      vertex 12 38.5 -11
      vertex 9.68237 32.6329 -11
    endloop
  endfacet
  facet normal 0 0 -1
    outer loop
      vertex 5.55112e-016 38.5 -11
      vertex 8.25 31.9952 -11
      vertex 6.98152 31.0736 -11
    endloop
  endfacet
  facet normal 0 0 -1
    outer loop
      vertex 5.55112e-016 38.5 -11
      vertex 6.98152 31.0736 -11
      vertex 5.93237 29.9084 -11
    endloop
  endfacet
  facet normal 0 0 -1
    outer loop
      vertex 4.5 -17.5 -11
      vertex 2.5 -14.5 -11
      vertex 4.5 25.5 -11
    endloop
  endfacet
  facet normal 0 0 -1
    outer loop
      vertex 5.55112e-016 -14.5 -11
      vertex 4.5 25.5 -11
      vertex 2.5 -14.5 -11
    endloop
  endfacet
  facet normal 0 0 -1
    outer loop
      vertex 5.55112e-016 38.5 -11
      vertex 4.5 25.5 -11
      vertex 5.55112e-016 -14.5 -11
    endloop
  endfacet
  facet normal 0 0 -1
    outer loop
      vertex 8.25 31.9952 -11
      vertex 5.55112e-016 38.5 -11
      vertex 12 38.5 -11
    endloop
  endfacet
  facet normal 0 0 -1
    outer loop
      vertex 5.14841 28.5505 -11
      vertex 5.55112e-016 38.5 -11
      vertex 5.93237 29.9084 -11
    endloop
  endfacet
  facet normal 0 0 -1
    outer loop
      vertex 4.66389 27.0593 -11
      vertex 5.55112e-016 38.5 -11
      vertex 5.14841 28.5505 -11
    endloop
  endfacet
  facet normal 0 0 -1
    outer loop
      vertex 4.5 25.5 -11
      vertex 5.55112e-016 38.5 -11
      vertex 4.66389 27.0593 -11
    endloop
  endfacet
  facet normal 0 1 0
    outer loop
      vertex 12 38.5 -6
      vertex 6.34202 38.5 -7.56031
      vertex -5.55112e-016 38.5 -6
    endloop
  endfacet
  facet normal 0 1 0
    outer loop
      vertex 12 38.5 -6
      vertex 6.86602 38.5 -8
      vertex 6.34202 38.5 -7.56031
    endloop
  endfacet
  facet normal 0 1 0
    outer loop
      vertex 12 38.5 -6
      vertex 6.98481 38.5 -8.67365
      vertex 6.86602 38.5 -8
    endloop
  endfacet
  facet normal 0 1 -0
    outer loop
      vertex 12 38.5 -11
      vertex 6.98481 38.5 -8.67365
      vertex 12 38.5 -6
    endloop
  endfacet
  facet normal 0 1 0
    outer loop
      vertex 6.64279 38.5 -9.26604
      vertex 12 38.5 -11
      vertex 6 38.5 -9.5
    endloop
  endfacet
  facet normal 0 1 0
    outer loop
      vertex 6.98481 38.5 -8.67365
      vertex 12 38.5 -11
      vertex 6.64279 38.5 -9.26604
    endloop
  endfacet
  facet normal 0 1 -0
    outer loop
      vertex 5.65798 38.5 -7.56031
      vertex -5.55112e-016 38.5 -6
      vertex 6.34202 38.5 -7.56031
    endloop
  endfacet
  facet normal 0 1 -0
    outer loop
      vertex 5.13397 38.5 -8
      vertex -5.55112e-016 38.5 -6
      vertex 5.65798 38.5 -7.56031
    endloop
  endfacet
  facet normal 0 1 -0
    outer loop
      vertex 5.01519 38.5 -8.67365
      vertex -5.55112e-016 38.5 -6
      vertex 5.13397 38.5 -8
    endloop
  endfacet
  facet normal 0 1 0
    outer loop
      vertex 5.55112e-016 38.5 -11
      vertex 5.01519 38.5 -8.67365
      vertex 5.35721 38.5 -9.26604
    endloop
  endfacet
  facet normal 0 1 0
    outer loop
      vertex 5.01519 38.5 -8.67365
      vertex 5.55112e-016 38.5 -11
      vertex -5.55112e-016 38.5 -6
    endloop
  endfacet
  facet normal 0 1 0
    outer loop
      vertex 6 38.5 -9.5
      vertex 5.55112e-016 38.5 -11
      vertex 5.35721 38.5 -9.26604
    endloop
  endfacet
  facet normal 0 1 0
    outer loop
      vertex 5.55112e-016 38.5 -11
      vertex 6 38.5 -9.5
      vertex 12 38.5 -11
    endloop
  endfacet
  facet normal -1 0 -2.22045e-016
    outer loop
      vertex 5.55112e-016 38.5 -11
      vertex 3.85576e-017 9.48481 -8.67365
      vertex -5.55112e-016 38.5 -6
    endloop
  endfacet
  facet normal -1 0 -2.22045e-016
    outer loop
      vertex 5.55112e-016 38.5 -11
      vertex 1.70096e-016 9.14279 -9.26604
      vertex 3.85576e-017 9.48481 -8.67365
    endloop
  endfacet
  facet normal -1 0 -2.22045e-016
    outer loop
      vertex 5.55112e-016 38.5 -11
      vertex 2.22045e-016 8.5 -9.5
      vertex 1.70096e-016 9.14279 -9.26604
    endloop
  endfacet
  facet normal -1 0 -2.22045e-016
    outer loop
      vertex 1.70096e-016 7.85721 -9.26604
      vertex 3.85576e-017 -7.51519 -8.67365
      vertex 3.85576e-017 7.51519 -8.67365
    endloop
  endfacet
  facet normal -1 0 -2.22045e-016
    outer loop
      vertex 1.70096e-016 -7.85721 -9.26604
      vertex 1.70096e-016 7.85721 -9.26604
      vertex 2.22045e-016 8.5 -9.5
    endloop
  endfacet
  facet normal -1 -0 -2.22045e-016
    outer loop
      vertex 1.70096e-016 7.85721 -9.26604
      vertex 1.70096e-016 -7.85721 -9.26604
      vertex 3.85576e-017 -7.51519 -8.67365
    endloop
  endfacet
  facet normal -1 0 -2.22045e-016
    outer loop
      vertex 5.55112e-016 -14.5 -11
      vertex 2.22045e-016 8.5 -9.5
      vertex 5.55112e-016 38.5 -11
    endloop
  endfacet
  facet normal -1 -0 -2.22045e-016
    outer loop
      vertex 2.22045e-016 8.5 -9.5
      vertex 2.22045e-016 -8.5 -9.5
      vertex 1.70096e-016 -7.85721 -9.26604
    endloop
  endfacet
  facet normal -1 0 -2.22045e-016
    outer loop
      vertex 1.70096e-016 -9.14279 -9.26604
      vertex 5.55112e-016 -14.5 -11
      vertex 3.85576e-017 -9.48481 -8.67365
    endloop
  endfacet
  facet normal -1 0 -2.22045e-016
    outer loop
      vertex 2.22045e-016 -8.5 -9.5
      vertex 5.55112e-016 -14.5 -11
      vertex 1.70096e-016 -9.14279 -9.26604
    endloop
  endfacet
  facet normal -1 -0 -2.22045e-016
    outer loop
      vertex 2.22045e-016 8.5 -9.5
      vertex 5.55112e-016 -14.5 -11
      vertex 2.22045e-016 -8.5 -9.5
    endloop
  endfacet
  facet normal -1 0 -2.22045e-016
    outer loop
      vertex -1.11022e-016 9.36602 -8
      vertex -5.55112e-016 38.5 -6
      vertex 3.85576e-017 9.48481 -8.67365
    endloop
  endfacet
  facet normal -1 0 -2.22045e-016
    outer loop
      vertex -2.08654e-016 8.84202 -7.56031
      vertex -5.55112e-016 38.5 -6
      vertex -1.11022e-016 9.36602 -8
    endloop
  endfacet
  facet normal -1 0 -2.22045e-016
    outer loop
      vertex -2.08654e-016 8.15798 -7.56031
      vertex -5.55112e-016 38.5 -6
      vertex -2.08654e-016 8.84202 -7.56031
    endloop
  endfacet
  facet normal -1 0 -2.22045e-016
    outer loop
      vertex 3.85576e-017 -7.51519 -8.67365
      vertex -1.11022e-016 7.63397 -8
      vertex 3.85576e-017 7.51519 -8.67365
    endloop
  endfacet
  facet normal -1 0 -2.22045e-016
    outer loop
      vertex -1.11022e-016 -7.63397 -8
      vertex -1.11022e-016 7.63397 -8
      vertex 3.85576e-017 -7.51519 -8.67365
    endloop
  endfacet
  facet normal -1 0 -2.22045e-016
    outer loop
      vertex -1.11022e-016 7.63397 -8
      vertex -1.11022e-016 -7.63397 -8
      vertex -2.08654e-016 8.15798 -7.56031
    endloop
  endfacet
  facet normal -1 0 -2.22045e-016
    outer loop
      vertex -2.08654e-016 -8.15798 -7.56031
      vertex -2.08654e-016 8.15798 -7.56031
      vertex -1.11022e-016 -7.63397 -8
    endloop
  endfacet
  facet normal -1 0 -2.22045e-016
    outer loop
      vertex -5.55112e-016 -26.5 -6
      vertex -2.08654e-016 8.15798 -7.56031
      vertex -2.08654e-016 -8.15798 -7.56031
    endloop
  endfacet
  facet normal -1 0 -2.22045e-016
    outer loop
      vertex -5.55112e-016 -26.5 -6
      vertex -2.08654e-016 -8.15798 -7.56031
      vertex -2.08654e-016 -8.84202 -7.56031
    endloop
  endfacet
  facet normal -1 0 -2.22045e-016
    outer loop
      vertex 0 -14.5 -8.5
      vertex 3.85576e-017 -9.48481 -8.67365
      vertex 5.55112e-016 -14.5 -11
    endloop
  endfacet
  facet normal -1 0 -2.22045e-016
    outer loop
      vertex 3.85576e-017 -9.48481 -8.67365
      vertex 0 -14.5 -8.5
      vertex -1.11022e-016 -9.36602 -8
    endloop
  endfacet
  facet normal -1 0 -2.22045e-016
    outer loop
      vertex -1.11022e-016 -9.36602 -8
      vertex 0 -14.5 -8.5
      vertex -2.08654e-016 -8.84202 -7.56031
    endloop
  endfacet
  facet normal -1 0 -2.22045e-016
    outer loop
      vertex -5.55112e-016 -26.5 -6
      vertex 0 -14.5 -8.5
      vertex 0 -26.5 -8.5
    endloop
  endfacet
  facet normal -1 0 -2.22045e-016
    outer loop
      vertex -2.08654e-016 8.15798 -7.56031
      vertex -5.55112e-016 -26.5 -6
      vertex -5.55112e-016 38.5 -6
    endloop
  endfacet
  facet normal -1 0 -2.22045e-016
    outer loop
      vertex 0 -14.5 -8.5
      vertex -5.55112e-016 -26.5 -6
      vertex -2.08654e-016 -8.84202 -7.56031
    endloop
  endfacet
  facet normal 0 -1 0
    outer loop
      vertex -5.55112e-016 -26.5 22
      vertex 0 -26.5 19.5
      vertex 0 -26.5 22
    endloop
  endfacet
  facet normal 0 0 0
    outer loop
      vertex 0 -26.5 22
      vertex 12 -26.5 22
      vertex -5.55112e-016 -26.5 22
    endloop
  endfacet
  facet normal 0 1 0
    outer loop
      vertex 12 -26.5 17
      vertex 6.1808 -26.5 1.48906
      vertex 2.5 -26.5 17
    endloop
  endfacet
  facet normal 0 1 0
    outer loop
      vertex 12 -26.5 17
      vertex 6.8521 -26.5 1.23448
      vertex 6.1808 -26.5 1.48906
    endloop
  endfacet
  facet normal 0 1 0
    outer loop
      vertex 12 -26.5 17
      vertex 7.32818 -26.5 0.697084
      vertex 6.8521 -26.5 1.23448
    endloop
  endfacet
  facet normal 0 1 -0
    outer loop
      vertex 12 -26.5 -6
      vertex 7.32818 -26.5 0.697084
      vertex 12 -26.5 17
    endloop
  endfacet
  facet normal 0 1 0
    outer loop
      vertex 7.32818 -26.5 0.697084
      vertex 12 -26.5 -6
      vertex 7.5 -26.5 0
    endloop
  endfacet
  facet normal 0 1 0
    outer loop
      vertex 6.8521 -26.5 -1.23448
      vertex 12 -26.5 -6
      vertex 6.1808 -26.5 -1.48906
    endloop
  endfacet
  facet normal 0 1 0
    outer loop
      vertex 7.32818 -26.5 -0.697084
      vertex 12 -26.5 -6
      vertex 6.8521 -26.5 -1.23448
    endloop
  endfacet
  facet normal 0 1 0
    outer loop
      vertex 7.5 -26.5 0
      vertex 12 -26.5 -6
      vertex 7.32818 -26.5 -0.697084
    endloop
  endfacet
  facet normal 0 1 -0
    outer loop
      vertex 5.46809 -26.5 1.40252
      vertex 2.5 -26.5 17
      vertex 6.1808 -26.5 1.48906
    endloop
  endfacet
  facet normal 0 1 -0
    outer loop
      vertex 4.87723 -26.5 0.994683
      vertex 2.5 -26.5 17
      vertex 5.46809 -26.5 1.40252
    endloop
  endfacet
  facet normal 0 1 -0
    outer loop
      vertex 4.54359 -26.5 0.358973
      vertex 2.5 -26.5 17
      vertex 4.87723 -26.5 0.994683
    endloop
  endfacet
  facet normal 0 1 0
    outer loop
      vertex 2.5 -26.5 -6
      vertex 4.54359 -26.5 0.358973
      vertex 4.54359 -26.5 -0.358973
    endloop
  endfacet
  facet normal 0 1 0
    outer loop
      vertex 2.5 -26.5 -6
      vertex 6.1808 -26.5 -1.48906
      vertex 12 -26.5 -6
    endloop
  endfacet
  facet normal 0 1 0
    outer loop
      vertex 6.1808 -26.5 -1.48906
      vertex 2.5 -26.5 -6
      vertex 5.46809 -26.5 -1.40252
    endloop
  endfacet
  facet normal 0 1 0
    outer loop
      vertex 4.54359 -26.5 0.358973
      vertex 2.5 -26.5 -6
      vertex 2.5 -26.5 17
    endloop
  endfacet
  facet normal 0 1 0
    outer loop
      vertex 4.87723 -26.5 -0.994683
      vertex 2.5 -26.5 -6
      vertex 4.54359 -26.5 -0.358973
    endloop
  endfacet
  facet normal 0 1 0
    outer loop
      vertex 5.46809 -26.5 -1.40252
      vertex 2.5 -26.5 -6
      vertex 4.87723 -26.5 -0.994683
    endloop
  endfacet
  facet normal 0 0 0
    outer loop
      vertex 12 -26.5 -6
      vertex 12 -26.5 17
      vertex 12 -26.5 -8.5
    endloop
  endfacet
  facet normal -0 -1 -0
    outer loop
      vertex 0 -26.5 -6
      vertex -5.55112e-016 -26.5 -6
      vertex 0 -26.5 -8.5
    endloop
  endfacet
  facet normal 0 -0.342021 0.939692
    outer loop
      vertex 4.5 -7.85721 -9.26604
      vertex 2.22045e-016 -8.5 -9.5
      vertex 4.5 -8.5 -9.5
    endloop
  endfacet
  facet normal 0 -0.342021 0.939692
    outer loop
      vertex 2.22045e-016 -8.5 -9.5
      vertex 4.5 -7.85721 -9.26604
      vertex 1.70096e-016 -7.85721 -9.26604
    endloop
  endfacet
  facet normal 0 0 -1
    outer loop
      vertex -2.08654e-016 -8.84202 -7.56031
      vertex 4.5 -8.15798 -7.56031
      vertex 4.5 -8.84202 -7.56031
    endloop
  endfacet
  facet normal -0 0 -1
    outer loop
      vertex 4.5 -8.15798 -7.56031
      vertex -2.08654e-016 -8.84202 -7.56031
      vertex -2.08654e-016 -8.15798 -7.56031
    endloop
  endfacet
  facet normal 0 -0.984808 -0.173648
    outer loop
      vertex 3.85576e-017 -7.51519 -8.67365
      vertex 4.5 -7.63397 -8
      vertex -1.11022e-016 -7.63397 -8
    endloop
  endfacet
  facet normal 0 -0.984808 -0.173648
    outer loop
      vertex 4.5 -7.63397 -8
      vertex 3.85576e-017 -7.51519 -8.67365
      vertex 4.5 -7.51519 -8.67365
    endloop
  endfacet
  facet normal 0 -0.866025 0.5
    outer loop
      vertex 1.70096e-016 -7.85721 -9.26604
      vertex 4.5 -7.51519 -8.67365
      vertex 3.85576e-017 -7.51519 -8.67365
    endloop
  endfacet
  facet normal 0 -0.866025 0.5
    outer loop
      vertex 4.5 -7.51519 -8.67365
      vertex 1.70096e-016 -7.85721 -9.26604
      vertex 4.5 -7.85721 -9.26604
    endloop
  endfacet
  facet normal 0 -0.642789 -0.766044
    outer loop
      vertex 4.5 -8.15798 -7.56031
      vertex -1.11022e-016 -7.63397 -8
      vertex 4.5 -7.63397 -8
    endloop
  endfacet
  facet normal 0 -0.642789 -0.766044
    outer loop
      vertex -1.11022e-016 -7.63397 -8
      vertex 4.5 -8.15798 -7.56031
      vertex -2.08654e-016 -8.15798 -7.56031
    endloop
  endfacet
  facet normal -0 0.342021 0.939692
    outer loop
      vertex 2.22045e-016 -8.5 -9.5
      vertex 4.5 -9.14279 -9.26604
      vertex 4.5 -8.5 -9.5
    endloop
  endfacet
  facet normal 0 0.342021 0.939692
    outer loop
      vertex 4.5 -9.14279 -9.26604
      vertex 2.22045e-016 -8.5 -9.5
      vertex 1.70096e-016 -9.14279 -9.26604
    endloop
  endfacet
  facet normal 0 0.866025 0.5
    outer loop
      vertex 4.5 -9.14279 -9.26604
      vertex 3.85576e-017 -9.48481 -8.67365
      vertex 4.5 -9.48481 -8.67365
    endloop
  endfacet
  facet normal 0 0.866025 0.5
    outer loop
      vertex 3.85576e-017 -9.48481 -8.67365
      vertex 4.5 -9.14279 -9.26604
      vertex 1.70096e-016 -9.14279 -9.26604
    endloop
  endfacet
  facet normal 0 0.642788 -0.766044
    outer loop
      vertex -1.11022e-016 -9.36602 -8
      vertex 4.5 -8.84202 -7.56031
      vertex 4.5 -9.36602 -8
    endloop
  endfacet
  facet normal 0 0.642788 -0.766044
    outer loop
      vertex 4.5 -8.84202 -7.56031
      vertex -1.11022e-016 -9.36602 -8
      vertex -2.08654e-016 -8.84202 -7.56031
    endloop
  endfacet
  facet normal 0 0.984808 -0.173648
    outer loop
      vertex 4.5 -9.48481 -8.67365
      vertex -1.11022e-016 -9.36602 -8
      vertex 4.5 -9.36602 -8
    endloop
  endfacet
  facet normal 0 0.984808 -0.173648
    outer loop
      vertex -1.11022e-016 -9.36602 -8
      vertex 4.5 -9.48481 -8.67365
      vertex 3.85576e-017 -9.48481 -8.67365
    endloop
  endfacet
  facet normal 0 -0.342021 0.939692
    outer loop
      vertex 4.5 9.14279 -9.26604
      vertex 2.22045e-016 8.5 -9.5
      vertex 4.5 8.5 -9.5
    endloop
  endfacet
  facet normal 0 -0.342021 0.939692
    outer loop
      vertex 2.22045e-016 8.5 -9.5
      vertex 4.5 9.14279 -9.26604
      vertex 1.70096e-016 9.14279 -9.26604
    endloop
  endfacet
  facet normal 0 0 -1
    outer loop
      vertex -2.08654e-016 8.15798 -7.56031
      vertex 4.5 8.84202 -7.56031
      vertex 4.5 8.15798 -7.56031
    endloop
  endfacet
  facet normal -0 0 -1
    outer loop
      vertex 4.5 8.84202 -7.56031
      vertex -2.08654e-016 8.15798 -7.56031
      vertex -2.08654e-016 8.84202 -7.56031
    endloop
  endfacet
  facet normal 0 -0.984808 -0.173648
    outer loop
      vertex 3.85576e-017 9.48481 -8.67365
      vertex 4.5 9.36602 -8
      vertex -1.11022e-016 9.36602 -8
    endloop
  endfacet
  facet normal 0 -0.984808 -0.173648
    outer loop
      vertex 4.5 9.36602 -8
      vertex 3.85576e-017 9.48481 -8.67365
      vertex 4.5 9.48481 -8.67365
    endloop
  endfacet
  facet normal 0 -0.866025 0.5
    outer loop
      vertex 1.70096e-016 9.14279 -9.26604
      vertex 4.5 9.48481 -8.67365
      vertex 3.85576e-017 9.48481 -8.67365
    endloop
  endfacet
  facet normal 0 -0.866025 0.5
    outer loop
      vertex 4.5 9.48481 -8.67365
      vertex 1.70096e-016 9.14279 -9.26604
      vertex 4.5 9.14279 -9.26604
    endloop
  endfacet
  facet normal 0 -0.642789 -0.766044
    outer loop
      vertex 4.5 8.84202 -7.56031
      vertex -1.11022e-016 9.36602 -8
      vertex 4.5 9.36602 -8
    endloop
  endfacet
  facet normal 0 -0.642789 -0.766044
    outer loop
      vertex -1.11022e-016 9.36602 -8
      vertex 4.5 8.84202 -7.56031
      vertex -2.08654e-016 8.84202 -7.56031
    endloop
  endfacet
  facet normal 0 0.866025 0.5
    outer loop
      vertex 4.5 7.85721 -9.26604
      vertex 3.85576e-017 7.51519 -8.67365
      vertex 4.5 7.51519 -8.67365
    endloop
  endfacet
  facet normal 0 0.866025 0.5
    outer loop
      vertex 3.85576e-017 7.51519 -8.67365
      vertex 4.5 7.85721 -9.26604
      vertex 1.70096e-016 7.85721 -9.26604
    endloop
  endfacet
  facet normal -0 0.342021 0.939692
    outer loop
      vertex 2.22045e-016 8.5 -9.5
      vertex 4.5 7.85721 -9.26604
      vertex 4.5 8.5 -9.5
    endloop
  endfacet
  facet normal 0 0.342021 0.939692
    outer loop
      vertex 4.5 7.85721 -9.26604
      vertex 2.22045e-016 8.5 -9.5
      vertex 1.70096e-016 7.85721 -9.26604
    endloop
  endfacet
  facet normal 0 0.984808 -0.173648
    outer loop
      vertex 4.5 7.51519 -8.67365
      vertex -1.11022e-016 7.63397 -8
      vertex 4.5 7.63397 -8
    endloop
  endfacet
  facet normal 0 0.984808 -0.173648
    outer loop
      vertex -1.11022e-016 7.63397 -8
      vertex 4.5 7.51519 -8.67365
      vertex 3.85576e-017 7.51519 -8.67365
    endloop
  endfacet
  facet normal 0 0.642788 -0.766044
    outer loop
      vertex -1.11022e-016 7.63397 -8
      vertex 4.5 8.15798 -7.56031
      vertex 4.5 7.63397 -8
    endloop
  endfacet
  facet normal 0 0.642788 -0.766044
    outer loop
      vertex 4.5 8.15798 -7.56031
      vertex -1.11022e-016 7.63397 -8
      vertex -2.08654e-016 8.15798 -7.56031
    endloop
  endfacet
  facet normal -0.342021 0 0.939692
    outer loop
      vertex 6 38.5 -9.5
      vertex 6.64279 30.6974 -9.26604
      vertex 6.64279 38.5 -9.26604
    endloop
  endfacet
  facet normal -0.342021 0 0.939692
    outer loop
      vertex 6.64279 30.6974 -9.26604
      vertex 6 38.5 -9.5
      vertex 6 29.9835 -9.5
    endloop
  endfacet
  facet normal -0.866025 0 0.5
    outer loop
      vertex 6.64279 38.5 -9.26604
      vertex 6.98481 31.076 -8.67365
      vertex 6.98481 38.5 -8.67365
    endloop
  endfacet
  facet normal -0.866012 2.43242e-006 0.500023
    outer loop
      vertex 6.64279 38.5 -9.26604
      vertex 6.98152 31.0736 -8.67934
      vertex 6.98481 31.076 -8.67365
    endloop
  endfacet
  facet normal -0.866025 0 0.5
    outer loop
      vertex 6.98152 31.0736 -8.67934
      vertex 6.64279 38.5 -9.26604
      vertex 6.64279 30.6974 -9.26604
    endloop
  endfacet
  facet normal 0 0 -1
    outer loop
      vertex 5.65798 38.5 -7.56031
      vertex 6.34202 30.3633 -7.56031
      vertex 5.93237 29.9084 -7.56031
    endloop
  endfacet
  facet normal 0 0 -1
    outer loop
      vertex 5.65798 38.5 -7.56031
      vertex 5.93237 29.9084 -7.56031
      vertex 5.65798 29.4331 -7.56031
    endloop
  endfacet
  facet normal 0 0 -1
    outer loop
      vertex 6.34202 30.3633 -7.56031
      vertex 5.65798 38.5 -7.56031
      vertex 6.34202 38.5 -7.56031
    endloop
  endfacet
  facet normal -0.984808 0 -0.173648
    outer loop
      vertex 6.98481 31.076 -8.67365
      vertex 6.86602 38.5 -8
      vertex 6.98481 38.5 -8.67365
    endloop
  endfacet
  facet normal -0.984808 -6.17812e-008 -0.173647
    outer loop
      vertex 6.98152 31.0736 -8.655
      vertex 6.86602 38.5 -8
      vertex 6.98481 31.076 -8.67365
    endloop
  endfacet
  facet normal -0.984808 -0 -0.173648
    outer loop
      vertex 6.86602 38.5 -8
      vertex 6.98152 31.0736 -8.655
      vertex 6.86602 30.9453 -8
    endloop
  endfacet
  facet normal -0.642789 -0 -0.766044
    outer loop
      vertex 6.34202 38.5 -7.56031
      vertex 6.86602 30.9453 -8
      vertex 6.34202 30.3633 -7.56031
    endloop
  endfacet
  facet normal -0.642789 0 -0.766044
    outer loop
      vertex 6.86602 30.9453 -8
      vertex 6.34202 38.5 -7.56031
      vertex 6.86602 38.5 -8
    endloop
  endfacet
  facet normal 0.642788 8.76002e-009 -0.766044
    outer loop
      vertex 5.13397 38.5 -8
      vertex 5.65798 29.4331 -7.56031
      vertex 5.14841 28.5505 -7.98789
    endloop
  endfacet
  facet normal 0.642784 0 -0.766047
    outer loop
      vertex 5.13397 38.5 -8
      vertex 5.14841 28.5505 -7.98789
      vertex 5.13397 28.5061 -8
    endloop
  endfacet
  facet normal 0.642788 0 -0.766044
    outer loop
      vertex 5.65798 29.4331 -7.56031
      vertex 5.13397 38.5 -8
      vertex 5.65798 38.5 -7.56031
    endloop
  endfacet
  facet normal 0.866025 0 0.5
    outer loop
      vertex 5.01519 38.5 -8.67365
      vertex 5.35721 28.9122 -9.26604
      vertex 5.35721 38.5 -9.26604
    endloop
  endfacet
  facet normal 0.866025 -3.12474e-008 0.500001
    outer loop
      vertex 5.01519 38.5 -8.67365
      vertex 5.14841 28.5505 -8.90439
      vertex 5.35721 28.9122 -9.26604
    endloop
  endfacet
  facet normal 0.866026 0 0.5
    outer loop
      vertex 5.14841 28.5505 -8.90439
      vertex 5.01519 38.5 -8.67365
      vertex 5.01519 28.1405 -8.67365
    endloop
  endfacet
  facet normal 0.342021 0 0.939692
    outer loop
      vertex 5.35721 38.5 -9.26604
      vertex 6 29.9835 -9.5
      vertex 6 38.5 -9.5
    endloop
  endfacet
  facet normal 0.342018 -2.71569e-007 0.939693
    outer loop
      vertex 6 29.9835 -9.5
      vertex 5.35721 38.5 -9.26604
      vertex 5.93237 29.9084 -9.47539
    endloop
  endfacet
  facet normal 0.342021 0 0.939692
    outer loop
      vertex 5.93237 29.9084 -9.47539
      vertex 5.35721 38.5 -9.26604
      vertex 5.35721 28.9122 -9.26604
    endloop
  endfacet
  facet normal 0.984808 0 -0.173648
    outer loop
      vertex 5.13397 28.5061 -8
      vertex 5.01519 38.5 -8.67365
      vertex 5.13397 38.5 -8
    endloop
  endfacet
  facet normal 0.984808 0 -0.173648
    outer loop
      vertex 5.01519 38.5 -8.67365
      vertex 5.13397 28.5061 -8
      vertex 5.01519 28.1405 -8.67365
    endloop
  endfacet
  facet normal 0 0 1
    outer loop
      vertex 12 38.5 22
      vertex 11.216 32.9589 22
      vertex 12 32.9589 22
    endloop
  endfacet
  facet normal 0 0 1
    outer loop
      vertex 12 38.5 22
      vertex 9.68237 32.6329 22
      vertex 11.216 32.9589 22
    endloop
  endfacet
  facet normal 0 0 1
    outer loop
      vertex 12 38.5 22
      vertex 8.25 31.9952 22
      vertex 9.68237 32.6329 22
    endloop
  endfacet
  facet normal -0 0 1
    outer loop
      vertex -5.55112e-016 38.5 22
      vertex 8.25 31.9952 22
      vertex 12 38.5 22
    endloop
  endfacet
  facet normal 0 0 1
    outer loop
      vertex 8.25 31.9952 22
      vertex -5.55112e-016 38.5 22
      vertex 6.98152 31.0736 22
    endloop
  endfacet
  facet normal 0 0 1
    outer loop
      vertex -5.55112e-016 -26.5 22
      vertex 4.5 25.5 22
      vertex -5.55112e-016 38.5 22
    endloop
  endfacet
  facet normal 0 0 1
    outer loop
      vertex 4.66389 27.0593 22
      vertex -5.55112e-016 38.5 22
      vertex 4.5 25.5 22
    endloop
  endfacet
  facet normal 0 0 1
    outer loop
      vertex 5.14841 28.5505 22
      vertex -5.55112e-016 38.5 22
      vertex 4.66389 27.0593 22
    endloop
  endfacet
  facet normal 0 0 1
    outer loop
      vertex 5.93237 29.9084 22
      vertex -5.55112e-016 38.5 22
      vertex 5.14841 28.5505 22
    endloop
  endfacet
  facet normal 0 0 1
    outer loop
      vertex 6.98152 31.0736 22
      vertex -5.55112e-016 38.5 22
      vertex 5.93237 29.9084 22
    endloop
  endfacet
  facet normal -0 0 1
    outer loop
      vertex 11.216 -24.9589 22
      vertex 12 -26.5 22
      vertex 12 -24.9589 22
    endloop
  endfacet
  facet normal 0 0 1
    outer loop
      vertex 9.68237 -24.6329 22
      vertex 12 -26.5 22
      vertex 11.216 -24.9589 22
    endloop
  endfacet
  facet normal 0 0 1
    outer loop
      vertex -5.55112e-016 -26.5 22
      vertex 9.68237 -24.6329 22
      vertex 8.25 -23.9952 22
    endloop
  endfacet
  facet normal 0 0 1
    outer loop
      vertex 9.68237 -24.6329 22
      vertex -5.55112e-016 -26.5 22
      vertex 12 -26.5 22
    endloop
  endfacet
  facet normal 0 0 1
    outer loop
      vertex 6.98152 -23.0736 22
      vertex -5.55112e-016 -26.5 22
      vertex 8.25 -23.9952 22
    endloop
  endfacet
  facet normal 0 0 1
    outer loop
      vertex 5.93237 -21.9084 22
      vertex -5.55112e-016 -26.5 22
      vertex 6.98152 -23.0736 22
    endloop
  endfacet
  facet normal 0 0 1
    outer loop
      vertex 5.14841 -20.5505 22
      vertex -5.55112e-016 -26.5 22
      vertex 5.93237 -21.9084 22
    endloop
  endfacet
  facet normal 0 0 1
    outer loop
      vertex 4.66389 -19.0593 22
      vertex -5.55112e-016 -26.5 22
      vertex 5.14841 -20.5505 22
    endloop
  endfacet
  facet normal 0 0 1
    outer loop
      vertex 4.5 -17.5 22
      vertex -5.55112e-016 -26.5 22
      vertex 4.66389 -19.0593 22
    endloop
  endfacet
  facet normal 0 0 1
    outer loop
      vertex 4.5 25.5 22
      vertex -5.55112e-016 -26.5 22
      vertex 4.5 -17.5 22
    endloop
  endfacet
  facet normal 1 0 0
    outer loop
      vertex 12 -26.5 19.5
      vertex 12 -24.9589 22
      vertex 12 -26.5 22
    endloop
  endfacet
  facet normal 1 0 0
    outer loop
      vertex 12 -24.9589 22
      vertex 12 -26.5 19.5
      vertex 12 -24.9589 17
    endloop
  endfacet
  facet normal 1 0 0
    outer loop
      vertex 12 -24.9589 17
      vertex 12 -26.5 19.5
      vertex 12 -26.5 17
    endloop
  endfacet
  facet normal 1 -0 0
    outer loop
      vertex 12 32.9589 22
      vertex 12 38.5 17
      vertex 12 38.5 22
    endloop
  endfacet
  facet normal 1 0 0
    outer loop
      vertex 12 38.5 17
      vertex 12 32.9589 22
      vertex 12 32.9589 17
    endloop
  endfacet
  facet normal 0 0 -1
    outer loop
      vertex 12 -26.5 17
      vertex 11.216 -24.9589 17
      vertex 12 -24.9589 17
    endloop
  endfacet
  facet normal 0 0 -1
    outer loop
      vertex 12 -26.5 17
      vertex 9.68237 -24.6329 17
      vertex 11.216 -24.9589 17
    endloop
  endfacet
  facet normal 0 0 -1
    outer loop
      vertex 2.5 -26.5 17
      vertex 9.68237 -24.6329 17
      vertex 12 -26.5 17
    endloop
  endfacet
  facet normal 0 0 -1
    outer loop
      vertex 4.66389 -19.0593 17
      vertex 2.5 -14.5 17
      vertex 4.5 -17.5 17
    endloop
  endfacet
  facet normal 0 0 -1
    outer loop
      vertex 2.5 -14.5 17
      vertex 4.66389 -19.0593 17
      vertex 2.5 -26.5 17
    endloop
  endfacet
  facet normal -0 0 -1
    outer loop
      vertex 5.14841 -20.5505 17
      vertex 2.5 -26.5 17
      vertex 4.66389 -19.0593 17
    endloop
  endfacet
  facet normal -0 0 -1
    outer loop
      vertex 5.93237 -21.9084 17
      vertex 2.5 -26.5 17
      vertex 5.14841 -20.5505 17
    endloop
  endfacet
  facet normal -0 0 -1
    outer loop
      vertex 6.98152 -23.0736 17
      vertex 2.5 -26.5 17
      vertex 5.93237 -21.9084 17
    endloop
  endfacet
  facet normal -0 0 -1
    outer loop
      vertex 8.25 -23.9952 17
      vertex 2.5 -26.5 17
      vertex 6.98152 -23.0736 17
    endloop
  endfacet
  facet normal -0 0 -1
    outer loop
      vertex 9.68237 -24.6329 17
      vertex 2.5 -26.5 17
      vertex 8.25 -23.9952 17
    endloop
  endfacet
  facet normal 0 0 -1
    outer loop
      vertex 11.216 32.9589 17
      vertex 12 38.5 17
      vertex 12 32.9589 17
    endloop
  endfacet
  facet normal 0 0 -1
    outer loop
      vertex 9.68237 32.6329 17
      vertex 12 38.5 17
      vertex 11.216 32.9589 17
    endloop
  endfacet
  facet normal 0 0 -1
    outer loop
      vertex 8.25 31.9952 17
      vertex 12 38.5 17
      vertex 9.68237 32.6329 17
    endloop
  endfacet
  facet normal 0 0 -1
    outer loop
      vertex 5.55112e-016 38.5 17
      vertex 8.25 31.9952 17
      vertex 6.98152 31.0736 17
    endloop
  endfacet
  facet normal 0 0 -1
    outer loop
      vertex 5.55112e-016 38.5 17
      vertex 6.98152 31.0736 17
      vertex 5.93237 29.9084 17
    endloop
  endfacet
  facet normal 0 0 -1
    outer loop
      vertex 4.5 -17.5 17
      vertex 2.5 -14.5 17
      vertex 4.5 25.5 17
    endloop
  endfacet
  facet normal 0 0 -1
    outer loop
      vertex 5.55112e-016 -14.5 17
      vertex 4.5 25.5 17
      vertex 2.5 -14.5 17
    endloop
  endfacet
  facet normal 0 0 -1
    outer loop
      vertex 5.55112e-016 38.5 17
      vertex 4.5 25.5 17
      vertex 5.55112e-016 -14.5 17
    endloop
  endfacet
  facet normal 0 0 -1
    outer loop
      vertex 8.25 31.9952 17
      vertex 5.55112e-016 38.5 17
      vertex 12 38.5 17
    endloop
  endfacet
  facet normal 0 0 -1
    outer loop
      vertex 5.14841 28.5505 17
      vertex 5.55112e-016 38.5 17
      vertex 5.93237 29.9084 17
    endloop
  endfacet
  facet normal 0 0 -1
    outer loop
      vertex 4.66389 27.0593 17
      vertex 5.55112e-016 38.5 17
      vertex 5.14841 28.5505 17
    endloop
  endfacet
  facet normal 0 0 -1
    outer loop
      vertex 4.5 25.5 17
      vertex 5.55112e-016 38.5 17
      vertex 4.66389 27.0593 17
    endloop
  endfacet
  facet normal 0 1 0
    outer loop
      vertex 12 38.5 22
      vertex 6.34202 38.5 20.4397
      vertex -5.55112e-016 38.5 22
    endloop
  endfacet
  facet normal 0 1 0
    outer loop
      vertex 12 38.5 22
      vertex 6.86602 38.5 20
      vertex 6.34202 38.5 20.4397
    endloop
  endfacet
  facet normal 0 1 0
    outer loop
      vertex 12 38.5 22
      vertex 6.98481 38.5 19.3264
      vertex 6.86602 38.5 20
    endloop
  endfacet
  facet normal 0 1 -0
    outer loop
      vertex 12 38.5 17
      vertex 6.98481 38.5 19.3264
      vertex 12 38.5 22
    endloop
  endfacet
  facet normal 0 1 0
    outer loop
      vertex 6.64279 38.5 18.734
      vertex 12 38.5 17
      vertex 6 38.5 18.5
    endloop
  endfacet
  facet normal 0 1 0
    outer loop
      vertex 6.98481 38.5 19.3264
      vertex 12 38.5 17
      vertex 6.64279 38.5 18.734
    endloop
  endfacet
  facet normal 0 1 -0
    outer loop
      vertex 5.65798 38.5 20.4397
      vertex -5.55112e-016 38.5 22
      vertex 6.34202 38.5 20.4397
    endloop
  endfacet
  facet normal 0 1 -0
    outer loop
      vertex 5.13397 38.5 20
      vertex -5.55112e-016 38.5 22
      vertex 5.65798 38.5 20.4397
    endloop
  endfacet
  facet normal 0 1 -0
    outer loop
      vertex 5.01519 38.5 19.3264
      vertex -5.55112e-016 38.5 22
      vertex 5.13397 38.5 20
    endloop
  endfacet
  facet normal 0 1 0
    outer loop
      vertex 5.55112e-016 38.5 17
      vertex 5.01519 38.5 19.3264
      vertex 5.35721 38.5 18.734
    endloop
  endfacet
  facet normal 0 1 0
    outer loop
      vertex 5.01519 38.5 19.3264
      vertex 5.55112e-016 38.5 17
      vertex -5.55112e-016 38.5 22
    endloop
  endfacet
  facet normal 0 1 0
    outer loop
      vertex 6 38.5 18.5
      vertex 5.55112e-016 38.5 17
      vertex 5.35721 38.5 18.734
    endloop
  endfacet
  facet normal 0 1 0
    outer loop
      vertex 5.55112e-016 38.5 17
      vertex 6 38.5 18.5
      vertex 12 38.5 17
    endloop
  endfacet
  facet normal -1 7.29818e-024 -2.22045e-016
    outer loop
      vertex 5.55112e-016 38.5 17
      vertex 3.85576e-017 9.48481 19.3264
      vertex -5.55112e-016 38.5 22
    endloop
  endfacet
  facet normal -1 6.9753e-024 -2.22045e-016
    outer loop
      vertex 5.55112e-016 38.5 17
      vertex 1.70096e-016 9.14279 18.734
      vertex 3.85576e-017 9.48481 19.3264
    endloop
  endfacet
  facet normal -1 -3.979e-023 -2.22045e-016
    outer loop
      vertex 5.55112e-016 38.5 17
      vertex 2.22045e-016 8.5 18.5
      vertex 1.70096e-016 9.14279 18.734
    endloop
  endfacet
  facet normal -1 0 -2.22045e-016
    outer loop
      vertex 1.70096e-016 7.85721 18.734
      vertex 3.85576e-017 -7.51519 19.3264
      vertex 3.85576e-017 7.51519 19.3264
    endloop
  endfacet
  facet normal -1 0 -2.22046e-016
    outer loop
      vertex 1.70096e-016 -7.85721 18.734
      vertex 1.70096e-016 7.85721 18.734
      vertex 2.22045e-016 8.5 18.5
    endloop
  endfacet
  facet normal -1 -0 -2.22045e-016
    outer loop
      vertex 1.70096e-016 7.85721 18.734
      vertex 1.70096e-016 -7.85721 18.734
      vertex 3.85576e-017 -7.51519 19.3264
    endloop
  endfacet
  facet normal -1 0 -2.22045e-016
    outer loop
      vertex 5.55112e-016 -14.5 17
      vertex 2.22045e-016 8.5 18.5
      vertex 5.55112e-016 38.5 17
    endloop
  endfacet
  facet normal -1 -0 -2.22046e-016
    outer loop
      vertex 2.22045e-016 8.5 18.5
      vertex 2.22045e-016 -8.5 18.5
      vertex 1.70096e-016 -7.85721 18.734
    endloop
  endfacet
  facet normal -1 -3.33042e-023 -2.22045e-016
    outer loop
      vertex 1.70096e-016 -9.14279 18.734
      vertex 5.55112e-016 -14.5 17
      vertex 3.85576e-017 -9.48481 19.3264
    endloop
  endfacet
  facet normal -1 1.34142e-022 -2.22045e-016
    outer loop
      vertex 2.22045e-016 -8.5 18.5
      vertex 5.55112e-016 -14.5 17
      vertex 1.70096e-016 -9.14279 18.734
    endloop
  endfacet
  facet normal -1 -0 -2.22045e-016
    outer loop
      vertex 2.22045e-016 8.5 18.5
      vertex 5.55112e-016 -14.5 17
      vertex 2.22045e-016 -8.5 18.5
    endloop
  endfacet
  facet normal -1 -4.98239e-023 -2.22044e-016
    outer loop
      vertex -1.11022e-016 9.36602 20
      vertex -5.55112e-016 38.5 22
      vertex 3.85576e-017 9.48481 19.3264
    endloop
  endfacet
  facet normal -1 -6.71876e-024 -2.22045e-016
    outer loop
      vertex -2.08654e-016 8.84202 20.4397
      vertex -5.55112e-016 38.5 22
      vertex -1.11022e-016 9.36602 20
    endloop
  endfacet
  facet normal -1 0 -2.22045e-016
    outer loop
      vertex -2.08654e-016 8.15798 20.4397
      vertex -5.55112e-016 38.5 22
      vertex -2.08654e-016 8.84202 20.4397
    endloop
  endfacet
  facet normal -1 0 -2.22044e-016
    outer loop
      vertex 3.85576e-017 -7.51519 19.3264
      vertex -1.11022e-016 7.63397 20
      vertex 3.85576e-017 7.51519 19.3264
    endloop
  endfacet
  facet normal -1 -1.38695e-023 -2.22044e-016
    outer loop
      vertex -1.11022e-016 -7.63397 20
      vertex -1.11022e-016 7.63397 20
      vertex 3.85576e-017 -7.51519 19.3264
    endloop
  endfacet
  facet normal -1 -1.38695e-023 -2.22044e-016
    outer loop
      vertex -1.11022e-016 7.63397 20
      vertex -1.11022e-016 -7.63397 20
      vertex -2.08654e-016 8.15798 20.4397
    endloop
  endfacet
  facet normal -1 0 -2.22045e-016
    outer loop
      vertex -2.08654e-016 -8.15798 20.4397
      vertex -2.08654e-016 8.15798 20.4397
      vertex -1.11022e-016 -7.63397 20
    endloop
  endfacet
  facet normal -1 0 -2.22045e-016
    outer loop
      vertex -5.55112e-016 -26.5 22
      vertex -2.08654e-016 8.15798 20.4397
      vertex -2.08654e-016 -8.15798 20.4397
    endloop
  endfacet
  facet normal -1 0 -2.22045e-016
    outer loop
      vertex -5.55112e-016 -26.5 22
      vertex -2.08654e-016 -8.15798 20.4397
      vertex -2.08654e-016 -8.84202 20.4397
    endloop
  endfacet
  facet normal -1 -4.22233e-023 -2.22045e-016
    outer loop
      vertex 0 -14.5 19.5
      vertex 3.85576e-017 -9.48481 19.3264
      vertex 5.55112e-016 -14.5 17
    endloop
  endfacet
  facet normal -1 -3.11491e-023 -2.22044e-016
    outer loop
      vertex 3.85576e-017 -9.48481 19.3264
      vertex 0 -14.5 19.5
      vertex -1.11022e-016 -9.36602 20
    endloop
  endfacet
  facet normal -1 -5.30623e-023 -2.22044e-016
    outer loop
      vertex -1.11022e-016 -9.36602 20
      vertex 0 -14.5 19.5
      vertex -2.08654e-016 -8.84202 20.4397
    endloop
  endfacet
  facet normal -1 0 -2.22045e-016
    outer loop
      vertex -5.55112e-016 -26.5 22
      vertex 0 -14.5 19.5
      vertex 0 -26.5 19.5
    endloop
  endfacet
  facet normal -1 0 -2.22045e-016
    outer loop
      vertex -2.08654e-016 8.15798 20.4397
      vertex -5.55112e-016 -26.5 22
      vertex -5.55112e-016 38.5 22
    endloop
  endfacet
  facet normal -1 2.08249e-023 -2.22045e-016
    outer loop
      vertex 0 -14.5 19.5
      vertex -5.55112e-016 -26.5 22
      vertex -2.08654e-016 -8.84202 20.4397
    endloop
  endfacet
  facet normal 0 -0.34202 0.939693
    outer loop
      vertex 4.5 -7.85721 18.734
      vertex 2.22045e-016 -8.5 18.5
      vertex 4.5 -8.5 18.5
    endloop
  endfacet
  facet normal 0 -0.34202 0.939693
    outer loop
      vertex 2.22045e-016 -8.5 18.5
      vertex 4.5 -7.85721 18.734
      vertex 1.70096e-016 -7.85721 18.734
    endloop
  endfacet
  facet normal 0 0 -1
    outer loop
      vertex -2.08654e-016 -8.84202 20.4397
      vertex 4.5 -8.15798 20.4397
      vertex 4.5 -8.84202 20.4397
    endloop
  endfacet
  facet normal -0 0 -1
    outer loop
      vertex 4.5 -8.15798 20.4397
      vertex -2.08654e-016 -8.84202 20.4397
      vertex -2.08654e-016 -8.15798 20.4397
    endloop
  endfacet
  facet normal 0 -0.984808 -0.173648
    outer loop
      vertex 3.85576e-017 -7.51519 19.3264
      vertex 4.5 -7.63397 20
      vertex -1.11022e-016 -7.63397 20
    endloop
  endfacet
  facet normal 0 -0.984808 -0.173648
    outer loop
      vertex 4.5 -7.63397 20
      vertex 3.85576e-017 -7.51519 19.3264
      vertex 4.5 -7.51519 19.3264
    endloop
  endfacet
  facet normal 0 -0.866025 0.5
    outer loop
      vertex 1.70096e-016 -7.85721 18.734
      vertex 4.5 -7.51519 19.3264
      vertex 3.85576e-017 -7.51519 19.3264
    endloop
  endfacet
  facet normal 0 -0.866025 0.5
    outer loop
      vertex 4.5 -7.51519 19.3264
      vertex 1.70096e-016 -7.85721 18.734
      vertex 4.5 -7.85721 18.734
    endloop
  endfacet
  facet normal 0 -0.642789 -0.766044
    outer loop
      vertex 4.5 -8.15798 20.4397
      vertex -1.11022e-016 -7.63397 20
      vertex 4.5 -7.63397 20
    endloop
  endfacet
  facet normal 0 -0.642789 -0.766044
    outer loop
      vertex -1.11022e-016 -7.63397 20
      vertex 4.5 -8.15798 20.4397
      vertex -2.08654e-016 -8.15798 20.4397
    endloop
  endfacet
  facet normal -0 0.34202 0.939693
    outer loop
      vertex 2.22045e-016 -8.5 18.5
      vertex 4.5 -9.14279 18.734
      vertex 4.5 -8.5 18.5
    endloop
  endfacet
  facet normal 0 0.34202 0.939693
    outer loop
      vertex 4.5 -9.14279 18.734
      vertex 2.22045e-016 -8.5 18.5
      vertex 1.70096e-016 -9.14279 18.734
    endloop
  endfacet
  facet normal 0 0.866025 0.5
    outer loop
      vertex 4.5 -9.14279 18.734
      vertex 3.85576e-017 -9.48481 19.3264
      vertex 4.5 -9.48481 19.3264
    endloop
  endfacet
  facet normal 0 0.866025 0.5
    outer loop
      vertex 3.85576e-017 -9.48481 19.3264
      vertex 4.5 -9.14279 18.734
      vertex 1.70096e-016 -9.14279 18.734
    endloop
  endfacet
  facet normal 0 0.642789 -0.766044
    outer loop
      vertex -1.11022e-016 -9.36602 20
      vertex 4.5 -8.84202 20.4397
      vertex 4.5 -9.36602 20
    endloop
  endfacet
  facet normal 0 0.642789 -0.766044
    outer loop
      vertex 4.5 -8.84202 20.4397
      vertex -1.11022e-016 -9.36602 20
      vertex -2.08654e-016 -8.84202 20.4397
    endloop
  endfacet
  facet normal 0 0.984808 -0.173648
    outer loop
      vertex 4.5 -9.48481 19.3264
      vertex -1.11022e-016 -9.36602 20
      vertex 4.5 -9.36602 20
    endloop
  endfacet
  facet normal 0 0.984808 -0.173648
    outer loop
      vertex -1.11022e-016 -9.36602 20
      vertex 4.5 -9.48481 19.3264
      vertex 3.85576e-017 -9.48481 19.3264
    endloop
  endfacet
  facet normal 0 -0.34202 0.939693
    outer loop
      vertex 4.5 9.14279 18.734
      vertex 2.22045e-016 8.5 18.5
      vertex 4.5 8.5 18.5
    endloop
  endfacet
  facet normal 0 -0.34202 0.939693
    outer loop
      vertex 2.22045e-016 8.5 18.5
      vertex 4.5 9.14279 18.734
      vertex 1.70096e-016 9.14279 18.734
    endloop
  endfacet
  facet normal 0 0 -1
    outer loop
      vertex -2.08654e-016 8.15798 20.4397
      vertex 4.5 8.84202 20.4397
      vertex 4.5 8.15798 20.4397
    endloop
  endfacet
  facet normal -0 0 -1
    outer loop
      vertex 4.5 8.84202 20.4397
      vertex -2.08654e-016 8.15798 20.4397
      vertex -2.08654e-016 8.84202 20.4397
    endloop
  endfacet
  facet normal 0 -0.984808 -0.173648
    outer loop
      vertex 3.85576e-017 9.48481 19.3264
      vertex 4.5 9.36602 20
      vertex -1.11022e-016 9.36602 20
    endloop
  endfacet
  facet normal 0 -0.984808 -0.173648
    outer loop
      vertex 4.5 9.36602 20
      vertex 3.85576e-017 9.48481 19.3264
      vertex 4.5 9.48481 19.3264
    endloop
  endfacet
  facet normal 0 -0.866025 0.5
    outer loop
      vertex 1.70096e-016 9.14279 18.734
      vertex 4.5 9.48481 19.3264
      vertex 3.85576e-017 9.48481 19.3264
    endloop
  endfacet
  facet normal 0 -0.866025 0.5
    outer loop
      vertex 4.5 9.48481 19.3264
      vertex 1.70096e-016 9.14279 18.734
      vertex 4.5 9.14279 18.734
    endloop
  endfacet
  facet normal 0 -0.642789 -0.766044
    outer loop
      vertex 4.5 8.84202 20.4397
      vertex -1.11022e-016 9.36602 20
      vertex 4.5 9.36602 20
    endloop
  endfacet
  facet normal 0 -0.642789 -0.766044
    outer loop
      vertex -1.11022e-016 9.36602 20
      vertex 4.5 8.84202 20.4397
      vertex -2.08654e-016 8.84202 20.4397
    endloop
  endfacet
  facet normal 0 0.866025 0.5
    outer loop
      vertex 4.5 7.85721 18.734
      vertex 3.85576e-017 7.51519 19.3264
      vertex 4.5 7.51519 19.3264
    endloop
  endfacet
  facet normal 0 0.866025 0.5
    outer loop
      vertex 3.85576e-017 7.51519 19.3264
      vertex 4.5 7.85721 18.734
      vertex 1.70096e-016 7.85721 18.734
    endloop
  endfacet
  facet normal -0 0.34202 0.939693
    outer loop
      vertex 2.22045e-016 8.5 18.5
      vertex 4.5 7.85721 18.734
      vertex 4.5 8.5 18.5
    endloop
  endfacet
  facet normal 0 0.34202 0.939693
    outer loop
      vertex 4.5 7.85721 18.734
      vertex 2.22045e-016 8.5 18.5
      vertex 1.70096e-016 7.85721 18.734
    endloop
  endfacet
  facet normal 0 0.984808 -0.173648
    outer loop
      vertex 4.5 7.51519 19.3264
      vertex -1.11022e-016 7.63397 20
      vertex 4.5 7.63397 20
    endloop
  endfacet
  facet normal 0 0.984808 -0.173648
    outer loop
      vertex -1.11022e-016 7.63397 20
      vertex 4.5 7.51519 19.3264
      vertex 3.85576e-017 7.51519 19.3264
    endloop
  endfacet
  facet normal 0 0.642789 -0.766044
    outer loop
      vertex -1.11022e-016 7.63397 20
      vertex 4.5 8.15798 20.4397
      vertex 4.5 7.63397 20
    endloop
  endfacet
  facet normal 0 0.642789 -0.766044
    outer loop
      vertex 4.5 8.15798 20.4397
      vertex -1.11022e-016 7.63397 20
      vertex -2.08654e-016 8.15798 20.4397
    endloop
  endfacet
  facet normal -0.34202 0 0.939693
    outer loop
      vertex 6 38.5 18.5
      vertex 6.64279 30.6974 18.734
      vertex 6.64279 38.5 18.734
    endloop
  endfacet
  facet normal -0.34202 0 0.939693
    outer loop
      vertex 6.64279 30.6974 18.734
      vertex 6 38.5 18.5
      vertex 6 29.9835 18.5
    endloop
  endfacet
  facet normal -0.866025 0 0.5
    outer loop
      vertex 6.64279 38.5 18.734
      vertex 6.98481 31.076 19.3264
      vertex 6.98481 38.5 19.3264
    endloop
  endfacet
  facet normal -0.866012 2.43242e-006 0.500023
    outer loop
      vertex 6.64279 38.5 18.734
      vertex 6.98152 31.0736 19.3207
      vertex 6.98481 31.076 19.3264
    endloop
  endfacet
  facet normal -0.866025 0 0.5
    outer loop
      vertex 6.98152 31.0736 19.3207
      vertex 6.64279 38.5 18.734
      vertex 6.64279 30.6974 18.734
    endloop
  endfacet
  facet normal 0 0 -1
    outer loop
      vertex 5.65798 38.5 20.4397
      vertex 6.34202 30.3633 20.4397
      vertex 5.93237 29.9084 20.4397
    endloop
  endfacet
  facet normal 0 0 -1
    outer loop
      vertex 5.65798 38.5 20.4397
      vertex 5.93237 29.9084 20.4397
      vertex 5.65798 29.4331 20.4397
    endloop
  endfacet
  facet normal 0 0 -1
    outer loop
      vertex 6.34202 30.3633 20.4397
      vertex 5.65798 38.5 20.4397
      vertex 6.34202 38.5 20.4397
    endloop
  endfacet
  facet normal -0.984808 0 -0.173648
    outer loop
      vertex 6.98481 31.076 19.3264
      vertex 6.86602 38.5 20
      vertex 6.98481 38.5 19.3264
    endloop
  endfacet
  facet normal -0.984809 -8.14387e-007 -0.173639
    outer loop
      vertex 6.98152 31.0736 19.345
      vertex 6.86602 38.5 20
      vertex 6.98481 31.076 19.3264
    endloop
  endfacet
  facet normal -0.984808 -0 -0.173648
    outer loop
      vertex 6.86602 38.5 20
      vertex 6.98152 31.0736 19.345
      vertex 6.86602 30.9453 20
    endloop
  endfacet
  facet normal -0.642789 -0 -0.766044
    outer loop
      vertex 6.34202 38.5 20.4397
      vertex 6.86602 30.9453 20
      vertex 6.34202 30.3633 20.4397
    endloop
  endfacet
  facet normal -0.642789 0 -0.766044
    outer loop
      vertex 6.86602 30.9453 20
      vertex 6.34202 38.5 20.4397
      vertex 6.86602 38.5 20
    endloop
  endfacet
  facet normal 0.642789 4.84934e-008 -0.766043
    outer loop
      vertex 5.13397 38.5 20
      vertex 5.65798 29.4331 20.4397
      vertex 5.14841 28.5505 20.0121
    endloop
  endfacet
  facet normal 0.642769 0 -0.76606
    outer loop
      vertex 5.13397 38.5 20
      vertex 5.14841 28.5505 20.0121
      vertex 5.13397 28.5061 20
    endloop
  endfacet
  facet normal 0.642789 0 -0.766044
    outer loop
      vertex 5.65798 29.4331 20.4397
      vertex 5.13397 38.5 20
      vertex 5.65798 38.5 20.4397
    endloop
  endfacet
  facet normal 0.866025 0 0.5
    outer loop
      vertex 5.01519 38.5 19.3264
      vertex 5.35721 28.9122 18.734
      vertex 5.35721 38.5 18.734
    endloop
  endfacet
  facet normal 0.866026 4.5476e-008 0.5
    outer loop
      vertex 5.01519 38.5 19.3264
      vertex 5.14841 28.5505 19.0956
      vertex 5.35721 28.9122 18.734
    endloop
  endfacet
  facet normal 0.866025 0 0.500001
    outer loop
      vertex 5.14841 28.5505 19.0956
      vertex 5.01519 38.5 19.3264
      vertex 5.01519 28.1405 19.3264
    endloop
  endfacet
  facet normal 0.34202 0 0.939693
    outer loop
      vertex 5.35721 38.5 18.734
      vertex 6 29.9835 18.5
      vertex 6 38.5 18.5
    endloop
  endfacet
  facet normal 0.342018 -1.7448e-007 0.939694
    outer loop
      vertex 6 29.9835 18.5
      vertex 5.35721 38.5 18.734
      vertex 5.93237 29.9084 18.5246
    endloop
  endfacet
  facet normal 0.34202 0 0.939693
    outer loop
      vertex 5.93237 29.9084 18.5246
      vertex 5.35721 38.5 18.734
      vertex 5.35721 28.9122 18.734
    endloop
  endfacet
  facet normal 0.984808 0 -0.173648
    outer loop
      vertex 5.13397 28.5061 20
      vertex 5.01519 38.5 19.3264
      vertex 5.13397 38.5 20
    endloop
  endfacet
  facet normal 0.984808 0 -0.173648
    outer loop
      vertex 5.01519 38.5 19.3264
      vertex 5.13397 28.5061 20
      vertex 5.01519 28.1405 19.3264
    endloop
  endfacet
  facet normal -1 0 0
    outer loop
      vertex 0 -14.5 -11
      vertex 0 -26.5 -8.5
      vertex 0 -14.5 -8.5
    endloop
  endfacet
  facet normal -1 0 0
    outer loop
      vertex 0 -29.5 -11
      vertex 0 -26.5 -6
      vertex 0 -26.5 -8.5
    endloop
  endfacet
  facet normal -1 0 0
    outer loop
      vertex 0 -26.5 -6
      vertex 0 -29.5 22
      vertex 0 -26.5 19.5
    endloop
  endfacet
  facet normal -1 0 0
    outer loop
      vertex 0 -29.5 -11
      vertex 0 -26.5 -8.5
      vertex 0 -14.5 -11
    endloop
  endfacet
  facet normal -1 -0 0
    outer loop
      vertex 0 -26.5 -6
      vertex 0 -29.5 -11
      vertex 0 -29.5 22
    endloop
  endfacet
  facet normal -1 0 0
    outer loop
      vertex 0 -26.5 19.5
      vertex 0 -29.5 22
      vertex 0 -26.5 22
    endloop
  endfacet
  facet normal -1 0 0
    outer loop
      vertex 0 -19.0975 0.531907
      vertex 0 -14.5 -6
      vertex 0 -19.0109 -0.180804
    endloop
  endfacet
  facet normal -1 0 0
    outer loop
      vertex 0 -14.5 -6
      vertex 0 -19.2655 -0.852097
      vertex 0 -19.0109 -0.180804
    endloop
  endfacet
  facet normal -1 0 0
    outer loop
      vertex 0 -14.5 -6
      vertex 0 -19.8029 -1.32818
      vertex 0 -19.2655 -0.852097
    endloop
  endfacet
  facet normal -1 0 0
    outer loop
      vertex 0 -14.5 -6
      vertex 0 -20.5 -1.5
      vertex 0 -19.8029 -1.32818
    endloop
  endfacet
  facet normal -1 0 0
    outer loop
      vertex 0 -26.5 -6
      vertex 0 -20.5 -1.5
      vertex 0 -14.5 -6
    endloop
  endfacet
  facet normal -1 -0 0
    outer loop
      vertex 0 -21.7345 -0.852097
      vertex 0 -26.5 -6
      vertex 0 -21.9891 -0.180804
    endloop
  endfacet
  facet normal -1 -0 0
    outer loop
      vertex 0 -21.1971 -1.32818
      vertex 0 -26.5 -6
      vertex 0 -21.7345 -0.852097
    endloop
  endfacet
  facet normal -1 -0 0
    outer loop
      vertex 0 -20.5 -1.5
      vertex 0 -26.5 -6
      vertex 0 -21.1971 -1.32818
    endloop
  endfacet
  facet normal -1 0 0
    outer loop
      vertex 0 -14.5 -6
      vertex 0 -19.0975 0.531907
      vertex 0 -14.5 19.5
    endloop
  endfacet
  facet normal -1 0 0
    outer loop
      vertex 0 -19.5053 1.12277
      vertex 0 -14.5 19.5
      vertex 0 -19.0975 0.531907
    endloop
  endfacet
  facet normal -1 0 0
    outer loop
      vertex 0 -20.141 1.45641
      vertex 0 -14.5 19.5
      vertex 0 -19.5053 1.12277
    endloop
  endfacet
  facet normal -1 0 0
    outer loop
      vertex 0 -20.859 1.45641
      vertex 0 -14.5 19.5
      vertex 0 -20.141 1.45641
    endloop
  endfacet
  facet normal -1 0 0
    outer loop
      vertex 0 -26.5 19.5
      vertex 0 -20.859 1.45641
      vertex 0 -21.4947 1.12277
    endloop
  endfacet
  facet normal -1 0 0
    outer loop
      vertex 0 -26.5 19.5
      vertex 0 -21.4947 1.12277
      vertex 0 -21.9025 0.531907
    endloop
  endfacet
  facet normal -1 0 0
    outer loop
      vertex 0 -26.5 -6
      vertex 0 -21.9025 0.531907
      vertex 0 -21.9891 -0.180804
    endloop
  endfacet
  facet normal -1 0 0
    outer loop
      vertex 0 -26.5 19.5
      vertex 0 -21.9025 0.531907
      vertex 0 -26.5 -6
    endloop
  endfacet
  facet normal -1 0 0
    outer loop
      vertex 0 -20.859 1.45641
      vertex 0 -26.5 19.5
      vertex 0 -14.5 19.5
    endloop
  endfacet
  facet normal -0 0 1
    outer loop
      vertex 0 -26.5 22
      vertex 12 -29.5 22
      vertex 12 -26.5 22
    endloop
  endfacet
  facet normal 0 0 1
    outer loop
      vertex 12 -29.5 22
      vertex 0 -26.5 22
      vertex 0 -29.5 22
    endloop
  endfacet
  facet normal 1 -0 0
    outer loop
      vertex 12 -29.5 22
      vertex 12 -26.5 19.5
      vertex 12 -26.5 22
    endloop
  endfacet
  facet normal 1 0 0
    outer loop
      vertex 12 -26.5 19.5
      vertex 12 -29.5 22
      vertex 12 -26.5 17
    endloop
  endfacet
  facet normal 1 0 0
    outer loop
      vertex 12 -29.5 -11
      vertex 12 -26.5 17
      vertex 12 -29.5 22
    endloop
  endfacet
  facet normal 1 0 0
    outer loop
      vertex 12 -26.5 17
      vertex 12 -29.5 -11
      vertex 12 -26.5 -8.5
    endloop
  endfacet
  facet normal 1 0 0
    outer loop
      vertex 12 -26.5 -8.5
      vertex 12 -29.5 -11
      vertex 12 -26.5 -11
    endloop
  endfacet
  facet normal 0 0 -1
    outer loop
      vertex 12 -29.5 -11
      vertex 2.5 -26.5 -11
      vertex 12 -26.5 -11
    endloop
  endfacet
  facet normal 0 0 -1
    outer loop
      vertex 2.5 -26.5 -11
      vertex 5.55112e-016 -14.5 -11
      vertex 2.5 -14.5 -11
    endloop
  endfacet
  facet normal 0 0 -1
    outer loop
      vertex 0 -29.5 -11
      vertex 2.5 -26.5 -11
      vertex 12 -29.5 -11
    endloop
  endfacet
  facet normal 0 0 -1
    outer loop
      vertex 0 -14.5 -11
      vertex 2.5 -26.5 -11
      vertex 0 -29.5 -11
    endloop
  endfacet
  facet normal 0 0 -1
    outer loop
      vertex 2.5 -26.5 -11
      vertex 0 -14.5 -11
      vertex 5.55112e-016 -14.5 -11
    endloop
  endfacet
  facet normal 0 -1 0
    outer loop
      vertex 0 -29.5 22
      vertex 6.1808 -29.5 1.48906
      vertex 12 -29.5 22
    endloop
  endfacet
  facet normal 0 -1 0
    outer loop
      vertex 0 -29.5 22
      vertex 5.46809 -29.5 1.40252
      vertex 6.1808 -29.5 1.48906
    endloop
  endfacet
  facet normal 0 -1 0
    outer loop
      vertex 0 -29.5 22
      vertex 4.87723 -29.5 0.994683
      vertex 5.46809 -29.5 1.40252
    endloop
  endfacet
  facet normal 0 -1 0
    outer loop
      vertex 0 -29.5 22
      vertex 4.54359 -29.5 0.358973
      vertex 4.87723 -29.5 0.994683
    endloop
  endfacet
  facet normal 0 -1 0
    outer loop
      vertex 0 -29.5 -11
      vertex 4.54359 -29.5 0.358973
      vertex 0 -29.5 22
    endloop
  endfacet
  facet normal 0 -1 -0
    outer loop
      vertex 5.46809 -29.5 -1.40252
      vertex 0 -29.5 -11
      vertex 6.1808 -29.5 -1.48906
    endloop
  endfacet
  facet normal 0 -1 -0
    outer loop
      vertex 4.87723 -29.5 -0.994683
      vertex 0 -29.5 -11
      vertex 5.46809 -29.5 -1.40252
    endloop
  endfacet
  facet normal 0 -1 -0
    outer loop
      vertex 4.54359 -29.5 -0.358973
      vertex 0 -29.5 -11
      vertex 4.87723 -29.5 -0.994683
    endloop
  endfacet
  facet normal 0 -1 -0
    outer loop
      vertex 4.54359 -29.5 0.358973
      vertex 0 -29.5 -11
      vertex 4.54359 -29.5 -0.358973
    endloop
  endfacet
  facet normal 0 -1 0
    outer loop
      vertex 6.8521 -29.5 1.23448
      vertex 12 -29.5 22
      vertex 6.1808 -29.5 1.48906
    endloop
  endfacet
  facet normal 0 -1 0
    outer loop
      vertex 7.32818 -29.5 0.697084
      vertex 12 -29.5 22
      vertex 6.8521 -29.5 1.23448
    endloop
  endfacet
  facet normal 0 -1 0
    outer loop
      vertex 7.5 -29.5 0
      vertex 12 -29.5 22
      vertex 7.32818 -29.5 0.697084
    endloop
  endfacet
  facet normal 0 -1 0
    outer loop
      vertex 12 -29.5 -11
      vertex 6.1808 -29.5 -1.48906
      vertex 0 -29.5 -11
    endloop
  endfacet
  facet normal 0 -1 0
    outer loop
      vertex 6.1808 -29.5 -1.48906
      vertex 12 -29.5 -11
      vertex 6.8521 -29.5 -1.23448
    endloop
  endfacet
  facet normal 0 -1 0
    outer loop
      vertex 7.5 -29.5 0
      vertex 12 -29.5 -11
      vertex 12 -29.5 22
    endloop
  endfacet
  facet normal 0 -1 0
    outer loop
      vertex 7.32818 -29.5 -0.697084
      vertex 12 -29.5 -11
      vertex 7.5 -29.5 0
    endloop
  endfacet
  facet normal 0 -1 0
    outer loop
      vertex 6.8521 -29.5 -1.23448
      vertex 12 -29.5 -11
      vertex 7.32818 -29.5 -0.697084
    endloop
  endfacet
  facet normal 1 -0 0
    outer loop
      vertex 2.5 -19.0975 0.531907
      vertex 2.5 -14.5 -6
      vertex 2.5 -14.5 17
    endloop
  endfacet
  facet normal 1 0 0
    outer loop
      vertex 2.5 -14.5 -6
      vertex 2.5 -19.0975 0.531907
      vertex 2.5 -19.0109 -0.180804
    endloop
  endfacet
  facet normal 1 0 0
    outer loop
      vertex 2.5 -14.5 17
      vertex 2.5 -19.5053 1.12277
      vertex 2.5 -19.0975 0.531907
    endloop
  endfacet
  facet normal 1 0 0
    outer loop
      vertex 2.5 -14.5 17
      vertex 2.5 -20.141 1.45641
      vertex 2.5 -19.5053 1.12277
    endloop
  endfacet
  facet normal 1 0 0
    outer loop
      vertex 2.5 -14.5 17
      vertex 2.5 -20.859 1.45641
      vertex 2.5 -20.141 1.45641
    endloop
  endfacet
  facet normal 1 -0 0
    outer loop
      vertex 2.5 -26.5 17
      vertex 2.5 -20.859 1.45641
      vertex 2.5 -14.5 17
    endloop
  endfacet
  facet normal 1 0 0
    outer loop
      vertex 2.5 -20.859 1.45641
      vertex 2.5 -26.5 17
      vertex 2.5 -21.4947 1.12277
    endloop
  endfacet
  facet normal 1 0 0
    outer loop
      vertex 2.5 -26.5 -6
      vertex 2.5 -21.9025 0.531907
      vertex 2.5 -26.5 17
    endloop
  endfacet
  facet normal 1 0 0
    outer loop
      vertex 2.5 -21.4947 1.12277
      vertex 2.5 -26.5 17
      vertex 2.5 -21.9025 0.531907
    endloop
  endfacet
  facet normal 1 -0 0
    outer loop
      vertex 2.5 -19.2655 -0.852097
      vertex 2.5 -14.5 -6
      vertex 2.5 -19.0109 -0.180804
    endloop
  endfacet
  facet normal 1 -0 0
    outer loop
      vertex 2.5 -19.8029 -1.32818
      vertex 2.5 -14.5 -6
      vertex 2.5 -19.2655 -0.852097
    endloop
  endfacet
  facet normal 1 -0 0
    outer loop
      vertex 2.5 -20.4129 -1.47852
      vertex 2.5 -14.5 -6
      vertex 2.5 -19.8029 -1.32818
    endloop
  endfacet
  facet normal 1 -0 0
    outer loop
      vertex 2.5 -20.5 -1.5
      vertex 2.5 -14.5 -6
      vertex 2.5 -20.4129 -1.47852
    endloop
  endfacet
  facet normal 1 0 0
    outer loop
      vertex 2.5 -26.5 -6
      vertex 2.5 -20.5 -1.5
      vertex 2.5 -20.5871 -1.47852
    endloop
  endfacet
  facet normal 1 0 0
    outer loop
      vertex 2.5 -26.5 -6
      vertex 2.5 -20.5871 -1.47852
      vertex 2.5 -21.1971 -1.32818
    endloop
  endfacet
  facet normal 1 0 0
    outer loop
      vertex 2.5 -20.5 -1.5
      vertex 2.5 -26.5 -6
      vertex 2.5 -14.5 -6
    endloop
  endfacet
  facet normal 1 0 0
    outer loop
      vertex 2.5 -21.7345 -0.852097
      vertex 2.5 -26.5 -6
      vertex 2.5 -21.1971 -1.32818
    endloop
  endfacet
  facet normal 1 0 0
    outer loop
      vertex 2.5 -21.9891 -0.180804
      vertex 2.5 -26.5 -6
      vertex 2.5 -21.7345 -0.852097
    endloop
  endfacet
  facet normal 1 0 0
    outer loop
      vertex 2.5 -21.9025 0.531907
      vertex 2.5 -26.5 -6
      vertex 2.5 -21.9891 -0.180804
    endloop
  endfacet
  facet normal 0 1 0
    outer loop
      vertex 5.55112e-016 -14.5 -11
      vertex 0 -14.5 -11
      vertex 0 -14.5 -8.5
    endloop
  endfacet
  facet normal 0 1 0
    outer loop
      vertex 2.5 -14.5 17
      vertex 2.5 -14.5 -6
      vertex 5.55112e-016 -14.5 17
    endloop
  endfacet
  facet normal 0 1 0
    outer loop
      vertex 5.55112e-016 -14.5 17
      vertex 0 -14.5 -6
      vertex 0 -14.5 19.5
    endloop
  endfacet
  facet normal 0 1 0
    outer loop
      vertex 0 -14.5 -6
      vertex 5.55112e-016 -14.5 17
      vertex 2.5 -14.5 -6
    endloop
  endfacet
  facet normal -0.970942 0 -0.239317
    outer loop
      vertex 7.5 -29.5 0
      vertex 7.32818 -26.5 0.697084
      vertex 7.5 -26.5 0
    endloop
  endfacet
  facet normal -0.970942 -0 -0.239317
    outer loop
      vertex 7.32818 -26.5 0.697084
      vertex 7.5 -29.5 0
      vertex 7.32818 -29.5 0.697084
    endloop
  endfacet
  facet normal -0.748511 0 -0.663123
    outer loop
      vertex 7.32818 -29.5 0.697084
      vertex 6.8521 -26.5 1.23448
      vertex 7.32818 -26.5 0.697084
    endloop
  endfacet
  facet normal -0.748511 -0 -0.663123
    outer loop
      vertex 6.8521 -26.5 1.23448
      vertex 7.32818 -29.5 0.697084
      vertex 6.8521 -29.5 1.23448
    endloop
  endfacet
  facet normal 1 -0 0
    outer loop
      vertex 4.54359 -29.5 0.358973
      vertex 4.54359 -26.5 -0.358973
      vertex 4.54359 -26.5 0.358973
    endloop
  endfacet
  facet normal 1 0 0
    outer loop
      vertex 4.54359 -26.5 -0.358973
      vertex 4.54359 -29.5 0.358973
      vertex 4.54359 -29.5 -0.358973
    endloop
  endfacet
  facet normal 0.120537 0 -0.992709
    outer loop
      vertex 5.46809 -29.5 1.40252
      vertex 6.1808 -26.5 1.48906
      vertex 6.1808 -29.5 1.48906
    endloop
  endfacet
  facet normal 0.120537 0 -0.992709
    outer loop
      vertex 6.1808 -26.5 1.48906
      vertex 5.46809 -29.5 1.40252
      vertex 5.46809 -26.5 1.40252
    endloop
  endfacet
  facet normal -0.354606 0 0.935016
    outer loop
      vertex 6.1808 -26.5 -1.48906
      vertex 6.8521 -29.5 -1.23448
      vertex 6.8521 -26.5 -1.23448
    endloop
  endfacet
  facet normal -0.354606 0 0.935016
    outer loop
      vertex 6.8521 -29.5 -1.23448
      vertex 6.1808 -26.5 -1.48906
      vertex 6.1808 -29.5 -1.48906
    endloop
  endfacet
  facet normal -0.354606 0 -0.935016
    outer loop
      vertex 6.1808 -29.5 1.48906
      vertex 6.8521 -26.5 1.23448
      vertex 6.8521 -29.5 1.23448
    endloop
  endfacet
  facet normal -0.354606 0 -0.935016
    outer loop
      vertex 6.8521 -26.5 1.23448
      vertex 6.1808 -29.5 1.48906
      vertex 6.1808 -26.5 1.48906
    endloop
  endfacet
  facet normal 0.568065 0 -0.822983
    outer loop
      vertex 4.87723 -29.5 0.994683
      vertex 5.46809 -26.5 1.40252
      vertex 5.46809 -29.5 1.40252
    endloop
  endfacet
  facet normal 0.568065 0 -0.822983
    outer loop
      vertex 5.46809 -26.5 1.40252
      vertex 4.87723 -29.5 0.994683
      vertex 4.87723 -26.5 0.994683
    endloop
  endfacet
  facet normal 0.120537 0 0.992709
    outer loop
      vertex 5.46809 -26.5 -1.40252
      vertex 6.1808 -29.5 -1.48906
      vertex 6.1808 -26.5 -1.48906
    endloop
  endfacet
  facet normal 0.120537 0 0.992709
    outer loop
      vertex 6.1808 -29.5 -1.48906
      vertex 5.46809 -26.5 -1.40252
      vertex 5.46809 -29.5 -1.40252
    endloop
  endfacet
  facet normal 0.885456 -0 0.464723
    outer loop
      vertex 4.54359 -29.5 -0.358973
      vertex 4.87723 -26.5 -0.994683
      vertex 4.54359 -26.5 -0.358973
    endloop
  endfacet
  facet normal 0.885456 0 0.464723
    outer loop
      vertex 4.87723 -26.5 -0.994683
      vertex 4.54359 -29.5 -0.358973
      vertex 4.87723 -29.5 -0.994683
    endloop
  endfacet
  facet normal 0.885456 0 -0.464723
    outer loop
      vertex 4.87723 -29.5 0.994683
      vertex 4.54359 -26.5 0.358973
      vertex 4.87723 -26.5 0.994683
    endloop
  endfacet
  facet normal 0.885456 0 -0.464723
    outer loop
      vertex 4.54359 -26.5 0.358973
      vertex 4.87723 -29.5 0.994683
      vertex 4.54359 -29.5 0.358973
    endloop
  endfacet
  facet normal -0.748511 0 0.663123
    outer loop
      vertex 6.8521 -29.5 -1.23448
      vertex 7.32818 -26.5 -0.697084
      vertex 6.8521 -26.5 -1.23448
    endloop
  endfacet
  facet normal -0.748511 0 0.663123
    outer loop
      vertex 7.32818 -26.5 -0.697084
      vertex 6.8521 -29.5 -1.23448
      vertex 7.32818 -29.5 -0.697084
    endloop
  endfacet
  facet normal -0.970942 0 0.239317
    outer loop
      vertex 7.32818 -29.5 -0.697084
      vertex 7.5 -26.5 0
      vertex 7.32818 -26.5 -0.697084
    endloop
  endfacet
  facet normal -0.970942 0 0.239317
    outer loop
      vertex 7.5 -26.5 0
      vertex 7.32818 -29.5 -0.697084
      vertex 7.5 -29.5 0
    endloop
  endfacet
  facet normal 0.568065 0 0.822983
    outer loop
      vertex 4.87723 -26.5 -0.994683
      vertex 5.46809 -29.5 -1.40252
      vertex 5.46809 -26.5 -1.40252
    endloop
  endfacet
  facet normal 0.568065 0 0.822983
    outer loop
      vertex 5.46809 -29.5 -1.40252
      vertex 4.87723 -26.5 -0.994683
      vertex 4.87723 -29.5 -0.994683
    endloop
  endfacet
  facet normal 0 -0.239316 0.970942
    outer loop
      vertex 0 -19.8029 -1.32818
      vertex 2.5 -20.4129 -1.47852
      vertex 2.5 -19.8029 -1.32818
    endloop
  endfacet
  facet normal -4.5646e-008 -0.239316 0.970942
    outer loop
      vertex 2.5 -20.4129 -1.47852
      vertex 0 -19.8029 -1.32818
      vertex 0 -20.5 -1.5
    endloop
  endfacet
  facet normal -4.62981e-008 -0.239316 0.970942
    outer loop
      vertex 2.5 -20.5 -1.5
      vertex 2.5 -20.4129 -1.47852
      vertex 0 -20.5 -1.5
    endloop
  endfacet
  facet normal 0 0 -1
    outer loop
      vertex 0 -20.859 1.45641
      vertex 2.5 -20.141 1.45641
      vertex 2.5 -20.859 1.45641
    endloop
  endfacet
  facet normal -0 0 -1
    outer loop
      vertex 2.5 -20.141 1.45641
      vertex 0 -20.859 1.45641
      vertex 0 -20.141 1.45641
    endloop
  endfacet
  facet normal -2.2823e-008 0.239317 0.970942
    outer loop
      vertex 0 -21.1971 -1.32818
      vertex 2.5 -20.5871 -1.47852
      vertex 0 -20.5 -1.5
    endloop
  endfacet
  facet normal 0 0.239317 0.970942
    outer loop
      vertex 2.5 -20.5871 -1.47852
      vertex 0 -21.1971 -1.32818
      vertex 2.5 -21.1971 -1.32818
    endloop
  endfacet
  facet normal 0 -0.992709 -0.120536
    outer loop
      vertex 0 -19.0109 -0.180804
      vertex 2.5 -19.0975 0.531907
      vertex 0 -19.0975 0.531907
    endloop
  endfacet
  facet normal 0 -0.992709 -0.120536
    outer loop
      vertex 2.5 -19.0975 0.531907
      vertex 0 -19.0109 -0.180804
      vertex 2.5 -19.0109 -0.180804
    endloop
  endfacet
  facet normal 0 -0.663123 0.74851
    outer loop
      vertex 0 -19.2655 -0.852097
      vertex 2.5 -19.8029 -1.32818
      vertex 2.5 -19.2655 -0.852097
    endloop
  endfacet
  facet normal 0 -0.663123 0.74851
    outer loop
      vertex 2.5 -19.8029 -1.32818
      vertex 0 -19.2655 -0.852097
      vertex 0 -19.8029 -1.32818
    endloop
  endfacet
  facet normal 0 -0.464724 -0.885456
    outer loop
      vertex 0 -20.141 1.45641
      vertex 2.5 -19.5053 1.12277
      vertex 2.5 -20.141 1.45641
    endloop
  endfacet
  facet normal -0 -0.464724 -0.885456
    outer loop
      vertex 2.5 -19.5053 1.12277
      vertex 0 -20.141 1.45641
      vertex 0 -19.5053 1.12277
    endloop
  endfacet
  facet normal 0 -0.822983 -0.568065
    outer loop
      vertex 0 -19.0975 0.531907
      vertex 2.5 -19.5053 1.12277
      vertex 0 -19.5053 1.12277
    endloop
  endfacet
  facet normal 0 -0.822983 -0.568065
    outer loop
      vertex 2.5 -19.5053 1.12277
      vertex 0 -19.0975 0.531907
      vertex 2.5 -19.0975 0.531907
    endloop
  endfacet
  facet normal -4.62981e-008 0.239316 0.970942
    outer loop
      vertex 2.5 -20.5871 -1.47852
      vertex 2.5 -20.5 -1.5
      vertex 0 -20.5 -1.5
    endloop
  endfacet
  facet normal 0 -0.935016 0.354604
    outer loop
      vertex 0 -19.2655 -0.852097
      vertex 2.5 -19.0109 -0.180804
      vertex 0 -19.0109 -0.180804
    endloop
  endfacet
  facet normal 0 -0.935016 0.354604
    outer loop
      vertex 2.5 -19.0109 -0.180804
      vertex 0 -19.2655 -0.852097
      vertex 2.5 -19.2655 -0.852097
    endloop
  endfacet
  facet normal 0 0.992709 -0.120539
    outer loop
      vertex 2.5 -21.9891 -0.180804
      vertex 0 -21.9025 0.531907
      vertex 2.5 -21.9025 0.531907
    endloop
  endfacet
  facet normal 0 0.992709 -0.120539
    outer loop
      vertex 0 -21.9025 0.531907
      vertex 2.5 -21.9891 -0.180804
      vertex 0 -21.9891 -0.180804
    endloop
  endfacet
  facet normal 0 0.464724 -0.885456
    outer loop
      vertex 0 -21.4947 1.12277
      vertex 2.5 -20.859 1.45641
      vertex 2.5 -21.4947 1.12277
    endloop
  endfacet
  facet normal 0 0.464724 -0.885456
    outer loop
      vertex 2.5 -20.859 1.45641
      vertex 0 -21.4947 1.12277
      vertex 0 -20.859 1.45641
    endloop
  endfacet
  facet normal 0 0.935016 0.354607
    outer loop
      vertex 2.5 -21.7345 -0.852097
      vertex 0 -21.9891 -0.180804
      vertex 2.5 -21.9891 -0.180804
    endloop
  endfacet
  facet normal 0 0.935016 0.354607
    outer loop
      vertex 0 -21.9891 -0.180804
      vertex 2.5 -21.7345 -0.852097
      vertex 0 -21.7345 -0.852097
    endloop
  endfacet
  facet normal -0 0.663123 0.74851
    outer loop
      vertex 0 -21.1971 -1.32818
      vertex 2.5 -21.7345 -0.852097
      vertex 2.5 -21.1971 -1.32818
    endloop
  endfacet
  facet normal 0 0.663123 0.74851
    outer loop
      vertex 2.5 -21.7345 -0.852097
      vertex 0 -21.1971 -1.32818
      vertex 0 -21.7345 -0.852097
    endloop
  endfacet
  facet normal 0 0.822983 -0.568065
    outer loop
      vertex 2.5 -21.9025 0.531907
      vertex 0 -21.4947 1.12277
      vertex 2.5 -21.4947 1.12277
    endloop
  endfacet
  facet normal 0 0.822983 -0.568065
    outer loop
      vertex 0 -21.4947 1.12277
      vertex 2.5 -21.9025 0.531907
      vertex 0 -21.9025 0.531907
    endloop
  endfacet
  facet normal 0.587785 0.809017 -0
    outer loop
      vertex 8.25 -23.9952 -11
      vertex 6.98152 -23.0736 -6
      vertex 8.25 -23.9952 -6
    endloop
  endfacet
  facet normal 0.587785 0.809017 0
    outer loop
      vertex 6.98152 -23.0736 -6
      vertex 8.25 -23.9952 -11
      vertex 6.98152 -23.0736 -11
    endloop
  endfacet
  facet normal 0.587785 0.809017 -0
    outer loop
      vertex 8.25 -23.9952 17
      vertex 6.98152 -23.0736 22
      vertex 8.25 -23.9952 22
    endloop
  endfacet
  facet normal 0.587785 0.809017 0
    outer loop
      vertex 6.98152 -23.0736 22
      vertex 8.25 -23.9952 17
      vertex 6.98152 -23.0736 17
    endloop
  endfacet
  facet normal 0 1 -0
    outer loop
      vertex 12 -24.9589 -11
      vertex 11.216 -24.9589 -6
      vertex 12 -24.9589 -6
    endloop
  endfacet
  facet normal 0 1 0
    outer loop
      vertex 11.216 -24.9589 -6
      vertex 12 -24.9589 -11
      vertex 11.216 -24.9589 -11
    endloop
  endfacet
  facet normal 0 1 -0
    outer loop
      vertex 12 -24.9589 17
      vertex 11.216 -24.9589 22
      vertex 12 -24.9589 22
    endloop
  endfacet
  facet normal 0 1 0
    outer loop
      vertex 11.216 -24.9589 22
      vertex 12 -24.9589 17
      vertex 11.216 -24.9589 17
    endloop
  endfacet
  facet normal 1 0 0
    outer loop
      vertex 4.5 25.5 -6
      vertex 4.5 9.48481 -8.67365
      vertex 4.5 25.5 -11
    endloop
  endfacet
  facet normal 1 0 0
    outer loop
      vertex 4.5 25.5 -6
      vertex 4.5 9.36602 -8
      vertex 4.5 9.48481 -8.67365
    endloop
  endfacet
  facet normal 1 0 0
    outer loop
      vertex 4.5 25.5 -6
      vertex 4.5 8.84202 -7.56031
      vertex 4.5 9.36602 -8
    endloop
  endfacet
  facet normal 1 0 0
    outer loop
      vertex 4.5 25.5 -6
      vertex 4.5 8.15798 -7.56031
      vertex 4.5 8.84202 -7.56031
    endloop
  endfacet
  facet normal 1 0 0
    outer loop
      vertex 4.5 7.63397 -8
      vertex 4.5 -7.51519 -8.67365
      vertex 4.5 7.51519 -8.67365
    endloop
  endfacet
  facet normal 1 0 0
    outer loop
      vertex 4.5 -7.63397 -8
      vertex 4.5 7.63397 -8
      vertex 4.5 8.15798 -7.56031
    endloop
  endfacet
  facet normal 1 -0 0
    outer loop
      vertex 4.5 -17.5 -6
      vertex 4.5 8.15798 -7.56031
      vertex 4.5 25.5 -6
    endloop
  endfacet
  facet normal 1 0 0
    outer loop
      vertex 4.5 7.63397 -8
      vertex 4.5 -7.63397 -8
      vertex 4.5 -7.51519 -8.67365
    endloop
  endfacet
  facet normal 1 0 0
    outer loop
      vertex 4.5 8.15798 -7.56031
      vertex 4.5 -8.15798 -7.56031
      vertex 4.5 -7.63397 -8
    endloop
  endfacet
  facet normal 1 0 0
    outer loop
      vertex 4.5 8.15798 -7.56031
      vertex 4.5 -17.5 -6
      vertex 4.5 -8.15798 -7.56031
    endloop
  endfacet
  facet normal 1 0 0
    outer loop
      vertex 4.5 -9.36602 -8
      vertex 4.5 -17.5 -6
      vertex 4.5 -9.48481 -8.67365
    endloop
  endfacet
  facet normal 1 0 0
    outer loop
      vertex 4.5 -8.84202 -7.56031
      vertex 4.5 -17.5 -6
      vertex 4.5 -9.36602 -8
    endloop
  endfacet
  facet normal 1 0 0
    outer loop
      vertex 4.5 -8.15798 -7.56031
      vertex 4.5 -17.5 -6
      vertex 4.5 -8.84202 -7.56031
    endloop
  endfacet
  facet normal 1 -0 0
    outer loop
      vertex 4.5 9.14279 -9.26604
      vertex 4.5 25.5 -11
      vertex 4.5 9.48481 -8.67365
    endloop
  endfacet
  facet normal 1 -0 0
    outer loop
      vertex 4.5 8.5 -9.5
      vertex 4.5 25.5 -11
      vertex 4.5 9.14279 -9.26604
    endloop
  endfacet
  facet normal 1 -0 0
    outer loop
      vertex 4.5 -7.51519 -8.67365
      vertex 4.5 7.85721 -9.26604
      vertex 4.5 7.51519 -8.67365
    endloop
  endfacet
  facet normal 1 0 0
    outer loop
      vertex 4.5 -7.85721 -9.26604
      vertex 4.5 7.85721 -9.26604
      vertex 4.5 -7.51519 -8.67365
    endloop
  endfacet
  facet normal 1 0 0
    outer loop
      vertex 4.5 7.85721 -9.26604
      vertex 4.5 -7.85721 -9.26604
      vertex 4.5 8.5 -9.5
    endloop
  endfacet
  facet normal 1 0 0
    outer loop
      vertex 4.5 -8.5 -9.5
      vertex 4.5 8.5 -9.5
      vertex 4.5 -7.85721 -9.26604
    endloop
  endfacet
  facet normal 1 0 0
    outer loop
      vertex 4.5 -17.5 -11
      vertex 4.5 8.5 -9.5
      vertex 4.5 -8.5 -9.5
    endloop
  endfacet
  facet normal 1 0 0
    outer loop
      vertex 4.5 -17.5 -11
      vertex 4.5 -9.48481 -8.67365
      vertex 4.5 -17.5 -6
    endloop
  endfacet
  facet normal 1 0 0
    outer loop
      vertex 4.5 8.5 -9.5
      vertex 4.5 -17.5 -11
      vertex 4.5 25.5 -11
    endloop
  endfacet
  facet normal 1 0 0
    outer loop
      vertex 4.5 -9.14279 -9.26604
      vertex 4.5 -17.5 -11
      vertex 4.5 -8.5 -9.5
    endloop
  endfacet
  facet normal 1 0 0
    outer loop
      vertex 4.5 -9.48481 -8.67365
      vertex 4.5 -17.5 -11
      vertex 4.5 -9.14279 -9.26604
    endloop
  endfacet
  facet normal 1 0 0
    outer loop
      vertex 4.5 25.5 22
      vertex 4.5 9.48481 19.3264
      vertex 4.5 25.5 17
    endloop
  endfacet
  facet normal 1 0 0
    outer loop
      vertex 4.5 25.5 22
      vertex 4.5 9.36602 20
      vertex 4.5 9.48481 19.3264
    endloop
  endfacet
  facet normal 1 0 0
    outer loop
      vertex 4.5 25.5 22
      vertex 4.5 8.84202 20.4397
      vertex 4.5 9.36602 20
    endloop
  endfacet
  facet normal 1 0 0
    outer loop
      vertex 4.5 25.5 22
      vertex 4.5 8.15798 20.4397
      vertex 4.5 8.84202 20.4397
    endloop
  endfacet
  facet normal 1 0 0
    outer loop
      vertex 4.5 7.63397 20
      vertex 4.5 -7.51519 19.3264
      vertex 4.5 7.51519 19.3264
    endloop
  endfacet
  facet normal 1 0 0
    outer loop
      vertex 4.5 -7.63397 20
      vertex 4.5 7.63397 20
      vertex 4.5 8.15798 20.4397
    endloop
  endfacet
  facet normal 1 -0 0
    outer loop
      vertex 4.5 -17.5 22
      vertex 4.5 8.15798 20.4397
      vertex 4.5 25.5 22
    endloop
  endfacet
  facet normal 1 0 0
    outer loop
      vertex 4.5 7.63397 20
      vertex 4.5 -7.63397 20
      vertex 4.5 -7.51519 19.3264
    endloop
  endfacet
  facet normal 1 0 0
    outer loop
      vertex 4.5 8.15798 20.4397
      vertex 4.5 -8.15798 20.4397
      vertex 4.5 -7.63397 20
    endloop
  endfacet
  facet normal 1 0 0
    outer loop
      vertex 4.5 8.15798 20.4397
      vertex 4.5 -17.5 22
      vertex 4.5 -8.15798 20.4397
    endloop
  endfacet
  facet normal 1 0 0
    outer loop
      vertex 4.5 -9.36602 20
      vertex 4.5 -17.5 22
      vertex 4.5 -9.48481 19.3264
    endloop
  endfacet
  facet normal 1 0 0
    outer loop
      vertex 4.5 -8.84202 20.4397
      vertex 4.5 -17.5 22
      vertex 4.5 -9.36602 20
    endloop
  endfacet
  facet normal 1 0 0
    outer loop
      vertex 4.5 -8.15798 20.4397
      vertex 4.5 -17.5 22
      vertex 4.5 -8.84202 20.4397
    endloop
  endfacet
  facet normal 1 -0 0
    outer loop
      vertex 4.5 9.14279 18.734
      vertex 4.5 25.5 17
      vertex 4.5 9.48481 19.3264
    endloop
  endfacet
  facet normal 1 -0 0
    outer loop
      vertex 4.5 8.5 18.5
      vertex 4.5 25.5 17
      vertex 4.5 9.14279 18.734
    endloop
  endfacet
  facet normal 1 -0 0
    outer loop
      vertex 4.5 -7.51519 19.3264
      vertex 4.5 7.85721 18.734
      vertex 4.5 7.51519 19.3264
    endloop
  endfacet
  facet normal 1 0 0
    outer loop
      vertex 4.5 -7.85721 18.734
      vertex 4.5 7.85721 18.734
      vertex 4.5 -7.51519 19.3264
    endloop
  endfacet
  facet normal 1 0 0
    outer loop
      vertex 4.5 7.85721 18.734
      vertex 4.5 -7.85721 18.734
      vertex 4.5 8.5 18.5
    endloop
  endfacet
  facet normal 1 0 0
    outer loop
      vertex 4.5 -8.5 18.5
      vertex 4.5 8.5 18.5
      vertex 4.5 -7.85721 18.734
    endloop
  endfacet
  facet normal 1 0 0
    outer loop
      vertex 4.5 -17.5 17
      vertex 4.5 8.5 18.5
      vertex 4.5 -8.5 18.5
    endloop
  endfacet
  facet normal 1 0 0
    outer loop
      vertex 4.5 -17.5 17
      vertex 4.5 -9.48481 19.3264
      vertex 4.5 -17.5 22
    endloop
  endfacet
  facet normal 1 0 0
    outer loop
      vertex 4.5 8.5 18.5
      vertex 4.5 -17.5 17
      vertex 4.5 25.5 17
    endloop
  endfacet
  facet normal 1 0 0
    outer loop
      vertex 4.5 -9.14279 18.734
      vertex 4.5 -17.5 17
      vertex 4.5 -8.5 18.5
    endloop
  endfacet
  facet normal 1 0 0
    outer loop
      vertex 4.5 -9.48481 19.3264
      vertex 4.5 -17.5 17
      vertex 4.5 -9.14279 18.734
    endloop
  endfacet
  facet normal 0.994522 0.104528 0
    outer loop
      vertex 4.66389 -19.0593 -6
      vertex 4.5 -17.5 -11
      vertex 4.5 -17.5 -6
    endloop
  endfacet
  facet normal 0.994522 0.104528 0
    outer loop
      vertex 4.5 -17.5 -11
      vertex 4.66389 -19.0593 -6
      vertex 4.66389 -19.0593 -11
    endloop
  endfacet
  facet normal 0.994522 0.104528 0
    outer loop
      vertex 4.66389 -19.0593 22
      vertex 4.5 -17.5 17
      vertex 4.5 -17.5 22
    endloop
  endfacet
  facet normal 0.994522 0.104528 0
    outer loop
      vertex 4.5 -17.5 17
      vertex 4.66389 -19.0593 22
      vertex 4.66389 -19.0593 17
    endloop
  endfacet
  facet normal 0.994522 -0.104528 0
    outer loop
      vertex 4.5 25.5 -6
      vertex 4.66389 27.0593 -11
      vertex 4.66389 27.0593 -6
    endloop
  endfacet
  facet normal 0.994522 -0.104528 0
    outer loop
      vertex 4.66389 27.0593 -11
      vertex 4.5 25.5 -6
      vertex 4.5 25.5 -11
    endloop
  endfacet
  facet normal 0.994522 -0.104528 0
    outer loop
      vertex 4.5 25.5 22
      vertex 4.66389 27.0593 17
      vertex 4.66389 27.0593 22
    endloop
  endfacet
  facet normal 0.994522 -0.104528 0
    outer loop
      vertex 4.66389 27.0593 17
      vertex 4.5 25.5 22
      vertex 4.5 25.5 17
    endloop
  endfacet
  facet normal 0.743145 0.669131 0
    outer loop
      vertex 6.98152 -23.0736 -6
      vertex 5.93237 -21.9084 -11
      vertex 5.93237 -21.9084 -6
    endloop
  endfacet
  facet normal 0.743145 0.669131 0
    outer loop
      vertex 5.93237 -21.9084 -11
      vertex 6.98152 -23.0736 -6
      vertex 6.98152 -23.0736 -11
    endloop
  endfacet
  facet normal 0.743145 0.669131 0
    outer loop
      vertex 6.98152 -23.0736 22
      vertex 5.93237 -21.9084 17
      vertex 5.93237 -21.9084 22
    endloop
  endfacet
  facet normal 0.743145 0.669131 0
    outer loop
      vertex 5.93237 -21.9084 17
      vertex 6.98152 -23.0736 22
      vertex 6.98152 -23.0736 17
    endloop
  endfacet
  facet normal 0.951057 0.309017 0
    outer loop
      vertex 5.14841 -20.5505 -6
      vertex 4.66389 -19.0593 -11
      vertex 4.66389 -19.0593 -6
    endloop
  endfacet
  facet normal 0.951057 0.309017 0
    outer loop
      vertex 4.66389 -19.0593 -11
      vertex 5.14841 -20.5505 -6
      vertex 5.14841 -20.5505 -11
    endloop
  endfacet
  facet normal 0.951057 0.309017 0
    outer loop
      vertex 5.14841 -20.5505 22
      vertex 4.66389 -19.0593 17
      vertex 4.66389 -19.0593 22
    endloop
  endfacet
  facet normal 0.951057 0.309017 0
    outer loop
      vertex 4.66389 -19.0593 17
      vertex 5.14841 -20.5505 22
      vertex 5.14841 -20.5505 17
    endloop
  endfacet
  facet normal 0.866026 -0.499999 0
    outer loop
      vertex 5.35721 28.9122 -9.26604
      vertex 5.93237 29.9084 -11
      vertex 5.93237 29.9084 -9.47539
    endloop
  endfacet
  facet normal 0.866024 -0.500002 0
    outer loop
      vertex 5.14841 28.5505 -11
      vertex 5.35721 28.9122 -9.26604
      vertex 5.14841 28.5505 -8.90439
    endloop
  endfacet
  facet normal 0.866025 -0.5 -4.60456e-007
    outer loop
      vertex 5.35721 28.9122 -9.26604
      vertex 5.14841 28.5505 -11
      vertex 5.93237 29.9084 -11
    endloop
  endfacet
  facet normal 0.866026 -0.499999 0
    outer loop
      vertex 5.93237 29.9084 -6
      vertex 5.65798 29.4331 -7.56031
      vertex 5.93237 29.9084 -7.56031
    endloop
  endfacet
  facet normal 0.866025 -0.5 2.36746e-007
    outer loop
      vertex 5.14841 28.5505 -6
      vertex 5.65798 29.4331 -7.56031
      vertex 5.93237 29.9084 -6
    endloop
  endfacet
  facet normal 0.866025 -0.5 0
    outer loop
      vertex 5.65798 29.4331 -7.56031
      vertex 5.14841 28.5505 -6
      vertex 5.14841 28.5505 -7.98789
    endloop
  endfacet
  facet normal 0.866026 -0.499999 0
    outer loop
      vertex 5.35721 28.9122 18.734
      vertex 5.93237 29.9084 17
      vertex 5.93237 29.9084 18.5246
    endloop
  endfacet
  facet normal 0.866024 -0.500002 0
    outer loop
      vertex 5.14841 28.5505 17
      vertex 5.35721 28.9122 18.734
      vertex 5.14841 28.5505 19.0956
    endloop
  endfacet
  facet normal 0.866025 -0.5 -4.60457e-007
    outer loop
      vertex 5.35721 28.9122 18.734
      vertex 5.14841 28.5505 17
      vertex 5.93237 29.9084 17
    endloop
  endfacet
  facet normal 0.866026 -0.499999 0
    outer loop
      vertex 5.93237 29.9084 22
      vertex 5.65798 29.4331 20.4397
      vertex 5.93237 29.9084 20.4397
    endloop
  endfacet
  facet normal 0.866025 -0.5 2.36746e-007
    outer loop
      vertex 5.14841 28.5505 22
      vertex 5.65798 29.4331 20.4397
      vertex 5.93237 29.9084 22
    endloop
  endfacet
  facet normal 0.866025 -0.5 0
    outer loop
      vertex 5.65798 29.4331 20.4397
      vertex 5.14841 28.5505 22
      vertex 5.14841 28.5505 20.0121
    endloop
  endfacet
  facet normal 0.743146 -0.66913 0
    outer loop
      vertex 6.64279 30.6974 -9.26604
      vertex 6.98152 31.0736 -11
      vertex 6.98152 31.0736 -8.67934
    endloop
  endfacet
  facet normal 0.743144 -0.669131 -4.90281e-007
    outer loop
      vertex 6 29.9835 -9.5
      vertex 6.98152 31.0736 -11
      vertex 6.64279 30.6974 -9.26604
    endloop
  endfacet
  facet normal 0.743141 -0.669135 0
    outer loop
      vertex 5.93237 29.9084 -11
      vertex 6 29.9835 -9.5
      vertex 5.93237 29.9084 -9.47539
    endloop
  endfacet
  facet normal 0.743145 -0.669131 -3.39465e-007
    outer loop
      vertex 6 29.9835 -9.5
      vertex 5.93237 29.9084 -11
      vertex 6.98152 31.0736 -11
    endloop
  endfacet
  facet normal 0.743143 -0.669133 0
    outer loop
      vertex 6.98152 31.0736 -6
      vertex 6.86602 30.9453 -8
      vertex 6.98152 31.0736 -8.655
    endloop
  endfacet
  facet normal 0.743145 -0.669131 -2.18927e-007
    outer loop
      vertex 6.98152 31.0736 -6
      vertex 6.34202 30.3633 -7.56031
      vertex 6.86602 30.9453 -8
    endloop
  endfacet
  facet normal 0.743145 -0.669131 -5.47411e-008
    outer loop
      vertex 5.93237 29.9084 -6
      vertex 6.34202 30.3633 -7.56031
      vertex 6.98152 31.0736 -6
    endloop
  endfacet
  facet normal 0.743145 -0.669131 0
    outer loop
      vertex 6.34202 30.3633 -7.56031
      vertex 5.93237 29.9084 -6
      vertex 5.93237 29.9084 -7.56031
    endloop
  endfacet
  facet normal 0.743146 -0.66913 0
    outer loop
      vertex 6.64279 30.6974 18.734
      vertex 6.98152 31.0736 17
      vertex 6.98152 31.0736 19.3207
    endloop
  endfacet
  facet normal 0.743144 -0.669131 -4.90282e-007
    outer loop
      vertex 6 29.9835 18.5
      vertex 6.98152 31.0736 17
      vertex 6.64279 30.6974 18.734
    endloop
  endfacet
  facet normal 0.743141 -0.669135 0
    outer loop
      vertex 5.93237 29.9084 17
      vertex 6 29.9835 18.5
      vertex 5.93237 29.9084 18.5246
    endloop
  endfacet
  facet normal 0.743145 -0.669131 -3.39465e-007
    outer loop
      vertex 6 29.9835 18.5
      vertex 5.93237 29.9084 17
      vertex 6.98152 31.0736 17
    endloop
  endfacet
  facet normal 0.743143 -0.669133 0
    outer loop
      vertex 6.98152 31.0736 22
      vertex 6.86602 30.9453 20
      vertex 6.98152 31.0736 19.345
    endloop
  endfacet
  facet normal 0.743145 -0.669131 -2.18928e-007
    outer loop
      vertex 6.98152 31.0736 22
      vertex 6.34202 30.3633 20.4397
      vertex 6.86602 30.9453 20
    endloop
  endfacet
  facet normal 0.743145 -0.669131 -5.47412e-008
    outer loop
      vertex 5.93237 29.9084 22
      vertex 6.34202 30.3633 20.4397
      vertex 6.98152 31.0736 22
    endloop
  endfacet
  facet normal 0.743145 -0.669131 0
    outer loop
      vertex 6.34202 30.3633 20.4397
      vertex 5.93237 29.9084 22
      vertex 5.93237 29.9084 20.4397
    endloop
  endfacet
  facet normal 0.406737 0.913545 -0
    outer loop
      vertex 9.68237 -24.6329 -11
      vertex 8.25 -23.9952 -6
      vertex 9.68237 -24.6329 -6
    endloop
  endfacet
  facet normal 0.406737 0.913545 0
    outer loop
      vertex 8.25 -23.9952 -6
      vertex 9.68237 -24.6329 -11
      vertex 8.25 -23.9952 -11
    endloop
  endfacet
  facet normal 0.406737 0.913545 -0
    outer loop
      vertex 9.68237 -24.6329 17
      vertex 8.25 -23.9952 22
      vertex 9.68237 -24.6329 22
    endloop
  endfacet
  facet normal 0.406737 0.913545 0
    outer loop
      vertex 8.25 -23.9952 22
      vertex 9.68237 -24.6329 17
      vertex 8.25 -23.9952 17
    endloop
  endfacet
  facet normal 0.866025 0.5 0
    outer loop
      vertex 5.93237 -21.9084 -6
      vertex 5.14841 -20.5505 -11
      vertex 5.14841 -20.5505 -6
    endloop
  endfacet
  facet normal 0.866025 0.5 0
    outer loop
      vertex 5.14841 -20.5505 -11
      vertex 5.93237 -21.9084 -6
      vertex 5.93237 -21.9084 -11
    endloop
  endfacet
  facet normal 0.866025 0.5 0
    outer loop
      vertex 5.93237 -21.9084 22
      vertex 5.14841 -20.5505 17
      vertex 5.14841 -20.5505 22
    endloop
  endfacet
  facet normal 0.866025 0.5 0
    outer loop
      vertex 5.14841 -20.5505 17
      vertex 5.93237 -21.9084 22
      vertex 5.93237 -21.9084 17
    endloop
  endfacet
  facet normal 0.951057 -0.309016 0
    outer loop
      vertex 5.14841 28.5505 -6
      vertex 5.13397 28.5061 -8
      vertex 5.14841 28.5505 -7.98789
    endloop
  endfacet
  facet normal 0.951057 -0.309017 2.36387e-008
    outer loop
      vertex 4.66389 27.0593 -6
      vertex 5.13397 28.5061 -8
      vertex 5.14841 28.5505 -6
    endloop
  endfacet
  facet normal 0.951057 -0.309017 5.57967e-008
    outer loop
      vertex 5.13397 28.5061 -8
      vertex 4.66389 27.0593 -6
      vertex 5.01519 28.1405 -8.67365
    endloop
  endfacet
  facet normal 0.951057 -0.309017 -1.25311e-007
    outer loop
      vertex 4.66389 27.0593 -11
      vertex 5.14841 28.5505 -8.90439
      vertex 5.01519 28.1405 -8.67365
    endloop
  endfacet
  facet normal 0.951057 -0.309017 0
    outer loop
      vertex 4.66389 27.0593 -11
      vertex 5.01519 28.1405 -8.67365
      vertex 4.66389 27.0593 -6
    endloop
  endfacet
  facet normal 0.951057 -0.309017 0
    outer loop
      vertex 5.14841 28.5505 -8.90439
      vertex 4.66389 27.0593 -11
      vertex 5.14841 28.5505 -11
    endloop
  endfacet
  facet normal 0.951057 -0.309016 0
    outer loop
      vertex 5.14841 28.5505 22
      vertex 5.13397 28.5061 20
      vertex 5.14841 28.5505 20.0121
    endloop
  endfacet
  facet normal 0.951057 -0.309017 2.36387e-008
    outer loop
      vertex 4.66389 27.0593 22
      vertex 5.13397 28.5061 20
      vertex 5.14841 28.5505 22
    endloop
  endfacet
  facet normal 0.951057 -0.309017 5.57967e-008
    outer loop
      vertex 5.13397 28.5061 20
      vertex 4.66389 27.0593 22
      vertex 5.01519 28.1405 19.3264
    endloop
  endfacet
  facet normal 0.951057 -0.309017 -1.25311e-007
    outer loop
      vertex 4.66389 27.0593 17
      vertex 5.14841 28.5505 19.0956
      vertex 5.01519 28.1405 19.3264
    endloop
  endfacet
  facet normal 0.951057 -0.309017 0
    outer loop
      vertex 4.66389 27.0593 17
      vertex 5.01519 28.1405 19.3264
      vertex 4.66389 27.0593 22
    endloop
  endfacet
  facet normal 0.951057 -0.309017 0
    outer loop
      vertex 5.14841 28.5505 19.0956
      vertex 4.66389 27.0593 17
      vertex 5.14841 28.5505 17
    endloop
  endfacet
  facet normal 0.207912 0.978148 -0
    outer loop
      vertex 11.216 -24.9589 -11
      vertex 9.68237 -24.6329 -6
      vertex 11.216 -24.9589 -6
    endloop
  endfacet
  facet normal 0.207912 0.978148 0
    outer loop
      vertex 9.68237 -24.6329 -6
      vertex 11.216 -24.9589 -11
      vertex 9.68237 -24.6329 -11
    endloop
  endfacet
  facet normal 0.207912 0.978148 -0
    outer loop
      vertex 11.216 -24.9589 17
      vertex 9.68237 -24.6329 22
      vertex 11.216 -24.9589 22
    endloop
  endfacet
  facet normal 0.207912 0.978148 0
    outer loop
      vertex 9.68237 -24.6329 22
      vertex 11.216 -24.9589 17
      vertex 9.68237 -24.6329 17
    endloop
  endfacet
  facet normal 0.207913 -0.978147 0
    outer loop
      vertex 9.68237 32.6329 -11
      vertex 11.216 32.9589 -6
      vertex 9.68237 32.6329 -6
    endloop
  endfacet
  facet normal 0.207913 -0.978147 0
    outer loop
      vertex 11.216 32.9589 -6
      vertex 9.68237 32.6329 -11
      vertex 11.216 32.9589 -11
    endloop
  endfacet
  facet normal 0.207913 -0.978147 0
    outer loop
      vertex 9.68237 32.6329 17
      vertex 11.216 32.9589 22
      vertex 9.68237 32.6329 22
    endloop
  endfacet
  facet normal 0.207913 -0.978147 0
    outer loop
      vertex 11.216 32.9589 22
      vertex 9.68237 32.6329 17
      vertex 11.216 32.9589 17
    endloop
  endfacet
  facet normal 0.587785 -0.809017 0
    outer loop
      vertex 6.98152 31.0736 -8.655
      vertex 8.25 31.9952 -6
      vertex 6.98152 31.0736 -6
    endloop
  endfacet
  facet normal 0.587769 -0.809029 1.17926e-005
    outer loop
      vertex 6.98481 31.076 -8.67365
      vertex 8.25 31.9952 -6
      vertex 6.98152 31.0736 -8.655
    endloop
  endfacet
  facet normal 0.587785 -0.809017 0
    outer loop
      vertex 8.25 31.9952 -11
      vertex 6.98152 31.0736 -8.67934
      vertex 6.98152 31.0736 -11
    endloop
  endfacet
  facet normal 0.587754 -0.80904 -2.57098e-005
    outer loop
      vertex 6.98152 31.0736 -8.67934
      vertex 8.25 31.9952 -11
      vertex 6.98481 31.076 -8.67365
    endloop
  endfacet
  facet normal 0.587785 -0.809017 0
    outer loop
      vertex 6.98481 31.076 -8.67365
      vertex 8.25 31.9952 -11
      vertex 8.25 31.9952 -6
    endloop
  endfacet
  facet normal 0.587785 -0.809017 0
    outer loop
      vertex 6.98152 31.0736 19.345
      vertex 8.25 31.9952 22
      vertex 6.98152 31.0736 22
    endloop
  endfacet
  facet normal 0.587769 -0.809029 1.17922e-005
    outer loop
      vertex 6.98481 31.076 19.3264
      vertex 8.25 31.9952 22
      vertex 6.98152 31.0736 19.345
    endloop
  endfacet
  facet normal 0.587785 -0.809017 0
    outer loop
      vertex 8.25 31.9952 17
      vertex 6.98152 31.0736 19.3207
      vertex 6.98152 31.0736 17
    endloop
  endfacet
  facet normal 0.587754 -0.80904 -2.57098e-005
    outer loop
      vertex 6.98152 31.0736 19.3207
      vertex 8.25 31.9952 17
      vertex 6.98481 31.076 19.3264
    endloop
  endfacet
  facet normal 0.587785 -0.809017 0
    outer loop
      vertex 6.98481 31.076 19.3264
      vertex 8.25 31.9952 17
      vertex 8.25 31.9952 22
    endloop
  endfacet
  facet normal 0.406737 -0.913545 0
    outer loop
      vertex 8.25 31.9952 -11
      vertex 9.68237 32.6329 -6
      vertex 8.25 31.9952 -6
    endloop
  endfacet
  facet normal 0.406737 -0.913545 0
    outer loop
      vertex 9.68237 32.6329 -6
      vertex 8.25 31.9952 -11
      vertex 9.68237 32.6329 -11
    endloop
  endfacet
  facet normal 0.406737 -0.913545 0
    outer loop
      vertex 8.25 31.9952 17
      vertex 9.68237 32.6329 22
      vertex 8.25 31.9952 22
    endloop
  endfacet
  facet normal 0.406737 -0.913545 0
    outer loop
      vertex 9.68237 32.6329 22
      vertex 8.25 31.9952 17
      vertex 9.68237 32.6329 17
    endloop
  endfacet
  facet normal 0 -1 0
    outer loop
      vertex 11.216 32.9589 -11
      vertex 12 32.9589 -6
      vertex 11.216 32.9589 -6
    endloop
  endfacet
  facet normal 0 -1 -0
    outer loop
      vertex 12 32.9589 -6
      vertex 11.216 32.9589 -11
      vertex 12 32.9589 -11
    endloop
  endfacet
  facet normal 0 -1 0
    outer loop
      vertex 11.216 32.9589 17
      vertex 12 32.9589 22
      vertex 11.216 32.9589 22
    endloop
  endfacet
  facet normal 0 -1 -0
    outer loop
      vertex 12 32.9589 22
      vertex 11.216 32.9589 17
      vertex 12 32.9589 17
    endloop
  endfacet
endsolid OpenSCAD_Model
