solid OpenSCAD_Model
  facet normal -0.970941 -0.239318 0
    outer loop
      vertex 38.5 0 0
      vertex 38.3282 0.697084 3
      vertex 38.3282 0.697084 0
    endloop
  endfacet
  facet normal -0.970941 -0.239318 0
    outer loop
      vertex 38.3282 0.697084 3
      vertex 38.5 0 0
      vertex 38.5 0 3
    endloop
  endfacet
  facet normal 1 -0 0
    outer loop
      vertex 35.5436 -0.358973 3
      vertex 35.5436 0.358973 0
      vertex 35.5436 0.358973 3
    endloop
  endfacet
  facet normal 1 0 0
    outer loop
      vertex 35.5436 0.358973 0
      vertex 35.5436 -0.358973 3
      vertex 35.5436 -0.358973 0
    endloop
  endfacet
  facet normal 0.120537 -0.992709 0
    outer loop
      vertex 36.4681 1.40252 0
      vertex 37.1808 1.48906 3
      vertex 36.4681 1.40252 3
    endloop
  endfacet
  facet normal 0.120537 -0.992709 0
    outer loop
      vertex 37.1808 1.48906 3
      vertex 36.4681 1.40252 0
      vertex 37.1808 1.48906 0
    endloop
  endfacet
  facet normal 0.568065 -0.822983 0
    outer loop
      vertex 35.8772 0.994683 0
      vertex 36.4681 1.40252 3
      vertex 35.8772 0.994683 3
    endloop
  endfacet
  facet normal 0.568065 -0.822983 0
    outer loop
      vertex 36.4681 1.40252 3
      vertex 35.8772 0.994683 0
      vertex 36.4681 1.40252 0
    endloop
  endfacet
  facet normal -0.354606 0.935016 0
    outer loop
      vertex 37.8521 -1.23448 0
      vertex 37.1808 -1.48906 3
      vertex 37.8521 -1.23448 3
    endloop
  endfacet
  facet normal -0.354606 0.935016 0
    outer loop
      vertex 37.1808 -1.48906 3
      vertex 37.8521 -1.23448 0
      vertex 37.1808 -1.48906 0
    endloop
  endfacet
  facet normal 0.885455 0.464725 0
    outer loop
      vertex 35.8772 -0.994683 3
      vertex 35.5436 -0.358973 0
      vertex 35.5436 -0.358973 3
    endloop
  endfacet
  facet normal 0.885455 0.464725 0
    outer loop
      vertex 35.5436 -0.358973 0
      vertex 35.8772 -0.994683 3
      vertex 35.8772 -0.994683 0
    endloop
  endfacet
  facet normal -0.354606 -0.935016 0
    outer loop
      vertex 37.1808 1.48906 0
      vertex 37.8521 1.23448 3
      vertex 37.1808 1.48906 3
    endloop
  endfacet
  facet normal -0.354606 -0.935016 -0
    outer loop
      vertex 37.8521 1.23448 3
      vertex 37.1808 1.48906 0
      vertex 37.8521 1.23448 0
    endloop
  endfacet
  facet normal -0.748511 -0.663122 0
    outer loop
      vertex 38.3282 0.697084 0
      vertex 37.8521 1.23448 3
      vertex 37.8521 1.23448 0
    endloop
  endfacet
  facet normal -0.748511 -0.663122 0
    outer loop
      vertex 37.8521 1.23448 3
      vertex 38.3282 0.697084 0
      vertex 38.3282 0.697084 3
    endloop
  endfacet
  facet normal 0.120537 0.992709 -0
    outer loop
      vertex 37.1808 -1.48906 0
      vertex 36.4681 -1.40252 3
      vertex 37.1808 -1.48906 3
    endloop
  endfacet
  facet normal 0.120537 0.992709 0
    outer loop
      vertex 36.4681 -1.40252 3
      vertex 37.1808 -1.48906 0
      vertex 36.4681 -1.40252 0
    endloop
  endfacet
  facet normal 0 0 -1
    outer loop
      vertex 38.5 0 0
      vertex 42 0 0
      vertex 41.9017 -0.935602 0
    endloop
  endfacet
  facet normal 0 0 -1
    outer loop
      vertex 38.3282 -0.697084 0
      vertex 41.9017 -0.935602 0
      vertex 41.611 -1.83031 0
    endloop
  endfacet
  facet normal 0 0 -1
    outer loop
      vertex 42 0 0
      vertex 38.5 0 0
      vertex 41.9017 0.935602 0
    endloop
  endfacet
  facet normal 0 0 -1
    outer loop
      vertex 38.3282 -0.697084 0
      vertex 41.611 -1.83031 0
      vertex 41.1406 -2.64503 0
    endloop
  endfacet
  facet normal 0 0 -1
    outer loop
      vertex 38.3282 0.697084 0
      vertex 41.9017 0.935602 0
      vertex 38.5 0 0
    endloop
  endfacet
  facet normal 0 0 -1
    outer loop
      vertex 38.3282 -0.697084 0
      vertex 41.1406 -2.64503 0
      vertex 40.5111 -3.34415 0
    endloop
  endfacet
  facet normal -0 0 -1
    outer loop
      vertex 41.9017 0.935602 0
      vertex 38.3282 0.697084 0
      vertex 41.611 1.83031 0
    endloop
  endfacet
  facet normal 0 0 -1
    outer loop
      vertex 37.8521 -1.23448 0
      vertex 40.5111 -3.34415 0
      vertex 39.75 -3.89711 0
    endloop
  endfacet
  facet normal -0 0 -1
    outer loop
      vertex 41.611 1.83031 0
      vertex 38.3282 0.697084 0
      vertex 41.1406 2.64503 0
    endloop
  endfacet
  facet normal 0 0 -1
    outer loop
      vertex 37.8521 -1.23448 0
      vertex 39.75 -3.89711 0
      vertex 38.8906 -4.27975 0
    endloop
  endfacet
  facet normal -0 0 -1
    outer loop
      vertex 41.1406 2.64503 0
      vertex 38.3282 0.697084 0
      vertex 40.5111 3.34415 0
    endloop
  endfacet
  facet normal 0 0 -1
    outer loop
      vertex 37.8521 1.23448 0
      vertex 40.5111 3.34415 0
      vertex 38.3282 0.697084 0
    endloop
  endfacet
  facet normal 0 0 -1
    outer loop
      vertex 41.9017 -0.935602 0
      vertex 38.3282 -0.697084 0
      vertex 38.5 0 0
    endloop
  endfacet
  facet normal 0 0 -1
    outer loop
      vertex 37.8521 -1.23448 0
      vertex 38.8906 -4.27975 0
      vertex 37.9704 -4.47535 0
    endloop
  endfacet
  facet normal 0 0 -1
    outer loop
      vertex 40.5111 -3.34415 0
      vertex 37.8521 -1.23448 0
      vertex 38.3282 -0.697084 0
    endloop
  endfacet
  facet normal 0 0 -1
    outer loop
      vertex 37.9704 -4.47535 0
      vertex 37.1808 -1.48906 0
      vertex 37.8521 -1.23448 0
    endloop
  endfacet
  facet normal 0 0 -1
    outer loop
      vertex 37.9704 -4.47535 0
      vertex 36.4681 -1.40252 0
      vertex 37.1808 -1.48906 0
    endloop
  endfacet
  facet normal 0 0 -1
    outer loop
      vertex 37.9704 -4.47535 0
      vertex 35.8772 -0.994683 0
      vertex 36.4681 -1.40252 0
    endloop
  endfacet
  facet normal 0 0 -1
    outer loop
      vertex 35.5436 -0.358973 0
      vertex -35.5436 -0.358973 0
      vertex 35.5436 0.358973 0
    endloop
  endfacet
  facet normal 0 0 -1
    outer loop
      vertex 35.8772 -0.994683 0
      vertex -35.5436 -0.358973 0
      vertex 35.5436 -0.358973 0
    endloop
  endfacet
  facet normal 0 0 -1
    outer loop
      vertex -35.8772 -0.994683 0
      vertex 35.8772 -0.994683 0
      vertex 37.9704 -4.47535 0
    endloop
  endfacet
  facet normal 0 0 -1
    outer loop
      vertex 35.8772 -0.994683 0
      vertex -35.8772 -0.994683 0
      vertex -35.5436 -0.358973 0
    endloop
  endfacet
  facet normal 0 0 -1
    outer loop
      vertex -37.9704 -4.47535 0
      vertex -35.8772 -0.994683 0
      vertex 37.9704 -4.47535 0
    endloop
  endfacet
  facet normal 0 0 -1
    outer loop
      vertex -35.8772 -0.994683 0
      vertex -37.9704 -4.47535 0
      vertex -36.4681 -1.40252 0
    endloop
  endfacet
  facet normal 0 0 -1
    outer loop
      vertex -36.4681 -1.40252 0
      vertex -37.9704 -4.47535 0
      vertex -37.1808 -1.48906 0
    endloop
  endfacet
  facet normal 0 0 -1
    outer loop
      vertex -37.9704 -4.47535 0
      vertex -37.8521 -1.23448 0
      vertex -37.1808 -1.48906 0
    endloop
  endfacet
  facet normal 0 0 -1
    outer loop
      vertex -38.8906 -4.27975 0
      vertex -37.8521 -1.23448 0
      vertex -37.9704 -4.47535 0
    endloop
  endfacet
  facet normal 0 0 -1
    outer loop
      vertex -39.75 -3.89711 0
      vertex -37.8521 -1.23448 0
      vertex -38.8906 -4.27975 0
    endloop
  endfacet
  facet normal 0 0 -1
    outer loop
      vertex -40.5111 -3.34415 0
      vertex -37.8521 -1.23448 0
      vertex -39.75 -3.89711 0
    endloop
  endfacet
  facet normal -0 0 -1
    outer loop
      vertex 40.5111 3.34415 0
      vertex 37.8521 1.23448 0
      vertex 39.75 3.89711 0
    endloop
  endfacet
  facet normal -0 0 -1
    outer loop
      vertex 39.75 3.89711 0
      vertex 37.8521 1.23448 0
      vertex 38.8906 4.27975 0
    endloop
  endfacet
  facet normal -0 0 -1
    outer loop
      vertex 38.8906 4.27975 0
      vertex 37.8521 1.23448 0
      vertex 37.9704 4.47535 0
    endloop
  endfacet
  facet normal 0 0 -1
    outer loop
      vertex 37.1808 1.48906 0
      vertex 37.9704 4.47535 0
      vertex 37.8521 1.23448 0
    endloop
  endfacet
  facet normal 0 0 -1
    outer loop
      vertex 36.4681 1.40252 0
      vertex 37.9704 4.47535 0
      vertex 37.1808 1.48906 0
    endloop
  endfacet
  facet normal 0 0 -1
    outer loop
      vertex 35.8772 0.994683 0
      vertex 37.9704 4.47535 0
      vertex 36.4681 1.40252 0
    endloop
  endfacet
  facet normal 0 0 -1
    outer loop
      vertex -35.5436 0.358973 0
      vertex 35.5436 0.358973 0
      vertex -35.5436 -0.358973 0
    endloop
  endfacet
  facet normal 0 0 -1
    outer loop
      vertex 35.5436 0.358973 0
      vertex -35.5436 0.358973 0
      vertex 35.8772 0.994683 0
    endloop
  endfacet
  facet normal 0 0 -1
    outer loop
      vertex -35.8772 0.994683 0
      vertex 35.8772 0.994683 0
      vertex -35.5436 0.358973 0
    endloop
  endfacet
  facet normal 0 0 -1
    outer loop
      vertex 35.8772 0.994683 0
      vertex -35.8772 0.994683 0
      vertex 37.9704 4.47535 0
    endloop
  endfacet
  facet normal 0 0 -1
    outer loop
      vertex -37.9704 4.47535 0
      vertex -35.8772 0.994683 0
      vertex -36.4681 1.40252 0
    endloop
  endfacet
  facet normal 0 0 -1
    outer loop
      vertex -37.9704 4.47535 0
      vertex -36.4681 1.40252 0
      vertex -37.1808 1.48906 0
    endloop
  endfacet
  facet normal 0 0 -1
    outer loop
      vertex -35.8772 0.994683 0
      vertex -37.9704 4.47535 0
      vertex 37.9704 4.47535 0
    endloop
  endfacet
  facet normal 0 0 -1
    outer loop
      vertex -37.8521 1.23448 0
      vertex -37.9704 4.47535 0
      vertex -37.1808 1.48906 0
    endloop
  endfacet
  facet normal 0 0 -1
    outer loop
      vertex -40.5111 3.34415 0
      vertex -37.8521 1.23448 0
      vertex -38.3282 0.697084 0
    endloop
  endfacet
  facet normal 0 0 -1
    outer loop
      vertex -41.9017 0.935602 0
      vertex -38.3282 0.697084 0
      vertex -38.5 0 0
    endloop
  endfacet
  facet normal 0 0 -1
    outer loop
      vertex -37.8521 1.23448 0
      vertex -38.8906 4.27975 0
      vertex -37.9704 4.47535 0
    endloop
  endfacet
  facet normal -0 0 -1
    outer loop
      vertex -37.8521 -1.23448 0
      vertex -40.5111 -3.34415 0
      vertex -38.3282 -0.697084 0
    endloop
  endfacet
  facet normal 0 0 -1
    outer loop
      vertex -41.1406 -2.64503 0
      vertex -38.3282 -0.697084 0
      vertex -40.5111 -3.34415 0
    endloop
  endfacet
  facet normal 0 0 -1
    outer loop
      vertex -37.8521 1.23448 0
      vertex -39.75 3.89711 0
      vertex -38.8906 4.27975 0
    endloop
  endfacet
  facet normal 0 0 -1
    outer loop
      vertex -41.611 -1.83031 0
      vertex -38.3282 -0.697084 0
      vertex -41.1406 -2.64503 0
    endloop
  endfacet
  facet normal 0 0 -1
    outer loop
      vertex -37.8521 1.23448 0
      vertex -40.5111 3.34415 0
      vertex -39.75 3.89711 0
    endloop
  endfacet
  facet normal 0 0 -1
    outer loop
      vertex -41.9017 -0.935602 0
      vertex -38.3282 -0.697084 0
      vertex -41.611 -1.83031 0
    endloop
  endfacet
  facet normal 0 0 -1
    outer loop
      vertex -38.3282 0.697084 0
      vertex -41.1406 2.64503 0
      vertex -40.5111 3.34415 0
    endloop
  endfacet
  facet normal -0 0 -1
    outer loop
      vertex -38.3282 -0.697084 0
      vertex -41.9017 -0.935602 0
      vertex -38.5 0 0
    endloop
  endfacet
  facet normal 0 0 -1
    outer loop
      vertex -38.3282 0.697084 0
      vertex -41.611 1.83031 0
      vertex -41.1406 2.64503 0
    endloop
  endfacet
  facet normal 0 0 -1
    outer loop
      vertex -42 0 0
      vertex -38.5 0 0
      vertex -41.9017 -0.935602 0
    endloop
  endfacet
  facet normal 0 0 -1
    outer loop
      vertex -38.3282 0.697084 0
      vertex -41.9017 0.935602 0
      vertex -41.611 1.83031 0
    endloop
  endfacet
  facet normal 0 0 -1
    outer loop
      vertex -38.5 0 0
      vertex -42 0 0
      vertex -41.9017 0.935602 0
    endloop
  endfacet
  facet normal 0 0 1
    outer loop
      vertex 38.5 0 3
      vertex 42 0 3
      vertex 41.9017 0.935602 3
    endloop
  endfacet
  facet normal 0 0 1
    outer loop
      vertex 38.3282 0.697084 3
      vertex 41.9017 0.935602 3
      vertex 41.611 1.83031 3
    endloop
  endfacet
  facet normal 0 0 1
    outer loop
      vertex 42 0 3
      vertex 38.5 0 3
      vertex 41.9017 -0.935602 3
    endloop
  endfacet
  facet normal 0 0 1
    outer loop
      vertex 38.3282 0.697084 3
      vertex 41.611 1.83031 3
      vertex 41.1406 2.64503 3
    endloop
  endfacet
  facet normal -0 0 1
    outer loop
      vertex 38.3282 -0.697084 3
      vertex 41.9017 -0.935602 3
      vertex 38.5 0 3
    endloop
  endfacet
  facet normal 0 0 1
    outer loop
      vertex 38.3282 0.697084 3
      vertex 41.1406 2.64503 3
      vertex 40.5111 3.34415 3
    endloop
  endfacet
  facet normal 0 0 1
    outer loop
      vertex 41.9017 -0.935602 3
      vertex 38.3282 -0.697084 3
      vertex 41.611 -1.83031 3
    endloop
  endfacet
  facet normal 0 0 1
    outer loop
      vertex 37.8521 1.23448 3
      vertex 40.5111 3.34415 3
      vertex 39.75 3.89711 3
    endloop
  endfacet
  facet normal 0 0 1
    outer loop
      vertex 41.611 -1.83031 3
      vertex 38.3282 -0.697084 3
      vertex 41.1406 -2.64503 3
    endloop
  endfacet
  facet normal 0 0 1
    outer loop
      vertex 37.8521 1.23448 3
      vertex 39.75 3.89711 3
      vertex 38.8906 4.27975 3
    endloop
  endfacet
  facet normal 0 0 1
    outer loop
      vertex 41.1406 -2.64503 3
      vertex 38.3282 -0.697084 3
      vertex 40.5111 -3.34415 3
    endloop
  endfacet
  facet normal -0 0 1
    outer loop
      vertex 37.8521 -1.23448 3
      vertex 40.5111 -3.34415 3
      vertex 38.3282 -0.697084 3
    endloop
  endfacet
  facet normal 0 0 1
    outer loop
      vertex 41.9017 0.935602 3
      vertex 38.3282 0.697084 3
      vertex 38.5 0 3
    endloop
  endfacet
  facet normal 0 0 1
    outer loop
      vertex 37.8521 1.23448 3
      vertex 38.8906 4.27975 3
      vertex 37.9704 4.47535 3
    endloop
  endfacet
  facet normal 0 0 1
    outer loop
      vertex 40.5111 3.34415 3
      vertex 37.8521 1.23448 3
      vertex 38.3282 0.697084 3
    endloop
  endfacet
  facet normal 0 0 1
    outer loop
      vertex 37.9704 4.47535 3
      vertex 37.1808 1.48906 3
      vertex 37.8521 1.23448 3
    endloop
  endfacet
  facet normal 0 0 1
    outer loop
      vertex 37.9704 4.47535 3
      vertex 36.4681 1.40252 3
      vertex 37.1808 1.48906 3
    endloop
  endfacet
  facet normal 0 0 1
    outer loop
      vertex 37.9704 4.47535 3
      vertex 35.8772 0.994683 3
      vertex 36.4681 1.40252 3
    endloop
  endfacet
  facet normal 0 0 1
    outer loop
      vertex 35.5436 0.358973 3
      vertex -35.5436 0.358973 3
      vertex 35.5436 -0.358973 3
    endloop
  endfacet
  facet normal 0 0 1
    outer loop
      vertex 35.8772 0.994683 3
      vertex -35.5436 0.358973 3
      vertex 35.5436 0.358973 3
    endloop
  endfacet
  facet normal 0 0 1
    outer loop
      vertex -35.8772 0.994683 3
      vertex 35.8772 0.994683 3
      vertex 37.9704 4.47535 3
    endloop
  endfacet
  facet normal 0 0 1
    outer loop
      vertex 35.8772 0.994683 3
      vertex -35.8772 0.994683 3
      vertex -35.5436 0.358973 3
    endloop
  endfacet
  facet normal -0 0 1
    outer loop
      vertex -37.9704 4.47535 3
      vertex -35.8772 0.994683 3
      vertex 37.9704 4.47535 3
    endloop
  endfacet
  facet normal 0 0 1
    outer loop
      vertex -35.8772 0.994683 3
      vertex -37.9704 4.47535 3
      vertex -36.4681 1.40252 3
    endloop
  endfacet
  facet normal 0 0 1
    outer loop
      vertex -36.4681 1.40252 3
      vertex -37.9704 4.47535 3
      vertex -37.1808 1.48906 3
    endloop
  endfacet
  facet normal 0 0 1
    outer loop
      vertex -37.9704 4.47535 3
      vertex -37.8521 1.23448 3
      vertex -37.1808 1.48906 3
    endloop
  endfacet
  facet normal -0 0 1
    outer loop
      vertex -38.8906 4.27975 3
      vertex -37.8521 1.23448 3
      vertex -37.9704 4.47535 3
    endloop
  endfacet
  facet normal -0 0 1
    outer loop
      vertex -39.75 3.89711 3
      vertex -37.8521 1.23448 3
      vertex -38.8906 4.27975 3
    endloop
  endfacet
  facet normal -0 0 1
    outer loop
      vertex -40.5111 3.34415 3
      vertex -37.8521 1.23448 3
      vertex -39.75 3.89711 3
    endloop
  endfacet
  facet normal 0 0 1
    outer loop
      vertex 40.5111 -3.34415 3
      vertex 37.8521 -1.23448 3
      vertex 39.75 -3.89711 3
    endloop
  endfacet
  facet normal 0 0 1
    outer loop
      vertex 39.75 -3.89711 3
      vertex 37.8521 -1.23448 3
      vertex 38.8906 -4.27975 3
    endloop
  endfacet
  facet normal 0 0 1
    outer loop
      vertex 38.8906 -4.27975 3
      vertex 37.8521 -1.23448 3
      vertex 37.9704 -4.47535 3
    endloop
  endfacet
  facet normal -0 0 1
    outer loop
      vertex 37.1808 -1.48906 3
      vertex 37.9704 -4.47535 3
      vertex 37.8521 -1.23448 3
    endloop
  endfacet
  facet normal 0 0 1
    outer loop
      vertex 36.4681 -1.40252 3
      vertex 37.9704 -4.47535 3
      vertex 37.1808 -1.48906 3
    endloop
  endfacet
  facet normal 0 0 1
    outer loop
      vertex 35.8772 -0.994683 3
      vertex 37.9704 -4.47535 3
      vertex 36.4681 -1.40252 3
    endloop
  endfacet
  facet normal 0 0 1
    outer loop
      vertex -35.5436 -0.358973 3
      vertex 35.5436 -0.358973 3
      vertex -35.5436 0.358973 3
    endloop
  endfacet
  facet normal 0 0 1
    outer loop
      vertex 35.5436 -0.358973 3
      vertex -35.5436 -0.358973 3
      vertex 35.8772 -0.994683 3
    endloop
  endfacet
  facet normal 0 0 1
    outer loop
      vertex -35.8772 -0.994683 3
      vertex 35.8772 -0.994683 3
      vertex -35.5436 -0.358973 3
    endloop
  endfacet
  facet normal 0 0 1
    outer loop
      vertex 35.8772 -0.994683 3
      vertex -35.8772 -0.994683 3
      vertex 37.9704 -4.47535 3
    endloop
  endfacet
  facet normal 0 0 1
    outer loop
      vertex -37.9704 -4.47535 3
      vertex -35.8772 -0.994683 3
      vertex -36.4681 -1.40252 3
    endloop
  endfacet
  facet normal 0 0 1
    outer loop
      vertex -37.9704 -4.47535 3
      vertex -36.4681 -1.40252 3
      vertex -37.1808 -1.48906 3
    endloop
  endfacet
  facet normal 0 0 1
    outer loop
      vertex -35.8772 -0.994683 3
      vertex -37.9704 -4.47535 3
      vertex 37.9704 -4.47535 3
    endloop
  endfacet
  facet normal 0 0 1
    outer loop
      vertex -37.8521 -1.23448 3
      vertex -37.9704 -4.47535 3
      vertex -37.1808 -1.48906 3
    endloop
  endfacet
  facet normal 0 0 1
    outer loop
      vertex -40.5111 -3.34415 3
      vertex -37.8521 -1.23448 3
      vertex -38.3282 -0.697084 3
    endloop
  endfacet
  facet normal 0 0 1
    outer loop
      vertex -41.9017 -0.935602 3
      vertex -38.3282 -0.697084 3
      vertex -38.5 0 3
    endloop
  endfacet
  facet normal 0 0 1
    outer loop
      vertex -37.8521 -1.23448 3
      vertex -38.8906 -4.27975 3
      vertex -37.9704 -4.47535 3
    endloop
  endfacet
  facet normal 0 0 1
    outer loop
      vertex -37.8521 1.23448 3
      vertex -40.5111 3.34415 3
      vertex -38.3282 0.697084 3
    endloop
  endfacet
  facet normal -0 0 1
    outer loop
      vertex -41.1406 2.64503 3
      vertex -38.3282 0.697084 3
      vertex -40.5111 3.34415 3
    endloop
  endfacet
  facet normal 0 0 1
    outer loop
      vertex -37.8521 -1.23448 3
      vertex -39.75 -3.89711 3
      vertex -38.8906 -4.27975 3
    endloop
  endfacet
  facet normal -0 0 1
    outer loop
      vertex -41.611 1.83031 3
      vertex -38.3282 0.697084 3
      vertex -41.1406 2.64503 3
    endloop
  endfacet
  facet normal 0 0 1
    outer loop
      vertex -37.8521 -1.23448 3
      vertex -40.5111 -3.34415 3
      vertex -39.75 -3.89711 3
    endloop
  endfacet
  facet normal -0 0 1
    outer loop
      vertex -41.9017 0.935602 3
      vertex -38.3282 0.697084 3
      vertex -41.611 1.83031 3
    endloop
  endfacet
  facet normal 0 0 1
    outer loop
      vertex -38.3282 -0.697084 3
      vertex -41.1406 -2.64503 3
      vertex -40.5111 -3.34415 3
    endloop
  endfacet
  facet normal 0 0 1
    outer loop
      vertex -38.3282 0.697084 3
      vertex -41.9017 0.935602 3
      vertex -38.5 0 3
    endloop
  endfacet
  facet normal 0 0 1
    outer loop
      vertex -38.3282 -0.697084 3
      vertex -41.611 -1.83031 3
      vertex -41.1406 -2.64503 3
    endloop
  endfacet
  facet normal 0 0 1
    outer loop
      vertex -42 0 3
      vertex -38.5 0 3
      vertex -41.9017 0.935602 3
    endloop
  endfacet
  facet normal 0 0 1
    outer loop
      vertex -38.3282 -0.697084 3
      vertex -41.9017 -0.935602 3
      vertex -41.611 -1.83031 3
    endloop
  endfacet
  facet normal 0 0 1
    outer loop
      vertex -38.5 0 3
      vertex -42 0 3
      vertex -41.9017 -0.935602 3
    endloop
  endfacet
  facet normal 0.885455 -0.464725 0
    outer loop
      vertex 35.5436 0.358973 3
      vertex 35.8772 0.994683 0
      vertex 35.8772 0.994683 3
    endloop
  endfacet
  facet normal 0.885455 -0.464725 0
    outer loop
      vertex 35.8772 0.994683 0
      vertex 35.5436 0.358973 3
      vertex 35.5436 0.358973 0
    endloop
  endfacet
  facet normal -0.748511 0.663122 0
    outer loop
      vertex 37.8521 -1.23448 0
      vertex 38.3282 -0.697084 3
      vertex 38.3282 -0.697084 0
    endloop
  endfacet
  facet normal -0.748511 0.663122 0
    outer loop
      vertex 38.3282 -0.697084 3
      vertex 37.8521 -1.23448 0
      vertex 37.8521 -1.23448 3
    endloop
  endfacet
  facet normal -0.970941 0.239318 0
    outer loop
      vertex 38.3282 -0.697084 0
      vertex 38.5 0 3
      vertex 38.5 0 0
    endloop
  endfacet
  facet normal -0.970941 0.239318 0
    outer loop
      vertex 38.5 0 3
      vertex 38.3282 -0.697084 0
      vertex 38.3282 -0.697084 3
    endloop
  endfacet
  facet normal 0.568065 0.822983 -0
    outer loop
      vertex 36.4681 -1.40252 0
      vertex 35.8772 -0.994683 3
      vertex 36.4681 -1.40252 3
    endloop
  endfacet
  facet normal 0.568065 0.822983 0
    outer loop
      vertex 35.8772 -0.994683 3
      vertex 36.4681 -1.40252 0
      vertex 35.8772 -0.994683 0
    endloop
  endfacet
  facet normal 0.970941 -0.239318 0
    outer loop
      vertex -38.5 0 3
      vertex -38.3282 0.697084 0
      vertex -38.3282 0.697084 3
    endloop
  endfacet
  facet normal 0.970941 -0.239318 0
    outer loop
      vertex -38.3282 0.697084 0
      vertex -38.5 0 3
      vertex -38.5 0 0
    endloop
  endfacet
  facet normal -1 0 0
    outer loop
      vertex -35.5436 -0.358973 0
      vertex -35.5436 0.358973 3
      vertex -35.5436 0.358973 0
    endloop
  endfacet
  facet normal -1 -0 0
    outer loop
      vertex -35.5436 0.358973 3
      vertex -35.5436 -0.358973 0
      vertex -35.5436 -0.358973 3
    endloop
  endfacet
  facet normal -0.120537 0.992709 0
    outer loop
      vertex -36.4681 -1.40252 0
      vertex -37.1808 -1.48906 3
      vertex -36.4681 -1.40252 3
    endloop
  endfacet
  facet normal -0.120537 0.992709 0
    outer loop
      vertex -37.1808 -1.48906 3
      vertex -36.4681 -1.40252 0
      vertex -37.1808 -1.48906 0
    endloop
  endfacet
  facet normal 0.970941 0.239318 0
    outer loop
      vertex -38.3282 -0.697084 3
      vertex -38.5 0 0
      vertex -38.5 0 3
    endloop
  endfacet
  facet normal 0.970941 0.239318 0
    outer loop
      vertex -38.5 0 0
      vertex -38.3282 -0.697084 3
      vertex -38.3282 -0.697084 0
    endloop
  endfacet
  facet normal 0.748511 -0.663122 0
    outer loop
      vertex -38.3282 0.697084 3
      vertex -37.8521 1.23448 0
      vertex -37.8521 1.23448 3
    endloop
  endfacet
  facet normal 0.748511 -0.663122 0
    outer loop
      vertex -37.8521 1.23448 0
      vertex -38.3282 0.697084 3
      vertex -38.3282 0.697084 0
    endloop
  endfacet
  facet normal 0.354606 0.935016 -0
    outer loop
      vertex -37.1808 -1.48906 0
      vertex -37.8521 -1.23448 3
      vertex -37.1808 -1.48906 3
    endloop
  endfacet
  facet normal 0.354606 0.935016 0
    outer loop
      vertex -37.8521 -1.23448 3
      vertex -37.1808 -1.48906 0
      vertex -37.8521 -1.23448 0
    endloop
  endfacet
  facet normal 0.354606 -0.935016 0
    outer loop
      vertex -37.8521 1.23448 0
      vertex -37.1808 1.48906 3
      vertex -37.8521 1.23448 3
    endloop
  endfacet
  facet normal 0.354606 -0.935016 0
    outer loop
      vertex -37.1808 1.48906 3
      vertex -37.8521 1.23448 0
      vertex -37.1808 1.48906 0
    endloop
  endfacet
  facet normal -0.120537 -0.992709 0
    outer loop
      vertex -37.1808 1.48906 0
      vertex -36.4681 1.40252 3
      vertex -37.1808 1.48906 3
    endloop
  endfacet
  facet normal -0.120537 -0.992709 -0
    outer loop
      vertex -36.4681 1.40252 3
      vertex -37.1808 1.48906 0
      vertex -36.4681 1.40252 0
    endloop
  endfacet
  facet normal -0.568065 0.822983 0
    outer loop
      vertex -35.8772 -0.994683 0
      vertex -36.4681 -1.40252 3
      vertex -35.8772 -0.994683 3
    endloop
  endfacet
  facet normal -0.568065 0.822983 0
    outer loop
      vertex -36.4681 -1.40252 3
      vertex -35.8772 -0.994683 0
      vertex -36.4681 -1.40252 0
    endloop
  endfacet
  facet normal -0.568065 -0.822983 0
    outer loop
      vertex -36.4681 1.40252 0
      vertex -35.8772 0.994683 3
      vertex -36.4681 1.40252 3
    endloop
  endfacet
  facet normal -0.568065 -0.822983 -0
    outer loop
      vertex -35.8772 0.994683 3
      vertex -36.4681 1.40252 0
      vertex -35.8772 0.994683 0
    endloop
  endfacet
  facet normal -0.885455 -0.464725 0
    outer loop
      vertex -35.5436 0.358973 0
      vertex -35.8772 0.994683 3
      vertex -35.8772 0.994683 0
    endloop
  endfacet
  facet normal -0.885455 -0.464725 0
    outer loop
      vertex -35.8772 0.994683 3
      vertex -35.5436 0.358973 0
      vertex -35.5436 0.358973 3
    endloop
  endfacet
  facet normal 0.748511 0.663122 0
    outer loop
      vertex -37.8521 -1.23448 3
      vertex -38.3282 -0.697084 0
      vertex -38.3282 -0.697084 3
    endloop
  endfacet
  facet normal 0.748511 0.663122 0
    outer loop
      vertex -38.3282 -0.697084 0
      vertex -37.8521 -1.23448 3
      vertex -37.8521 -1.23448 0
    endloop
  endfacet
  facet normal -0.885455 0.464725 0
    outer loop
      vertex -35.8772 -0.994683 0
      vertex -35.5436 -0.358973 3
      vertex -35.5436 -0.358973 0
    endloop
  endfacet
  facet normal -0.885455 0.464725 0
    outer loop
      vertex -35.5436 -0.358973 3
      vertex -35.8772 -0.994683 0
      vertex -35.8772 -0.994683 3
    endloop
  endfacet
  facet normal 0 -1 0
    outer loop
      vertex -37.9704 -4.47535 0
      vertex 37.9704 -4.47535 3
      vertex -37.9704 -4.47535 3
    endloop
  endfacet
  facet normal 0 -1 -0
    outer loop
      vertex 37.9704 -4.47535 3
      vertex -37.9704 -4.47535 0
      vertex 37.9704 -4.47535 0
    endloop
  endfacet
  facet normal -0.587786 -0.809016 0
    outer loop
      vertex -40.5111 -3.34415 0
      vertex -39.75 -3.89711 3
      vertex -40.5111 -3.34415 3
    endloop
  endfacet
  facet normal -0.587786 -0.809016 -0
    outer loop
      vertex -39.75 -3.89711 3
      vertex -40.5111 -3.34415 0
      vertex -39.75 -3.89711 0
    endloop
  endfacet
  facet normal -0.743144 -0.669131 0
    outer loop
      vertex -40.5111 -3.34415 0
      vertex -41.1406 -2.64503 3
      vertex -41.1406 -2.64503 0
    endloop
  endfacet
  facet normal -0.743144 -0.669131 0
    outer loop
      vertex -41.1406 -2.64503 3
      vertex -40.5111 -3.34415 0
      vertex -40.5111 -3.34415 3
    endloop
  endfacet
  facet normal -0.994522 0.104528 0
    outer loop
      vertex -42 0 0
      vertex -41.9017 0.935602 3
      vertex -41.9017 0.935602 0
    endloop
  endfacet
  facet normal -0.994522 0.104528 0
    outer loop
      vertex -41.9017 0.935602 3
      vertex -42 0 0
      vertex -42 0 3
    endloop
  endfacet
  facet normal 0 1 -0
    outer loop
      vertex 37.9704 4.47535 0
      vertex -37.9704 4.47535 3
      vertex 37.9704 4.47535 3
    endloop
  endfacet
  facet normal 0 1 0
    outer loop
      vertex -37.9704 4.47535 3
      vertex 37.9704 4.47535 0
      vertex -37.9704 4.47535 0
    endloop
  endfacet
  facet normal 0.994522 -0.104528 0
    outer loop
      vertex 41.9017 -0.935602 3
      vertex 42 0 0
      vertex 42 0 3
    endloop
  endfacet
  facet normal 0.994522 -0.104528 0
    outer loop
      vertex 42 0 0
      vertex 41.9017 -0.935602 3
      vertex 41.9017 -0.935602 0
    endloop
  endfacet
  facet normal -0.406736 -0.913546 0
    outer loop
      vertex -39.75 -3.89711 0
      vertex -38.8906 -4.27975 3
      vertex -39.75 -3.89711 3
    endloop
  endfacet
  facet normal -0.406736 -0.913546 -0
    outer loop
      vertex -38.8906 -4.27975 3
      vertex -39.75 -3.89711 0
      vertex -38.8906 -4.27975 0
    endloop
  endfacet
  facet normal -0.951056 -0.309018 0
    outer loop
      vertex -41.611 -1.83031 0
      vertex -41.9017 -0.935602 3
      vertex -41.9017 -0.935602 0
    endloop
  endfacet
  facet normal -0.951056 -0.309018 0
    outer loop
      vertex -41.9017 -0.935602 3
      vertex -41.611 -1.83031 0
      vertex -41.611 -1.83031 3
    endloop
  endfacet
  facet normal -0.866025 0.500001 0
    outer loop
      vertex -41.611 1.83031 0
      vertex -41.1406 2.64503 3
      vertex -41.1406 2.64503 0
    endloop
  endfacet
  facet normal -0.866025 0.500001 0
    outer loop
      vertex -41.1406 2.64503 3
      vertex -41.611 1.83031 0
      vertex -41.611 1.83031 3
    endloop
  endfacet
  facet normal -0.994522 -0.104528 0
    outer loop
      vertex -41.9017 -0.935602 0
      vertex -42 0 3
      vertex -42 0 0
    endloop
  endfacet
  facet normal -0.994522 -0.104528 0
    outer loop
      vertex -42 0 3
      vertex -41.9017 -0.935602 0
      vertex -41.9017 -0.935602 3
    endloop
  endfacet
  facet normal -0.587786 0.809016 0
    outer loop
      vertex -39.75 3.89711 0
      vertex -40.5111 3.34415 3
      vertex -39.75 3.89711 3
    endloop
  endfacet
  facet normal -0.587786 0.809016 0
    outer loop
      vertex -40.5111 3.34415 3
      vertex -39.75 3.89711 0
      vertex -40.5111 3.34415 0
    endloop
  endfacet
  facet normal 0.951056 0.309018 0
    outer loop
      vertex 41.9017 0.935602 3
      vertex 41.611 1.83031 0
      vertex 41.611 1.83031 3
    endloop
  endfacet
  facet normal 0.951056 0.309018 0
    outer loop
      vertex 41.611 1.83031 0
      vertex 41.9017 0.935602 3
      vertex 41.9017 0.935602 0
    endloop
  endfacet
  facet normal 0.994522 0.104528 0
    outer loop
      vertex 42 0 3
      vertex 41.9017 0.935602 0
      vertex 41.9017 0.935602 3
    endloop
  endfacet
  facet normal 0.994522 0.104528 0
    outer loop
      vertex 41.9017 0.935602 0
      vertex 42 0 3
      vertex 42 0 0
    endloop
  endfacet
  facet normal -0.207913 -0.978147 0
    outer loop
      vertex -38.8906 -4.27975 0
      vertex -37.9704 -4.47535 3
      vertex -38.8906 -4.27975 3
    endloop
  endfacet
  facet normal -0.207913 -0.978147 -0
    outer loop
      vertex -37.9704 -4.47535 3
      vertex -38.8906 -4.27975 0
      vertex -37.9704 -4.47535 0
    endloop
  endfacet
  facet normal -0.866025 -0.500001 0
    outer loop
      vertex -41.1406 -2.64503 0
      vertex -41.611 -1.83031 3
      vertex -41.611 -1.83031 0
    endloop
  endfacet
  facet normal -0.866025 -0.500001 0
    outer loop
      vertex -41.611 -1.83031 3
      vertex -41.1406 -2.64503 0
      vertex -41.1406 -2.64503 3
    endloop
  endfacet
  facet normal -0.743144 0.669131 0
    outer loop
      vertex -41.1406 2.64503 0
      vertex -40.5111 3.34415 3
      vertex -40.5111 3.34415 0
    endloop
  endfacet
  facet normal -0.743144 0.669131 0
    outer loop
      vertex -40.5111 3.34415 3
      vertex -41.1406 2.64503 0
      vertex -41.1406 2.64503 3
    endloop
  endfacet
  facet normal -0.406736 0.913546 0
    outer loop
      vertex -38.8906 4.27975 0
      vertex -39.75 3.89711 3
      vertex -38.8906 4.27975 3
    endloop
  endfacet
  facet normal -0.406736 0.913546 0
    outer loop
      vertex -39.75 3.89711 3
      vertex -38.8906 4.27975 0
      vertex -39.75 3.89711 0
    endloop
  endfacet
  facet normal -0.207913 0.978147 0
    outer loop
      vertex -37.9704 4.47535 0
      vertex -38.8906 4.27975 3
      vertex -37.9704 4.47535 3
    endloop
  endfacet
  facet normal -0.207913 0.978147 0
    outer loop
      vertex -38.8906 4.27975 3
      vertex -37.9704 4.47535 0
      vertex -38.8906 4.27975 0
    endloop
  endfacet
  facet normal 0.743144 0.669131 0
    outer loop
      vertex 41.1406 2.64503 3
      vertex 40.5111 3.34415 0
      vertex 40.5111 3.34415 3
    endloop
  endfacet
  facet normal 0.743144 0.669131 0
    outer loop
      vertex 40.5111 3.34415 0
      vertex 41.1406 2.64503 3
      vertex 41.1406 2.64503 0
    endloop
  endfacet
  facet normal 0.587786 0.809016 -0
    outer loop
      vertex 40.5111 3.34415 0
      vertex 39.75 3.89711 3
      vertex 40.5111 3.34415 3
    endloop
  endfacet
  facet normal 0.587786 0.809016 0
    outer loop
      vertex 39.75 3.89711 3
      vertex 40.5111 3.34415 0
      vertex 39.75 3.89711 0
    endloop
  endfacet
  facet normal 0.207913 0.978147 -0
    outer loop
      vertex 38.8906 4.27975 0
      vertex 37.9704 4.47535 3
      vertex 38.8906 4.27975 3
    endloop
  endfacet
  facet normal 0.207913 0.978147 0
    outer loop
      vertex 37.9704 4.47535 3
      vertex 38.8906 4.27975 0
      vertex 37.9704 4.47535 0
    endloop
  endfacet
  facet normal 0.207913 -0.978147 0
    outer loop
      vertex 37.9704 -4.47535 0
      vertex 38.8906 -4.27975 3
      vertex 37.9704 -4.47535 3
    endloop
  endfacet
  facet normal 0.207913 -0.978147 0
    outer loop
      vertex 38.8906 -4.27975 3
      vertex 37.9704 -4.47535 0
      vertex 38.8906 -4.27975 0
    endloop
  endfacet
  facet normal 0.406736 -0.913546 0
    outer loop
      vertex 38.8906 -4.27975 0
      vertex 39.75 -3.89711 3
      vertex 38.8906 -4.27975 3
    endloop
  endfacet
  facet normal 0.406736 -0.913546 0
    outer loop
      vertex 39.75 -3.89711 3
      vertex 38.8906 -4.27975 0
      vertex 39.75 -3.89711 0
    endloop
  endfacet
  facet normal 0.951056 -0.309018 0
    outer loop
      vertex 41.611 -1.83031 3
      vertex 41.9017 -0.935602 0
      vertex 41.9017 -0.935602 3
    endloop
  endfacet
  facet normal 0.951056 -0.309018 0
    outer loop
      vertex 41.9017 -0.935602 0
      vertex 41.611 -1.83031 3
      vertex 41.611 -1.83031 0
    endloop
  endfacet
  facet normal -0.951056 0.309018 0
    outer loop
      vertex -41.9017 0.935602 0
      vertex -41.611 1.83031 3
      vertex -41.611 1.83031 0
    endloop
  endfacet
  facet normal -0.951056 0.309018 0
    outer loop
      vertex -41.611 1.83031 3
      vertex -41.9017 0.935602 0
      vertex -41.9017 0.935602 3
    endloop
  endfacet
  facet normal 0.866025 0.500001 0
    outer loop
      vertex 41.611 1.83031 3
      vertex 41.1406 2.64503 0
      vertex 41.1406 2.64503 3
    endloop
  endfacet
  facet normal 0.866025 0.500001 0
    outer loop
      vertex 41.1406 2.64503 0
      vertex 41.611 1.83031 3
      vertex 41.611 1.83031 0
    endloop
  endfacet
  facet normal 0.406736 0.913546 -0
    outer loop
      vertex 39.75 3.89711 0
      vertex 38.8906 4.27975 3
      vertex 39.75 3.89711 3
    endloop
  endfacet
  facet normal 0.406736 0.913546 0
    outer loop
      vertex 38.8906 4.27975 3
      vertex 39.75 3.89711 0
      vertex 38.8906 4.27975 0
    endloop
  endfacet
  facet normal 0.743144 -0.669131 0
    outer loop
      vertex 40.5111 -3.34415 3
      vertex 41.1406 -2.64503 0
      vertex 41.1406 -2.64503 3
    endloop
  endfacet
  facet normal 0.743144 -0.669131 0
    outer loop
      vertex 41.1406 -2.64503 0
      vertex 40.5111 -3.34415 3
      vertex 40.5111 -3.34415 0
    endloop
  endfacet
  facet normal 0.866025 -0.500001 0
    outer loop
      vertex 41.1406 -2.64503 3
      vertex 41.611 -1.83031 0
      vertex 41.611 -1.83031 3
    endloop
  endfacet
  facet normal 0.866025 -0.500001 0
    outer loop
      vertex 41.611 -1.83031 0
      vertex 41.1406 -2.64503 3
      vertex 41.1406 -2.64503 0
    endloop
  endfacet
  facet normal 0.587786 -0.809016 0
    outer loop
      vertex 39.75 -3.89711 0
      vertex 40.5111 -3.34415 3
      vertex 39.75 -3.89711 3
    endloop
  endfacet
  facet normal 0.587786 -0.809016 0
    outer loop
      vertex 40.5111 -3.34415 3
      vertex 39.75 -3.89711 0
      vertex 40.5111 -3.34415 0
    endloop
  endfacet
endsolid OpenSCAD_Model
