solid OpenSCAD_Model
  facet normal -0.970942 -0.239317 0
    outer loop
      vertex 1.5 0 3.75
      vertex 1.32818 0.697084 7.5
      vertex 1.32818 0.697084 3.75
    endloop
  endfacet
  facet normal -0.970942 -0.239317 0
    outer loop
      vertex 1.32818 0.697084 7.5
      vertex 1.5 0 3.75
      vertex 1.5 0 7.5
    endloop
  endfacet
  facet normal 1 -0 0
    outer loop
      vertex -1.45641 -0.358973 7.5
      vertex -1.45641 0.358973 3.75
      vertex -1.45641 0.358973 7.5
    endloop
  endfacet
  facet normal 1 0 0
    outer loop
      vertex -1.45641 0.358973 3.75
      vertex -1.45641 -0.358973 7.5
      vertex -1.45641 -0.358973 3.75
    endloop
  endfacet
  facet normal 0.120537 -0.992709 0
    outer loop
      vertex -0.531907 1.40252 3.75
      vertex 0.180804 1.48906 7.5
      vertex -0.531907 1.40252 7.5
    endloop
  endfacet
  facet normal 0.120537 -0.992709 0
    outer loop
      vertex 0.180804 1.48906 7.5
      vertex -0.531907 1.40252 3.75
      vertex 0.180804 1.48906 3.75
    endloop
  endfacet
  facet normal 0.568065 -0.822983 0
    outer loop
      vertex -1.12277 0.994683 3.75
      vertex -0.531907 1.40252 7.5
      vertex -1.12277 0.994683 7.5
    endloop
  endfacet
  facet normal 0.568065 -0.822983 0
    outer loop
      vertex -0.531907 1.40252 7.5
      vertex -1.12277 0.994683 3.75
      vertex -0.531907 1.40252 3.75
    endloop
  endfacet
  facet normal -0.354606 0.935016 0
    outer loop
      vertex 0.852097 -1.23448 3.75
      vertex 0.180804 -1.48906 7.5
      vertex 0.852097 -1.23448 7.5
    endloop
  endfacet
  facet normal -0.354606 0.935016 0
    outer loop
      vertex 0.180804 -1.48906 7.5
      vertex 0.852097 -1.23448 3.75
      vertex 0.180804 -1.48906 3.75
    endloop
  endfacet
  facet normal 0.885456 0.464723 0
    outer loop
      vertex -1.12277 -0.994683 7.5
      vertex -1.45641 -0.358973 3.75
      vertex -1.45641 -0.358973 7.5
    endloop
  endfacet
  facet normal 0.885456 0.464723 0
    outer loop
      vertex -1.45641 -0.358973 3.75
      vertex -1.12277 -0.994683 7.5
      vertex -1.12277 -0.994683 3.75
    endloop
  endfacet
  facet normal -0.354606 -0.935016 0
    outer loop
      vertex 0.180804 1.48906 3.75
      vertex 0.852097 1.23448 7.5
      vertex 0.180804 1.48906 7.5
    endloop
  endfacet
  facet normal -0.354606 -0.935016 -0
    outer loop
      vertex 0.852097 1.23448 7.5
      vertex 0.180804 1.48906 3.75
      vertex 0.852097 1.23448 3.75
    endloop
  endfacet
  facet normal -0.748511 -0.663123 0
    outer loop
      vertex 1.32818 0.697084 3.75
      vertex 0.852097 1.23448 7.5
      vertex 0.852097 1.23448 3.75
    endloop
  endfacet
  facet normal -0.748511 -0.663123 0
    outer loop
      vertex 0.852097 1.23448 7.5
      vertex 1.32818 0.697084 3.75
      vertex 1.32818 0.697084 7.5
    endloop
  endfacet
  facet normal 0.885456 -0.464723 0
    outer loop
      vertex -1.45641 0.358973 7.5
      vertex -1.12277 0.994683 3.75
      vertex -1.12277 0.994683 7.5
    endloop
  endfacet
  facet normal 0.885456 -0.464723 0
    outer loop
      vertex -1.12277 0.994683 3.75
      vertex -1.45641 0.358973 7.5
      vertex -1.45641 0.358973 3.75
    endloop
  endfacet
  facet normal 0 0 1
    outer loop
      vertex 41.5 0 7.5
      vertex 44.5 0 7.5
      vertex 44.4017 0.935602 7.5
    endloop
  endfacet
  facet normal 0 0 1
    outer loop
      vertex 41.3282 0.697084 7.5
      vertex 44.4017 0.935602 7.5
      vertex 44.111 1.83031 7.5
    endloop
  endfacet
  facet normal 0 0 1
    outer loop
      vertex 44.5 0 7.5
      vertex 41.5 0 7.5
      vertex 44.4017 -0.935602 7.5
    endloop
  endfacet
  facet normal 0 0 1
    outer loop
      vertex 41.3282 0.697084 7.5
      vertex 44.111 1.83031 7.5
      vertex 43.6406 2.64503 7.5
    endloop
  endfacet
  facet normal -0 0 1
    outer loop
      vertex 41.3282 -0.697084 7.5
      vertex 44.4017 -0.935602 7.5
      vertex 41.5 0 7.5
    endloop
  endfacet
  facet normal 0 0 1
    outer loop
      vertex 40.8521 1.23448 7.5
      vertex 43.6406 2.64503 7.5
      vertex 43.0111 3.34415 7.5
    endloop
  endfacet
  facet normal 0 0 1
    outer loop
      vertex 44.4017 -0.935602 7.5
      vertex 41.3282 -0.697084 7.5
      vertex 44.111 -1.83031 7.5
    endloop
  endfacet
  facet normal 0 0 1
    outer loop
      vertex 40.8521 1.23448 7.5
      vertex 43.0111 3.34415 7.5
      vertex 42.25 3.89711 7.5
    endloop
  endfacet
  facet normal 0 0 1
    outer loop
      vertex 44.111 -1.83031 7.5
      vertex 41.3282 -0.697084 7.5
      vertex 43.6406 -2.64503 7.5
    endloop
  endfacet
  facet normal -0 0 1
    outer loop
      vertex 40.8521 -1.23448 7.5
      vertex 43.6406 -2.64503 7.5
      vertex 41.3282 -0.697084 7.5
    endloop
  endfacet
  facet normal 0 0 1
    outer loop
      vertex 40.8521 1.23448 7.5
      vertex 42.25 3.89711 7.5
      vertex 41.3906 4.27975 7.5
    endloop
  endfacet
  facet normal 0 0 1
    outer loop
      vertex 44.4017 0.935602 7.5
      vertex 41.3282 0.697084 7.5
      vertex 41.5 0 7.5
    endloop
  endfacet
  facet normal 0 0 1
    outer loop
      vertex 43.6406 2.64503 7.5
      vertex 40.8521 1.23448 7.5
      vertex 41.3282 0.697084 7.5
    endloop
  endfacet
  facet normal 0 0 1
    outer loop
      vertex 40.1808 1.48906 7.5
      vertex 41.3906 4.27975 7.5
      vertex 40.4704 4.47535 7.5
    endloop
  endfacet
  facet normal 0 0 1
    outer loop
      vertex 41.3906 4.27975 7.5
      vertex 40.1808 1.48906 7.5
      vertex 40.8521 1.23448 7.5
    endloop
  endfacet
  facet normal 0 0 1
    outer loop
      vertex 40.4704 4.47535 7.5
      vertex 39.4681 1.40252 7.5
      vertex 40.1808 1.48906 7.5
    endloop
  endfacet
  facet normal 0 0 1
    outer loop
      vertex 40.4704 4.47535 7.5
      vertex 38.8772 0.994683 7.5
      vertex 39.4681 1.40252 7.5
    endloop
  endfacet
  facet normal 0 0 1
    outer loop
      vertex 1.32818 0.697084 7.5
      vertex 38.8772 0.994683 7.5
      vertex 40.4704 4.47535 7.5
    endloop
  endfacet
  facet normal 0 0 1
    outer loop
      vertex 38.5436 0.358973 7.5
      vertex 1.5 0 7.5
      vertex 38.5436 -0.358973 7.5
    endloop
  endfacet
  facet normal 0 0 1
    outer loop
      vertex 38.8772 0.994683 7.5
      vertex 1.32818 0.697084 7.5
      vertex 38.5436 0.358973 7.5
    endloop
  endfacet
  facet normal 0 0 1
    outer loop
      vertex 38.5436 0.358973 7.5
      vertex 1.32818 0.697084 7.5
      vertex 1.5 0 7.5
    endloop
  endfacet
  facet normal -0 0 1
    outer loop
      vertex -0.470378 4.47535 7.5
      vertex 1.32818 0.697084 7.5
      vertex 40.4704 4.47535 7.5
    endloop
  endfacet
  facet normal 0 0 1
    outer loop
      vertex 1.32818 0.697084 7.5
      vertex -0.470378 4.47535 7.5
      vertex 0.852097 1.23448 7.5
    endloop
  endfacet
  facet normal 0 0 1
    outer loop
      vertex 0.852097 1.23448 7.5
      vertex -0.470378 4.47535 7.5
      vertex 0.180804 1.48906 7.5
    endloop
  endfacet
  facet normal 0 0 1
    outer loop
      vertex -0.470378 4.47535 7.5
      vertex -0.531907 1.40252 7.5
      vertex 0.180804 1.48906 7.5
    endloop
  endfacet
  facet normal -0 0 1
    outer loop
      vertex -1.39058 4.27975 7.5
      vertex -0.531907 1.40252 7.5
      vertex -0.470378 4.47535 7.5
    endloop
  endfacet
  facet normal -0 0 1
    outer loop
      vertex -2.25 3.89711 7.5
      vertex -0.531907 1.40252 7.5
      vertex -1.39058 4.27975 7.5
    endloop
  endfacet
  facet normal 0 0 1
    outer loop
      vertex -0.531907 1.40252 7.5
      vertex -2.25 3.89711 7.5
      vertex -1.12277 0.994683 7.5
    endloop
  endfacet
  facet normal -0 0 1
    outer loop
      vertex -3.64058 2.64503 7.5
      vertex -1.12277 0.994683 7.5
      vertex -3.01109 3.34415 7.5
    endloop
  endfacet
  facet normal -0 0 1
    outer loop
      vertex -3.01109 3.34415 7.5
      vertex -1.12277 0.994683 7.5
      vertex -2.25 3.89711 7.5
    endloop
  endfacet
  facet normal 0 0 1
    outer loop
      vertex 43.6406 -2.64503 7.5
      vertex 40.8521 -1.23448 7.5
      vertex 43.0111 -3.34415 7.5
    endloop
  endfacet
  facet normal 0 0 1
    outer loop
      vertex 43.0111 -3.34415 7.5
      vertex 40.8521 -1.23448 7.5
      vertex 42.25 -3.89711 7.5
    endloop
  endfacet
  facet normal 0 0 1
    outer loop
      vertex 42.25 -3.89711 7.5
      vertex 40.8521 -1.23448 7.5
      vertex 41.3906 -4.27975 7.5
    endloop
  endfacet
  facet normal -0 0 1
    outer loop
      vertex 40.1808 -1.48906 7.5
      vertex 41.3906 -4.27975 7.5
      vertex 40.8521 -1.23448 7.5
    endloop
  endfacet
  facet normal 0 0 1
    outer loop
      vertex 41.3906 -4.27975 7.5
      vertex 40.1808 -1.48906 7.5
      vertex 40.4704 -4.47535 7.5
    endloop
  endfacet
  facet normal 0 0 1
    outer loop
      vertex 39.4681 -1.40252 7.5
      vertex 40.4704 -4.47535 7.5
      vertex 40.1808 -1.48906 7.5
    endloop
  endfacet
  facet normal 0 0 1
    outer loop
      vertex 38.8772 -0.994683 7.5
      vertex 40.4704 -4.47535 7.5
      vertex 39.4681 -1.40252 7.5
    endloop
  endfacet
  facet normal -0 0 1
    outer loop
      vertex 1.32818 -0.697084 7.5
      vertex 38.8772 -0.994683 7.5
      vertex 38.5436 -0.358973 7.5
    endloop
  endfacet
  facet normal 0 0 1
    outer loop
      vertex 1.32818 -0.697084 7.5
      vertex 38.5436 -0.358973 7.5
      vertex 1.5 0 7.5
    endloop
  endfacet
  facet normal 0 0 1
    outer loop
      vertex 38.8772 -0.994683 7.5
      vertex 1.32818 -0.697084 7.5
      vertex 40.4704 -4.47535 7.5
    endloop
  endfacet
  facet normal 0 0 1
    outer loop
      vertex -0.470378 -4.47535 7.5
      vertex 1.32818 -0.697084 7.5
      vertex 0.852097 -1.23448 7.5
    endloop
  endfacet
  facet normal 0 0 1
    outer loop
      vertex -0.470378 -4.47535 7.5
      vertex 0.852097 -1.23448 7.5
      vertex 0.180804 -1.48906 7.5
    endloop
  endfacet
  facet normal 0 0 1
    outer loop
      vertex 1.32818 -0.697084 7.5
      vertex -0.470378 -4.47535 7.5
      vertex 40.4704 -4.47535 7.5
    endloop
  endfacet
  facet normal 0 0 1
    outer loop
      vertex -0.531907 -1.40252 7.5
      vertex -0.470378 -4.47535 7.5
      vertex 0.180804 -1.48906 7.5
    endloop
  endfacet
  facet normal 0 0 1
    outer loop
      vertex -2.25 -3.89711 7.5
      vertex -0.531907 -1.40252 7.5
      vertex -1.12277 -0.994683 7.5
    endloop
  endfacet
  facet normal 0 0 1
    outer loop
      vertex -0.531907 -1.40252 7.5
      vertex -1.39058 -4.27975 7.5
      vertex -0.470378 -4.47535 7.5
    endloop
  endfacet
  facet normal 0 0 1
    outer loop
      vertex -4.11095 -1.83031 7.5
      vertex -1.12277 -0.994683 7.5
      vertex -1.45641 -0.358973 7.5
    endloop
  endfacet
  facet normal -0 0 1
    outer loop
      vertex -4.11095 1.83031 7.5
      vertex -1.12277 0.994683 7.5
      vertex -3.64058 2.64503 7.5
    endloop
  endfacet
  facet normal 0 0 1
    outer loop
      vertex -0.531907 -1.40252 7.5
      vertex -2.25 -3.89711 7.5
      vertex -1.39058 -4.27975 7.5
    endloop
  endfacet
  facet normal 0 0 1
    outer loop
      vertex -1.12277 0.994683 7.5
      vertex -4.11095 1.83031 7.5
      vertex -1.45641 0.358973 7.5
    endloop
  endfacet
  facet normal 0 0 1
    outer loop
      vertex -1.12277 -0.994683 7.5
      vertex -3.01109 -3.34415 7.5
      vertex -2.25 -3.89711 7.5
    endloop
  endfacet
  facet normal -0 0 1
    outer loop
      vertex -4.40166 0.935602 7.5
      vertex -1.45641 0.358973 7.5
      vertex -4.11095 1.83031 7.5
    endloop
  endfacet
  facet normal 0 0 1
    outer loop
      vertex -1.12277 -0.994683 7.5
      vertex -3.64058 -2.64503 7.5
      vertex -3.01109 -3.34415 7.5
    endloop
  endfacet
  facet normal 0 0 1
    outer loop
      vertex -4.5 0 7.5
      vertex -1.45641 0.358973 7.5
      vertex -4.40166 0.935602 7.5
    endloop
  endfacet
  facet normal 0 0 1
    outer loop
      vertex -1.12277 -0.994683 7.5
      vertex -4.11095 -1.83031 7.5
      vertex -3.64058 -2.64503 7.5
    endloop
  endfacet
  facet normal 0 0 1
    outer loop
      vertex -1.45641 0.358973 7.5
      vertex -4.5 0 7.5
      vertex -1.45641 -0.358973 7.5
    endloop
  endfacet
  facet normal 0 0 1
    outer loop
      vertex -1.45641 -0.358973 7.5
      vertex -4.40166 -0.935602 7.5
      vertex -4.11095 -1.83031 7.5
    endloop
  endfacet
  facet normal 0 0 1
    outer loop
      vertex -1.45641 -0.358973 7.5
      vertex -4.5 0 7.5
      vertex -4.40166 -0.935602 7.5
    endloop
  endfacet
  facet normal 0.568065 0.822983 -0
    outer loop
      vertex -0.531907 -1.40252 3.75
      vertex -1.12277 -0.994683 7.5
      vertex -0.531907 -1.40252 7.5
    endloop
  endfacet
  facet normal 0.568065 0.822983 0
    outer loop
      vertex -1.12277 -0.994683 7.5
      vertex -0.531907 -1.40252 3.75
      vertex -1.12277 -0.994683 3.75
    endloop
  endfacet
  facet normal -0.748511 0.663123 0
    outer loop
      vertex 0.852097 -1.23448 3.75
      vertex 1.32818 -0.697084 7.5
      vertex 1.32818 -0.697084 3.75
    endloop
  endfacet
  facet normal -0.748511 0.663123 0
    outer loop
      vertex 1.32818 -0.697084 7.5
      vertex 0.852097 -1.23448 3.75
      vertex 0.852097 -1.23448 7.5
    endloop
  endfacet
  facet normal -0.970942 0.239317 0
    outer loop
      vertex 1.32818 -0.697084 3.75
      vertex 1.5 0 7.5
      vertex 1.5 0 3.75
    endloop
  endfacet
  facet normal -0.970942 0.239317 0
    outer loop
      vertex 1.5 0 7.5
      vertex 1.32818 -0.697084 3.75
      vertex 1.32818 -0.697084 7.5
    endloop
  endfacet
  facet normal 0.120537 0.992709 -0
    outer loop
      vertex 0.180804 -1.48906 3.75
      vertex -0.531907 -1.40252 7.5
      vertex 0.180804 -1.48906 7.5
    endloop
  endfacet
  facet normal 0.120537 0.992709 0
    outer loop
      vertex -0.531907 -1.40252 7.5
      vertex 0.180804 -1.48906 3.75
      vertex -0.531907 -1.40252 3.75
    endloop
  endfacet
  facet normal -0.970941 -0.239318 0
    outer loop
      vertex 41.5 0 0
      vertex 41.3282 0.697084 2
      vertex 41.3282 0.697084 0
    endloop
  endfacet
  facet normal -0.970941 -0.239318 0
    outer loop
      vertex 41.3282 0.697084 2
      vertex 41.5 0 0
      vertex 41.5 0 2
    endloop
  endfacet
  facet normal -0.970941 -0.239318 0
    outer loop
      vertex 41.5 0 5.5
      vertex 41.3282 0.697084 7.5
      vertex 41.3282 0.697084 5.5
    endloop
  endfacet
  facet normal -0.970941 -0.239318 0
    outer loop
      vertex 41.3282 0.697084 7.5
      vertex 41.5 0 5.5
      vertex 41.5 0 7.5
    endloop
  endfacet
  facet normal 1 -0 0
    outer loop
      vertex 38.5436 -0.358973 2
      vertex 38.5436 0.358973 0
      vertex 38.5436 0.358973 2
    endloop
  endfacet
  facet normal 1 0 0
    outer loop
      vertex 38.5436 0.358973 0
      vertex 38.5436 -0.358973 2
      vertex 38.5436 -0.358973 0
    endloop
  endfacet
  facet normal 1 -0 0
    outer loop
      vertex 38.5436 -0.358973 7.5
      vertex 38.5436 0.358973 5.5
      vertex 38.5436 0.358973 7.5
    endloop
  endfacet
  facet normal 1 0 0
    outer loop
      vertex 38.5436 0.358973 5.5
      vertex 38.5436 -0.358973 7.5
      vertex 38.5436 -0.358973 5.5
    endloop
  endfacet
  facet normal 0.120537 -0.992709 0
    outer loop
      vertex 39.4681 1.40252 0
      vertex 40.1808 1.48906 2
      vertex 39.4681 1.40252 2
    endloop
  endfacet
  facet normal 0.120537 -0.992709 0
    outer loop
      vertex 40.1808 1.48906 2
      vertex 39.4681 1.40252 0
      vertex 40.1808 1.48906 0
    endloop
  endfacet
  facet normal 0.120537 -0.992709 0
    outer loop
      vertex 39.4681 1.40252 5.5
      vertex 40.1808 1.48906 7.5
      vertex 39.4681 1.40252 7.5
    endloop
  endfacet
  facet normal 0.120537 -0.992709 0
    outer loop
      vertex 40.1808 1.48906 7.5
      vertex 39.4681 1.40252 5.5
      vertex 40.1808 1.48906 5.5
    endloop
  endfacet
  facet normal 0.568065 -0.822983 0
    outer loop
      vertex 38.8772 0.994683 0
      vertex 39.4681 1.40252 2
      vertex 38.8772 0.994683 2
    endloop
  endfacet
  facet normal 0.568065 -0.822983 0
    outer loop
      vertex 39.4681 1.40252 2
      vertex 38.8772 0.994683 0
      vertex 39.4681 1.40252 0
    endloop
  endfacet
  facet normal 0.568065 -0.822983 0
    outer loop
      vertex 38.8772 0.994683 5.5
      vertex 39.4681 1.40252 7.5
      vertex 38.8772 0.994683 7.5
    endloop
  endfacet
  facet normal 0.568065 -0.822983 0
    outer loop
      vertex 39.4681 1.40252 7.5
      vertex 38.8772 0.994683 5.5
      vertex 39.4681 1.40252 5.5
    endloop
  endfacet
  facet normal 0 0 -1
    outer loop
      vertex 41.5 0 0
      vertex 44.5 0 0
      vertex 44.4017 -0.935602 0
    endloop
  endfacet
  facet normal 0 0 -1
    outer loop
      vertex 41.3282 -0.697084 0
      vertex 44.4017 -0.935602 0
      vertex 44.111 -1.83031 0
    endloop
  endfacet
  facet normal 0 0 -1
    outer loop
      vertex 44.5 0 0
      vertex 41.5 0 0
      vertex 44.4017 0.935602 0
    endloop
  endfacet
  facet normal 0 0 -1
    outer loop
      vertex 41.3282 -0.697084 0
      vertex 44.111 -1.83031 0
      vertex 43.6406 -2.64503 0
    endloop
  endfacet
  facet normal 0 0 -1
    outer loop
      vertex 41.3282 0.697084 0
      vertex 44.4017 0.935602 0
      vertex 41.5 0 0
    endloop
  endfacet
  facet normal 0 0 -1
    outer loop
      vertex 40.8521 -1.23448 0
      vertex 43.6406 -2.64503 0
      vertex 43.0111 -3.34415 0
    endloop
  endfacet
  facet normal -0 0 -1
    outer loop
      vertex 44.4017 0.935602 0
      vertex 41.3282 0.697084 0
      vertex 44.111 1.83031 0
    endloop
  endfacet
  facet normal 0 0 -1
    outer loop
      vertex 40.8521 -1.23448 0
      vertex 43.0111 -3.34415 0
      vertex 42.25 -3.89711 0
    endloop
  endfacet
  facet normal -0 0 -1
    outer loop
      vertex 44.111 1.83031 0
      vertex 41.3282 0.697084 0
      vertex 43.6406 2.64503 0
    endloop
  endfacet
  facet normal 0 0 -1
    outer loop
      vertex 40.8521 1.23448 0
      vertex 43.6406 2.64503 0
      vertex 41.3282 0.697084 0
    endloop
  endfacet
  facet normal 0 0 -1
    outer loop
      vertex 40.8521 -1.23448 0
      vertex 42.25 -3.89711 0
      vertex 41.3906 -4.27975 0
    endloop
  endfacet
  facet normal 0 0 -1
    outer loop
      vertex 44.4017 -0.935602 0
      vertex 41.3282 -0.697084 0
      vertex 41.5 0 0
    endloop
  endfacet
  facet normal 0 0 -1
    outer loop
      vertex 43.6406 -2.64503 0
      vertex 40.8521 -1.23448 0
      vertex 41.3282 -0.697084 0
    endloop
  endfacet
  facet normal 0 0 -1
    outer loop
      vertex 40.1808 -1.48906 0
      vertex 41.3906 -4.27975 0
      vertex 40.4704 -4.47535 0
    endloop
  endfacet
  facet normal 0 0 -1
    outer loop
      vertex 41.3906 -4.27975 0
      vertex 40.1808 -1.48906 0
      vertex 40.8521 -1.23448 0
    endloop
  endfacet
  facet normal 0 0 -1
    outer loop
      vertex 40.4704 -4.47535 0
      vertex 39.4681 -1.40252 0
      vertex 40.1808 -1.48906 0
    endloop
  endfacet
  facet normal 0 0 -1
    outer loop
      vertex 40.4704 -4.47535 0
      vertex 38.8772 -0.994683 0
      vertex 39.4681 -1.40252 0
    endloop
  endfacet
  facet normal 0 0 -1
    outer loop
      vertex 30.0309 4.40489 0
      vertex 38.8772 -0.994683 0
      vertex 40.4704 -4.47535 0
    endloop
  endfacet
  facet normal 0 0 -1
    outer loop
      vertex 30.0309 4.40489 0
      vertex 38.5436 0.358973 0
      vertex 38.5436 -0.358973 0
    endloop
  endfacet
  facet normal 0 0 -1
    outer loop
      vertex 38.8772 -0.994683 0
      vertex 30.0309 4.40489 0
      vertex 38.5436 -0.358973 0
    endloop
  endfacet
  facet normal 0 0 -1
    outer loop
      vertex 38.5436 0.358973 0
      vertex 30.0309 4.40489 0
      vertex 30.0821 4.47535 0
    endloop
  endfacet
  facet normal 0 -0 -1
    outer loop
      vertex 30.0309 4.40489 0
      vertex 40.4704 -4.47535 0
      vertex 3.92083 -4.47535 0
    endloop
  endfacet
  facet normal -0 0 -1
    outer loop
      vertex 43.6406 2.64503 0
      vertex 40.8521 1.23448 0
      vertex 43.0111 3.34415 0
    endloop
  endfacet
  facet normal -0 0 -1
    outer loop
      vertex 43.0111 3.34415 0
      vertex 40.8521 1.23448 0
      vertex 42.25 3.89711 0
    endloop
  endfacet
  facet normal -0 0 -1
    outer loop
      vertex 42.25 3.89711 0
      vertex 40.8521 1.23448 0
      vertex 41.3906 4.27975 0
    endloop
  endfacet
  facet normal 0 0 -1
    outer loop
      vertex 40.1808 1.48906 0
      vertex 41.3906 4.27975 0
      vertex 40.8521 1.23448 0
    endloop
  endfacet
  facet normal -0 0 -1
    outer loop
      vertex 41.3906 4.27975 0
      vertex 40.1808 1.48906 0
      vertex 40.4704 4.47535 0
    endloop
  endfacet
  facet normal 0 0 -1
    outer loop
      vertex 39.4681 1.40252 0
      vertex 40.4704 4.47535 0
      vertex 40.1808 1.48906 0
    endloop
  endfacet
  facet normal 0 0 -1
    outer loop
      vertex 38.8772 0.994683 0
      vertex 40.4704 4.47535 0
      vertex 39.4681 1.40252 0
    endloop
  endfacet
  facet normal 0 0 -1
    outer loop
      vertex 30.0821 4.47535 0
      vertex 38.8772 0.994683 0
      vertex 38.5436 0.358973 0
    endloop
  endfacet
  facet normal 0 0 -1
    outer loop
      vertex 38.8772 0.994683 0
      vertex 30.0821 4.47535 0
      vertex 40.4704 4.47535 0
    endloop
  endfacet
  facet normal -0.354606 -0.935016 0
    outer loop
      vertex 40.1808 1.48906 0
      vertex 40.8521 1.23448 2
      vertex 40.1808 1.48906 2
    endloop
  endfacet
  facet normal -0.354606 -0.935016 -0
    outer loop
      vertex 40.8521 1.23448 2
      vertex 40.1808 1.48906 0
      vertex 40.8521 1.23448 0
    endloop
  endfacet
  facet normal -0.354606 -0.935016 0
    outer loop
      vertex 40.1808 1.48906 5.5
      vertex 40.8521 1.23448 7.5
      vertex 40.1808 1.48906 7.5
    endloop
  endfacet
  facet normal -0.354606 -0.935016 -0
    outer loop
      vertex 40.8521 1.23448 7.5
      vertex 40.1808 1.48906 5.5
      vertex 40.8521 1.23448 5.5
    endloop
  endfacet
  facet normal -0.748511 -0.663122 0
    outer loop
      vertex 41.3282 0.697084 0
      vertex 40.8521 1.23448 2
      vertex 40.8521 1.23448 0
    endloop
  endfacet
  facet normal -0.748511 -0.663122 0
    outer loop
      vertex 40.8521 1.23448 2
      vertex 41.3282 0.697084 0
      vertex 41.3282 0.697084 2
    endloop
  endfacet
  facet normal -0.748511 -0.663122 0
    outer loop
      vertex 41.3282 0.697084 5.5
      vertex 40.8521 1.23448 7.5
      vertex 40.8521 1.23448 5.5
    endloop
  endfacet
  facet normal -0.748511 -0.663122 0
    outer loop
      vertex 40.8521 1.23448 7.5
      vertex 41.3282 0.697084 5.5
      vertex 41.3282 0.697084 7.5
    endloop
  endfacet
  facet normal 0.885455 -0.464725 0
    outer loop
      vertex 38.5436 0.358973 2
      vertex 38.8772 0.994683 0
      vertex 38.8772 0.994683 2
    endloop
  endfacet
  facet normal 0.885455 -0.464725 0
    outer loop
      vertex 38.8772 0.994683 0
      vertex 38.5436 0.358973 2
      vertex 38.5436 0.358973 0
    endloop
  endfacet
  facet normal 0.885455 -0.464725 0
    outer loop
      vertex 38.5436 0.358973 7.5
      vertex 38.8772 0.994683 5.5
      vertex 38.8772 0.994683 7.5
    endloop
  endfacet
  facet normal 0.885455 -0.464725 0
    outer loop
      vertex 38.8772 0.994683 5.5
      vertex 38.5436 0.358973 7.5
      vertex 38.5436 0.358973 5.5
    endloop
  endfacet
  facet normal -0.970941 0.239318 0
    outer loop
      vertex 41.3282 -0.697084 5.5
      vertex 41.5 0 7.5
      vertex 41.5 0 5.5
    endloop
  endfacet
  facet normal -0.970941 0.239318 0
    outer loop
      vertex 41.5 0 7.5
      vertex 41.3282 -0.697084 5.5
      vertex 41.3282 -0.697084 7.5
    endloop
  endfacet
  facet normal -0.970941 0.239318 0
    outer loop
      vertex 41.3282 -0.697084 0
      vertex 41.5 0 2
      vertex 41.5 0 0
    endloop
  endfacet
  facet normal -0.970941 0.239318 0
    outer loop
      vertex 41.5 0 2
      vertex 41.3282 -0.697084 0
      vertex 41.3282 -0.697084 2
    endloop
  endfacet
  facet normal 0.120537 0.992709 -0
    outer loop
      vertex 40.1808 -1.48906 5.5
      vertex 39.4681 -1.40252 7.5
      vertex 40.1808 -1.48906 7.5
    endloop
  endfacet
  facet normal 0.120537 0.992709 0
    outer loop
      vertex 39.4681 -1.40252 7.5
      vertex 40.1808 -1.48906 5.5
      vertex 39.4681 -1.40252 5.5
    endloop
  endfacet
  facet normal 0.120537 0.992709 -0
    outer loop
      vertex 40.1808 -1.48906 0
      vertex 39.4681 -1.40252 2
      vertex 40.1808 -1.48906 2
    endloop
  endfacet
  facet normal 0.120537 0.992709 0
    outer loop
      vertex 39.4681 -1.40252 2
      vertex 40.1808 -1.48906 0
      vertex 39.4681 -1.40252 0
    endloop
  endfacet
  facet normal 0.885455 0.464725 0
    outer loop
      vertex 38.8772 -0.994683 2
      vertex 38.5436 -0.358973 0
      vertex 38.5436 -0.358973 2
    endloop
  endfacet
  facet normal 0.885455 0.464725 0
    outer loop
      vertex 38.5436 -0.358973 0
      vertex 38.8772 -0.994683 2
      vertex 38.8772 -0.994683 0
    endloop
  endfacet
  facet normal 0.885455 0.464725 0
    outer loop
      vertex 38.8772 -0.994683 7.5
      vertex 38.5436 -0.358973 5.5
      vertex 38.5436 -0.358973 7.5
    endloop
  endfacet
  facet normal 0.885455 0.464725 0
    outer loop
      vertex 38.5436 -0.358973 5.5
      vertex 38.8772 -0.994683 7.5
      vertex 38.8772 -0.994683 5.5
    endloop
  endfacet
  facet normal -0.748511 0.663122 0
    outer loop
      vertex 40.8521 -1.23448 0
      vertex 41.3282 -0.697084 2
      vertex 41.3282 -0.697084 0
    endloop
  endfacet
  facet normal -0.748511 0.663122 0
    outer loop
      vertex 41.3282 -0.697084 2
      vertex 40.8521 -1.23448 0
      vertex 40.8521 -1.23448 2
    endloop
  endfacet
  facet normal -0.748511 0.663122 0
    outer loop
      vertex 40.8521 -1.23448 5.5
      vertex 41.3282 -0.697084 7.5
      vertex 41.3282 -0.697084 5.5
    endloop
  endfacet
  facet normal -0.748511 0.663122 0
    outer loop
      vertex 41.3282 -0.697084 7.5
      vertex 40.8521 -1.23448 5.5
      vertex 40.8521 -1.23448 7.5
    endloop
  endfacet
  facet normal -0.354606 0.935016 0
    outer loop
      vertex 40.8521 -1.23448 5.5
      vertex 40.1808 -1.48906 7.5
      vertex 40.8521 -1.23448 7.5
    endloop
  endfacet
  facet normal -0.354606 0.935016 0
    outer loop
      vertex 40.1808 -1.48906 7.5
      vertex 40.8521 -1.23448 5.5
      vertex 40.1808 -1.48906 5.5
    endloop
  endfacet
  facet normal -0.354606 0.935016 0
    outer loop
      vertex 40.8521 -1.23448 0
      vertex 40.1808 -1.48906 2
      vertex 40.8521 -1.23448 2
    endloop
  endfacet
  facet normal -0.354606 0.935016 0
    outer loop
      vertex 40.1808 -1.48906 2
      vertex 40.8521 -1.23448 0
      vertex 40.1808 -1.48906 0
    endloop
  endfacet
  facet normal 0.568065 0.822983 -0
    outer loop
      vertex 39.4681 -1.40252 0
      vertex 38.8772 -0.994683 2
      vertex 39.4681 -1.40252 2
    endloop
  endfacet
  facet normal 0.568065 0.822983 0
    outer loop
      vertex 38.8772 -0.994683 2
      vertex 39.4681 -1.40252 0
      vertex 38.8772 -0.994683 0
    endloop
  endfacet
  facet normal 0.568065 0.822983 -0
    outer loop
      vertex 39.4681 -1.40252 5.5
      vertex 38.8772 -0.994683 7.5
      vertex 39.4681 -1.40252 7.5
    endloop
  endfacet
  facet normal 0.568065 0.822983 0
    outer loop
      vertex 38.8772 -0.994683 7.5
      vertex 39.4681 -1.40252 5.5
      vertex 38.8772 -0.994683 5.5
    endloop
  endfacet
  facet normal 0 -1 0
    outer loop
      vertex -0.470378 -4.47535 7.5
      vertex 36.0792 -4.47535 5.5
      vertex 40.4704 -4.47535 7.5
    endloop
  endfacet
  facet normal 0 -1 0
    outer loop
      vertex 3.92083 -4.47535 3.75
      vertex -0.470378 -4.47535 7.5
      vertex -0.470378 -4.47535 3.75
    endloop
  endfacet
  facet normal 0 -1 0
    outer loop
      vertex -0.470378 -4.47535 7.5
      vertex 3.92083 -4.47535 3.75
      vertex 36.0792 -4.47535 5.5
    endloop
  endfacet
  facet normal 0 -1 0
    outer loop
      vertex 3.92083 -4.47535 3.75
      vertex 36.0792 -4.47535 2
      vertex 36.0792 -4.47535 5.5
    endloop
  endfacet
  facet normal 0 -1 0
    outer loop
      vertex 3.92083 -4.47535 0
      vertex 36.0792 -4.47535 2
      vertex 3.92083 -4.47535 3.75
    endloop
  endfacet
  facet normal 0 -1 0
    outer loop
      vertex 40.4704 -4.47535 0
      vertex 36.0792 -4.47535 2
      vertex 3.92083 -4.47535 0
    endloop
  endfacet
  facet normal 0 -1 0
    outer loop
      vertex 36.0792 -4.47535 2
      vertex 40.4704 -4.47535 0
      vertex 40.4704 -4.47535 2
    endloop
  endfacet
  facet normal 0 -1 -0
    outer loop
      vertex 40.4704 -4.47535 7.5
      vertex 36.0792 -4.47535 5.5
      vertex 40.4704 -4.47535 5.5
    endloop
  endfacet
  facet normal -0.587785 -0.809017 0
    outer loop
      vertex -3.01109 -3.34415 3.75
      vertex -2.25 -3.89711 7.5
      vertex -3.01109 -3.34415 7.5
    endloop
  endfacet
  facet normal -0.587785 -0.809017 -0
    outer loop
      vertex -2.25 -3.89711 7.5
      vertex -3.01109 -3.34415 3.75
      vertex -2.25 -3.89711 3.75
    endloop
  endfacet
  facet normal -0.743145 -0.66913 0
    outer loop
      vertex -3.01109 -3.34415 3.75
      vertex -3.64058 -2.64503 7.5
      vertex -3.64058 -2.64503 3.75
    endloop
  endfacet
  facet normal -0.743145 -0.66913 0
    outer loop
      vertex -3.64058 -2.64503 7.5
      vertex -3.01109 -3.34415 3.75
      vertex -3.01109 -3.34415 7.5
    endloop
  endfacet
  facet normal 0 1 0
    outer loop
      vertex 9.91791 4.47535 5.5
      vertex 40.4704 4.47535 7.5
      vertex 40.4704 4.47535 5.5
    endloop
  endfacet
  facet normal 0 1 0
    outer loop
      vertex 40.4704 4.47535 7.5
      vertex 9.91791 4.47535 5.5
      vertex -0.470378 4.47535 7.5
    endloop
  endfacet
  facet normal 0 1 0
    outer loop
      vertex -0.470378 4.47535 3.75
      vertex 9.91791 4.47535 5.5
      vertex 9.91791 4.47535 3.75
    endloop
  endfacet
  facet normal 0 1 0
    outer loop
      vertex 9.91791 4.47535 5.5
      vertex -0.470378 4.47535 3.75
      vertex -0.470378 4.47535 7.5
    endloop
  endfacet
  facet normal 0 1 -0
    outer loop
      vertex 40.4704 4.47535 0
      vertex 30.0821 4.47535 2
      vertex 40.4704 4.47535 2
    endloop
  endfacet
  facet normal 0 1 0
    outer loop
      vertex 30.0821 4.47535 2
      vertex 40.4704 4.47535 0
      vertex 30.0821 4.47535 0
    endloop
  endfacet
  facet normal 0.994522 -0.104528 0
    outer loop
      vertex 44.4017 -0.935602 2
      vertex 44.5 0 0
      vertex 44.5 0 2
    endloop
  endfacet
  facet normal 0.994522 -0.104528 0
    outer loop
      vertex 44.5 0 0
      vertex 44.4017 -0.935602 2
      vertex 44.4017 -0.935602 0
    endloop
  endfacet
  facet normal 0.994522 -0.104528 0
    outer loop
      vertex 44.4017 -0.935602 7.5
      vertex 44.5 0 5.5
      vertex 44.5 0 7.5
    endloop
  endfacet
  facet normal 0.994522 -0.104528 0
    outer loop
      vertex 44.5 0 5.5
      vertex 44.4017 -0.935602 7.5
      vertex 44.4017 -0.935602 5.5
    endloop
  endfacet
  facet normal -0.406736 -0.913546 0
    outer loop
      vertex -2.25 -3.89711 3.75
      vertex -1.39058 -4.27975 7.5
      vertex -2.25 -3.89711 7.5
    endloop
  endfacet
  facet normal -0.406736 -0.913546 -0
    outer loop
      vertex -1.39058 -4.27975 7.5
      vertex -2.25 -3.89711 3.75
      vertex -1.39058 -4.27975 3.75
    endloop
  endfacet
  facet normal -0.951057 -0.309017 0
    outer loop
      vertex -4.11095 -1.83031 3.75
      vertex -4.40166 -0.935602 7.5
      vertex -4.40166 -0.935602 3.75
    endloop
  endfacet
  facet normal -0.951057 -0.309017 0
    outer loop
      vertex -4.40166 -0.935602 7.5
      vertex -4.11095 -1.83031 3.75
      vertex -4.11095 -1.83031 7.5
    endloop
  endfacet
  facet normal -0.866025 0.5 0
    outer loop
      vertex -4.11095 1.83031 3.75
      vertex -3.64058 2.64503 7.5
      vertex -3.64058 2.64503 3.75
    endloop
  endfacet
  facet normal -0.866025 0.5 0
    outer loop
      vertex -3.64058 2.64503 7.5
      vertex -4.11095 1.83031 3.75
      vertex -4.11095 1.83031 7.5
    endloop
  endfacet
  facet normal -0.994522 -0.104529 0
    outer loop
      vertex -4.40166 -0.935602 3.75
      vertex -4.5 0 7.5
      vertex -4.5 0 3.75
    endloop
  endfacet
  facet normal -0.994522 -0.104529 0
    outer loop
      vertex -4.5 0 7.5
      vertex -4.40166 -0.935602 3.75
      vertex -4.40166 -0.935602 7.5
    endloop
  endfacet
  facet normal -0.587785 0.809017 0
    outer loop
      vertex -2.25 3.89711 3.75
      vertex -3.01109 3.34415 7.5
      vertex -2.25 3.89711 7.5
    endloop
  endfacet
  facet normal -0.587785 0.809017 0
    outer loop
      vertex -3.01109 3.34415 7.5
      vertex -2.25 3.89711 3.75
      vertex -3.01109 3.34415 3.75
    endloop
  endfacet
  facet normal 0.951056 0.309018 0
    outer loop
      vertex 44.4017 0.935602 7.5
      vertex 44.111 1.83031 5.5
      vertex 44.111 1.83031 7.5
    endloop
  endfacet
  facet normal 0.951056 0.309018 0
    outer loop
      vertex 44.111 1.83031 5.5
      vertex 44.4017 0.935602 7.5
      vertex 44.4017 0.935602 5.5
    endloop
  endfacet
  facet normal 0.951056 0.309018 0
    outer loop
      vertex 44.4017 0.935602 2
      vertex 44.111 1.83031 0
      vertex 44.111 1.83031 2
    endloop
  endfacet
  facet normal 0.951056 0.309018 0
    outer loop
      vertex 44.111 1.83031 0
      vertex 44.4017 0.935602 2
      vertex 44.4017 0.935602 0
    endloop
  endfacet
  facet normal 0.994522 0.104528 0
    outer loop
      vertex 44.5 0 7.5
      vertex 44.4017 0.935602 5.5
      vertex 44.4017 0.935602 7.5
    endloop
  endfacet
  facet normal 0.994522 0.104528 0
    outer loop
      vertex 44.4017 0.935602 5.5
      vertex 44.5 0 7.5
      vertex 44.5 0 5.5
    endloop
  endfacet
  facet normal 0.994522 0.104528 0
    outer loop
      vertex 44.5 0 2
      vertex 44.4017 0.935602 0
      vertex 44.4017 0.935602 2
    endloop
  endfacet
  facet normal 0.994522 0.104528 0
    outer loop
      vertex 44.4017 0.935602 0
      vertex 44.5 0 2
      vertex 44.5 0 0
    endloop
  endfacet
  facet normal -0.207912 -0.978147 0
    outer loop
      vertex -1.39058 -4.27975 3.75
      vertex -0.470378 -4.47535 7.5
      vertex -1.39058 -4.27975 7.5
    endloop
  endfacet
  facet normal -0.207912 -0.978147 -0
    outer loop
      vertex -0.470378 -4.47535 7.5
      vertex -1.39058 -4.27975 3.75
      vertex -0.470378 -4.47535 3.75
    endloop
  endfacet
  facet normal -0.866025 -0.5 0
    outer loop
      vertex -3.64058 -2.64503 3.75
      vertex -4.11095 -1.83031 7.5
      vertex -4.11095 -1.83031 3.75
    endloop
  endfacet
  facet normal -0.866025 -0.5 0
    outer loop
      vertex -4.11095 -1.83031 7.5
      vertex -3.64058 -2.64503 3.75
      vertex -3.64058 -2.64503 7.5
    endloop
  endfacet
  facet normal -0.743145 0.66913 0
    outer loop
      vertex -3.64058 2.64503 3.75
      vertex -3.01109 3.34415 7.5
      vertex -3.01109 3.34415 3.75
    endloop
  endfacet
  facet normal -0.743145 0.66913 0
    outer loop
      vertex -3.01109 3.34415 7.5
      vertex -3.64058 2.64503 3.75
      vertex -3.64058 2.64503 7.5
    endloop
  endfacet
  facet normal 0.743144 0.669131 0
    outer loop
      vertex 43.6406 2.64503 7.5
      vertex 43.0111 3.34415 5.5
      vertex 43.0111 3.34415 7.5
    endloop
  endfacet
  facet normal 0.743144 0.669131 0
    outer loop
      vertex 43.0111 3.34415 5.5
      vertex 43.6406 2.64503 7.5
      vertex 43.6406 2.64503 5.5
    endloop
  endfacet
  facet normal 0.743144 0.669131 0
    outer loop
      vertex 43.6406 2.64503 2
      vertex 43.0111 3.34415 0
      vertex 43.0111 3.34415 2
    endloop
  endfacet
  facet normal 0.743144 0.669131 0
    outer loop
      vertex 43.0111 3.34415 0
      vertex 43.6406 2.64503 2
      vertex 43.6406 2.64503 0
    endloop
  endfacet
  facet normal 0.587786 0.809016 -0
    outer loop
      vertex 43.0111 3.34415 5.5
      vertex 42.25 3.89711 7.5
      vertex 43.0111 3.34415 7.5
    endloop
  endfacet
  facet normal 0.587786 0.809016 0
    outer loop
      vertex 42.25 3.89711 7.5
      vertex 43.0111 3.34415 5.5
      vertex 42.25 3.89711 5.5
    endloop
  endfacet
  facet normal 0.587786 0.809016 -0
    outer loop
      vertex 43.0111 3.34415 0
      vertex 42.25 3.89711 2
      vertex 43.0111 3.34415 2
    endloop
  endfacet
  facet normal 0.587786 0.809016 0
    outer loop
      vertex 42.25 3.89711 2
      vertex 43.0111 3.34415 0
      vertex 42.25 3.89711 0
    endloop
  endfacet
  facet normal 0.207913 0.978147 -0
    outer loop
      vertex 41.3906 4.27975 5.5
      vertex 40.4704 4.47535 7.5
      vertex 41.3906 4.27975 7.5
    endloop
  endfacet
  facet normal 0.207913 0.978147 0
    outer loop
      vertex 40.4704 4.47535 7.5
      vertex 41.3906 4.27975 5.5
      vertex 40.4704 4.47535 5.5
    endloop
  endfacet
  facet normal 0.207913 0.978147 -0
    outer loop
      vertex 41.3906 4.27975 0
      vertex 40.4704 4.47535 2
      vertex 41.3906 4.27975 2
    endloop
  endfacet
  facet normal 0.207913 0.978147 0
    outer loop
      vertex 40.4704 4.47535 2
      vertex 41.3906 4.27975 0
      vertex 40.4704 4.47535 0
    endloop
  endfacet
  facet normal 0.207913 -0.978147 0
    outer loop
      vertex 40.4704 -4.47535 0
      vertex 41.3906 -4.27975 2
      vertex 40.4704 -4.47535 2
    endloop
  endfacet
  facet normal 0.207913 -0.978147 0
    outer loop
      vertex 41.3906 -4.27975 2
      vertex 40.4704 -4.47535 0
      vertex 41.3906 -4.27975 0
    endloop
  endfacet
  facet normal 0.207913 -0.978147 0
    outer loop
      vertex 40.4704 -4.47535 5.5
      vertex 41.3906 -4.27975 7.5
      vertex 40.4704 -4.47535 7.5
    endloop
  endfacet
  facet normal 0.207913 -0.978147 0
    outer loop
      vertex 41.3906 -4.27975 7.5
      vertex 40.4704 -4.47535 5.5
      vertex 41.3906 -4.27975 5.5
    endloop
  endfacet
  facet normal 0.406736 -0.913546 0
    outer loop
      vertex 41.3906 -4.27975 5.5
      vertex 42.25 -3.89711 7.5
      vertex 41.3906 -4.27975 7.5
    endloop
  endfacet
  facet normal 0.406736 -0.913546 0
    outer loop
      vertex 42.25 -3.89711 7.5
      vertex 41.3906 -4.27975 5.5
      vertex 42.25 -3.89711 5.5
    endloop
  endfacet
  facet normal 0.406736 -0.913546 0
    outer loop
      vertex 41.3906 -4.27975 0
      vertex 42.25 -3.89711 2
      vertex 41.3906 -4.27975 2
    endloop
  endfacet
  facet normal 0.406736 -0.913546 0
    outer loop
      vertex 42.25 -3.89711 2
      vertex 41.3906 -4.27975 0
      vertex 42.25 -3.89711 0
    endloop
  endfacet
  facet normal 0.951056 -0.309018 0
    outer loop
      vertex 44.111 -1.83031 2
      vertex 44.4017 -0.935602 0
      vertex 44.4017 -0.935602 2
    endloop
  endfacet
  facet normal 0.951056 -0.309018 0
    outer loop
      vertex 44.4017 -0.935602 0
      vertex 44.111 -1.83031 2
      vertex 44.111 -1.83031 0
    endloop
  endfacet
  facet normal 0.951056 -0.309018 0
    outer loop
      vertex 44.111 -1.83031 7.5
      vertex 44.4017 -0.935602 5.5
      vertex 44.4017 -0.935602 7.5
    endloop
  endfacet
  facet normal 0.951056 -0.309018 0
    outer loop
      vertex 44.4017 -0.935602 5.5
      vertex 44.111 -1.83031 7.5
      vertex 44.111 -1.83031 5.5
    endloop
  endfacet
  facet normal -0.951057 0.309017 0
    outer loop
      vertex -4.40166 0.935602 3.75
      vertex -4.11095 1.83031 7.5
      vertex -4.11095 1.83031 3.75
    endloop
  endfacet
  facet normal -0.951057 0.309017 0
    outer loop
      vertex -4.11095 1.83031 7.5
      vertex -4.40166 0.935602 3.75
      vertex -4.40166 0.935602 7.5
    endloop
  endfacet
  facet normal -0.207912 0.978147 0
    outer loop
      vertex -0.470378 4.47535 3.75
      vertex -1.39058 4.27975 7.5
      vertex -0.470378 4.47535 7.5
    endloop
  endfacet
  facet normal -0.207912 0.978147 0
    outer loop
      vertex -1.39058 4.27975 7.5
      vertex -0.470378 4.47535 3.75
      vertex -1.39058 4.27975 3.75
    endloop
  endfacet
  facet normal 0.866025 0.500001 0
    outer loop
      vertex 44.111 1.83031 7.5
      vertex 43.6406 2.64503 5.5
      vertex 43.6406 2.64503 7.5
    endloop
  endfacet
  facet normal 0.866025 0.500001 0
    outer loop
      vertex 43.6406 2.64503 5.5
      vertex 44.111 1.83031 7.5
      vertex 44.111 1.83031 5.5
    endloop
  endfacet
  facet normal 0.866025 0.500001 0
    outer loop
      vertex 44.111 1.83031 2
      vertex 43.6406 2.64503 0
      vertex 43.6406 2.64503 2
    endloop
  endfacet
  facet normal 0.866025 0.500001 0
    outer loop
      vertex 43.6406 2.64503 0
      vertex 44.111 1.83031 2
      vertex 44.111 1.83031 0
    endloop
  endfacet
  facet normal 0.406736 0.913546 -0
    outer loop
      vertex 42.25 3.89711 5.5
      vertex 41.3906 4.27975 7.5
      vertex 42.25 3.89711 7.5
    endloop
  endfacet
  facet normal 0.406736 0.913546 0
    outer loop
      vertex 41.3906 4.27975 7.5
      vertex 42.25 3.89711 5.5
      vertex 41.3906 4.27975 5.5
    endloop
  endfacet
  facet normal 0.406736 0.913546 -0
    outer loop
      vertex 42.25 3.89711 0
      vertex 41.3906 4.27975 2
      vertex 42.25 3.89711 2
    endloop
  endfacet
  facet normal 0.406736 0.913546 0
    outer loop
      vertex 41.3906 4.27975 2
      vertex 42.25 3.89711 0
      vertex 41.3906 4.27975 0
    endloop
  endfacet
  facet normal 0.743144 -0.669131 0
    outer loop
      vertex 43.0111 -3.34415 7.5
      vertex 43.6406 -2.64503 5.5
      vertex 43.6406 -2.64503 7.5
    endloop
  endfacet
  facet normal 0.743144 -0.669131 0
    outer loop
      vertex 43.6406 -2.64503 5.5
      vertex 43.0111 -3.34415 7.5
      vertex 43.0111 -3.34415 5.5
    endloop
  endfacet
  facet normal 0.743144 -0.669131 0
    outer loop
      vertex 43.0111 -3.34415 2
      vertex 43.6406 -2.64503 0
      vertex 43.6406 -2.64503 2
    endloop
  endfacet
  facet normal 0.743144 -0.669131 0
    outer loop
      vertex 43.6406 -2.64503 0
      vertex 43.0111 -3.34415 2
      vertex 43.0111 -3.34415 0
    endloop
  endfacet
  facet normal 0.866025 -0.500001 0
    outer loop
      vertex 43.6406 -2.64503 7.5
      vertex 44.111 -1.83031 5.5
      vertex 44.111 -1.83031 7.5
    endloop
  endfacet
  facet normal 0.866025 -0.500001 0
    outer loop
      vertex 44.111 -1.83031 5.5
      vertex 43.6406 -2.64503 7.5
      vertex 43.6406 -2.64503 5.5
    endloop
  endfacet
  facet normal 0.866025 -0.500001 0
    outer loop
      vertex 43.6406 -2.64503 2
      vertex 44.111 -1.83031 0
      vertex 44.111 -1.83031 2
    endloop
  endfacet
  facet normal 0.866025 -0.500001 0
    outer loop
      vertex 44.111 -1.83031 0
      vertex 43.6406 -2.64503 2
      vertex 43.6406 -2.64503 0
    endloop
  endfacet
  facet normal -0.994522 0.104529 0
    outer loop
      vertex -4.5 0 3.75
      vertex -4.40166 0.935602 7.5
      vertex -4.40166 0.935602 3.75
    endloop
  endfacet
  facet normal -0.994522 0.104529 0
    outer loop
      vertex -4.40166 0.935602 7.5
      vertex -4.5 0 3.75
      vertex -4.5 0 7.5
    endloop
  endfacet
  facet normal -0.406737 0.913545 0
    outer loop
      vertex -1.39058 4.27975 3.75
      vertex -2.25 3.89711 7.5
      vertex -1.39058 4.27975 7.5
    endloop
  endfacet
  facet normal -0.406737 0.913545 0
    outer loop
      vertex -2.25 3.89711 7.5
      vertex -1.39058 4.27975 3.75
      vertex -2.25 3.89711 3.75
    endloop
  endfacet
  facet normal 0.587786 -0.809016 0
    outer loop
      vertex 42.25 -3.89711 5.5
      vertex 43.0111 -3.34415 7.5
      vertex 42.25 -3.89711 7.5
    endloop
  endfacet
  facet normal 0.587786 -0.809016 0
    outer loop
      vertex 43.0111 -3.34415 7.5
      vertex 42.25 -3.89711 5.5
      vertex 43.0111 -3.34415 5.5
    endloop
  endfacet
  facet normal 0.587786 -0.809016 0
    outer loop
      vertex 42.25 -3.89711 0
      vertex 43.0111 -3.34415 2
      vertex 42.25 -3.89711 2
    endloop
  endfacet
  facet normal 0.587786 -0.809016 0
    outer loop
      vertex 43.0111 -3.34415 2
      vertex 42.25 -3.89711 0
      vertex 43.0111 -3.34415 0
    endloop
  endfacet
  facet normal -0.809021 0.58778 0
    outer loop
      vertex 30.0309 4.40489 0
      vertex 30.0821 4.47535 2
      vertex 30.0821 4.47535 0
    endloop
  endfacet
  facet normal -0.809021 0.58778 0
    outer loop
      vertex 30.0821 4.47535 2
      vertex 30.0309 4.40489 0
      vertex 30.0309 4.40489 2
    endloop
  endfacet
  facet normal 0 0 -1
    outer loop
      vertex 3.92083 -4.47535 3.75
      vertex 1.32818 -0.697084 3.75
      vertex 1.5 0 3.75
    endloop
  endfacet
  facet normal 0 0 -1
    outer loop
      vertex 3.92083 -4.47535 3.75
      vertex 0.852097 -1.23448 3.75
      vertex 1.32818 -0.697084 3.75
    endloop
  endfacet
  facet normal 0 0 -1
    outer loop
      vertex -0.470378 -4.47535 3.75
      vertex 0.852097 -1.23448 3.75
      vertex 3.92083 -4.47535 3.75
    endloop
  endfacet
  facet normal 0 0 -1
    outer loop
      vertex 0.852097 -1.23448 3.75
      vertex -0.470378 -4.47535 3.75
      vertex 0.180804 -1.48906 3.75
    endloop
  endfacet
  facet normal 0 0 -1
    outer loop
      vertex -0.470378 -4.47535 3.75
      vertex -0.531907 -1.40252 3.75
      vertex 0.180804 -1.48906 3.75
    endloop
  endfacet
  facet normal 0 0 -1
    outer loop
      vertex -1.39058 -4.27975 3.75
      vertex -0.531907 -1.40252 3.75
      vertex -0.470378 -4.47535 3.75
    endloop
  endfacet
  facet normal 0 0 -1
    outer loop
      vertex -2.25 -3.89711 3.75
      vertex -0.531907 -1.40252 3.75
      vertex -1.39058 -4.27975 3.75
    endloop
  endfacet
  facet normal -0 0 -1
    outer loop
      vertex -0.531907 -1.40252 3.75
      vertex -2.25 -3.89711 3.75
      vertex -1.12277 -0.994683 3.75
    endloop
  endfacet
  facet normal 0 0 -1
    outer loop
      vertex -4.5 0 3.75
      vertex -1.45641 0.358973 3.75
      vertex -1.45641 -0.358973 3.75
    endloop
  endfacet
  facet normal 0 0 -1
    outer loop
      vertex -3.01109 -3.34415 3.75
      vertex -1.12277 -0.994683 3.75
      vertex -2.25 -3.89711 3.75
    endloop
  endfacet
  facet normal 0 0 -1
    outer loop
      vertex -3.64058 -2.64503 3.75
      vertex -1.12277 -0.994683 3.75
      vertex -3.01109 -3.34415 3.75
    endloop
  endfacet
  facet normal 0 0 -1
    outer loop
      vertex -4.11095 -1.83031 3.75
      vertex -1.12277 -0.994683 3.75
      vertex -3.64058 -2.64503 3.75
    endloop
  endfacet
  facet normal 0 0 -1
    outer loop
      vertex -1.45641 0.358973 3.75
      vertex -3.01109 3.34415 3.75
      vertex -2.25 3.89711 3.75
    endloop
  endfacet
  facet normal -0 0 -1
    outer loop
      vertex -1.12277 -0.994683 3.75
      vertex -4.11095 -1.83031 3.75
      vertex -1.45641 -0.358973 3.75
    endloop
  endfacet
  facet normal 0 0 -1
    outer loop
      vertex -1.45641 0.358973 3.75
      vertex -3.64058 2.64503 3.75
      vertex -3.01109 3.34415 3.75
    endloop
  endfacet
  facet normal 0 0 -1
    outer loop
      vertex -4.40166 -0.935602 3.75
      vertex -1.45641 -0.358973 3.75
      vertex -4.11095 -1.83031 3.75
    endloop
  endfacet
  facet normal 0 0 -1
    outer loop
      vertex -1.45641 0.358973 3.75
      vertex -4.11095 1.83031 3.75
      vertex -3.64058 2.64503 3.75
    endloop
  endfacet
  facet normal 0 0 -1
    outer loop
      vertex -4.5 0 3.75
      vertex -1.45641 -0.358973 3.75
      vertex -4.40166 -0.935602 3.75
    endloop
  endfacet
  facet normal 0 0 -1
    outer loop
      vertex -1.45641 0.358973 3.75
      vertex -4.40166 0.935602 3.75
      vertex -4.11095 1.83031 3.75
    endloop
  endfacet
  facet normal -0 0 -1
    outer loop
      vertex -1.45641 0.358973 3.75
      vertex -4.5 0 3.75
      vertex -4.40166 0.935602 3.75
    endloop
  endfacet
  facet normal 0 0 -1
    outer loop
      vertex 3.92083 -4.47535 3.75
      vertex 9.9691 4.40489 3.75
      vertex 20 0.993304 3.75
    endloop
  endfacet
  facet normal 0 0 -1
    outer loop
      vertex 1.5 0 3.75
      vertex 9.9691 4.40489 3.75
      vertex 3.92083 -4.47535 3.75
    endloop
  endfacet
  facet normal 0 0 -1
    outer loop
      vertex 1.32818 0.697084 3.75
      vertex 9.9691 4.40489 3.75
      vertex 1.5 0 3.75
    endloop
  endfacet
  facet normal -0 0 -1
    outer loop
      vertex 9.9691 4.40489 3.75
      vertex 1.32818 0.697084 3.75
      vertex 9.91791 4.47535 3.75
    endloop
  endfacet
  facet normal 0 0 -1
    outer loop
      vertex 0.852097 1.23448 3.75
      vertex 9.91791 4.47535 3.75
      vertex 1.32818 0.697084 3.75
    endloop
  endfacet
  facet normal 0 0 -1
    outer loop
      vertex -0.470378 4.47535 3.75
      vertex 0.852097 1.23448 3.75
      vertex 0.180804 1.48906 3.75
    endloop
  endfacet
  facet normal 0 0 -1
    outer loop
      vertex 0.852097 1.23448 3.75
      vertex -0.470378 4.47535 3.75
      vertex 9.91791 4.47535 3.75
    endloop
  endfacet
  facet normal 0 0 -1
    outer loop
      vertex -0.531907 1.40252 3.75
      vertex -0.470378 4.47535 3.75
      vertex 0.180804 1.48906 3.75
    endloop
  endfacet
  facet normal 0 0 -1
    outer loop
      vertex -2.25 3.89711 3.75
      vertex -0.531907 1.40252 3.75
      vertex -1.12277 0.994683 3.75
    endloop
  endfacet
  facet normal 0 0 -1
    outer loop
      vertex -0.531907 1.40252 3.75
      vertex -1.39058 4.27975 3.75
      vertex -0.470378 4.47535 3.75
    endloop
  endfacet
  facet normal 0 0 -1
    outer loop
      vertex -2.25 3.89711 3.75
      vertex -1.12277 0.994683 3.75
      vertex -1.45641 0.358973 3.75
    endloop
  endfacet
  facet normal 0 0 -1
    outer loop
      vertex -0.531907 1.40252 3.75
      vertex -2.25 3.89711 3.75
      vertex -1.39058 4.27975 3.75
    endloop
  endfacet
  facet normal -0.321994 0.946742 0
    outer loop
      vertex 30.0309 4.40489 2
      vertex 30.0309 4.40489 0
      vertex 20 0.993304 2
    endloop
  endfacet
  facet normal -0.321994 0.946742 0
    outer loop
      vertex 20 0.993304 2
      vertex 3.92083 -4.47535 3.75
      vertex 20 0.993304 3.75
    endloop
  endfacet
  facet normal -0.321994 0.946742 7.68544e-008
    outer loop
      vertex 3.92083 -4.47535 0
      vertex 20 0.993304 2
      vertex 30.0309 4.40489 0
    endloop
  endfacet
  facet normal -0.321994 0.946742 0
    outer loop
      vertex 20 0.993304 2
      vertex 3.92083 -4.47535 0
      vertex 3.92083 -4.47535 3.75
    endloop
  endfacet
  facet normal 0.809016 0.587787 0
    outer loop
      vertex 9.9691 4.40489 5.5
      vertex 9.91791 4.47535 3.75
      vertex 9.91791 4.47535 5.5
    endloop
  endfacet
  facet normal 0.809016 0.587787 0
    outer loop
      vertex 9.91791 4.47535 3.75
      vertex 9.9691 4.40489 5.5
      vertex 9.9691 4.40489 3.75
    endloop
  endfacet
  facet normal 0 0 -1
    outer loop
      vertex 41.5 0 5.5
      vertex 44.5 0 5.5
      vertex 44.4017 -0.935602 5.5
    endloop
  endfacet
  facet normal 0 0 -1
    outer loop
      vertex 41.3282 -0.697084 5.5
      vertex 44.4017 -0.935602 5.5
      vertex 44.111 -1.83031 5.5
    endloop
  endfacet
  facet normal 0 0 -1
    outer loop
      vertex 44.5 0 5.5
      vertex 41.5 0 5.5
      vertex 44.4017 0.935602 5.5
    endloop
  endfacet
  facet normal 0 0 -1
    outer loop
      vertex 41.3282 -0.697084 5.5
      vertex 44.111 -1.83031 5.5
      vertex 43.6406 -2.64503 5.5
    endloop
  endfacet
  facet normal 0 0 -1
    outer loop
      vertex 41.3282 0.697084 5.5
      vertex 44.4017 0.935602 5.5
      vertex 41.5 0 5.5
    endloop
  endfacet
  facet normal 0 0 -1
    outer loop
      vertex 40.8521 -1.23448 5.5
      vertex 43.6406 -2.64503 5.5
      vertex 43.0111 -3.34415 5.5
    endloop
  endfacet
  facet normal -0 0 -1
    outer loop
      vertex 44.4017 0.935602 5.5
      vertex 41.3282 0.697084 5.5
      vertex 44.111 1.83031 5.5
    endloop
  endfacet
  facet normal 0 0 -1
    outer loop
      vertex 40.8521 -1.23448 5.5
      vertex 43.0111 -3.34415 5.5
      vertex 42.25 -3.89711 5.5
    endloop
  endfacet
  facet normal -0 0 -1
    outer loop
      vertex 44.111 1.83031 5.5
      vertex 41.3282 0.697084 5.5
      vertex 43.6406 2.64503 5.5
    endloop
  endfacet
  facet normal 0 0 -1
    outer loop
      vertex 40.8521 1.23448 5.5
      vertex 43.6406 2.64503 5.5
      vertex 41.3282 0.697084 5.5
    endloop
  endfacet
  facet normal 0 0 -1
    outer loop
      vertex 40.8521 -1.23448 5.5
      vertex 42.25 -3.89711 5.5
      vertex 41.3906 -4.27975 5.5
    endloop
  endfacet
  facet normal 0 0 -1
    outer loop
      vertex 44.4017 -0.935602 5.5
      vertex 41.3282 -0.697084 5.5
      vertex 41.5 0 5.5
    endloop
  endfacet
  facet normal 0 0 -1
    outer loop
      vertex 43.6406 -2.64503 5.5
      vertex 40.8521 -1.23448 5.5
      vertex 41.3282 -0.697084 5.5
    endloop
  endfacet
  facet normal 0 0 -1
    outer loop
      vertex 40.1808 -1.48906 5.5
      vertex 41.3906 -4.27975 5.5
      vertex 40.4704 -4.47535 5.5
    endloop
  endfacet
  facet normal 0 0 -1
    outer loop
      vertex 41.3906 -4.27975 5.5
      vertex 40.1808 -1.48906 5.5
      vertex 40.8521 -1.23448 5.5
    endloop
  endfacet
  facet normal 0 0 -1
    outer loop
      vertex 40.4704 -4.47535 5.5
      vertex 39.4681 -1.40252 5.5
      vertex 40.1808 -1.48906 5.5
    endloop
  endfacet
  facet normal 0 0 -1
    outer loop
      vertex 36.0792 -4.47535 5.5
      vertex 39.4681 -1.40252 5.5
      vertex 40.4704 -4.47535 5.5
    endloop
  endfacet
  facet normal -0 0 -1
    outer loop
      vertex 39.4681 -1.40252 5.5
      vertex 36.0792 -4.47535 5.5
      vertex 38.8772 -0.994683 5.5
    endloop
  endfacet
  facet normal -0 0 -1
    outer loop
      vertex 38.5436 -0.358973 5.5
      vertex 36.0792 -4.47535 5.5
      vertex 38.5436 0.358973 5.5
    endloop
  endfacet
  facet normal -0 0 -1
    outer loop
      vertex 38.8772 -0.994683 5.5
      vertex 36.0792 -4.47535 5.5
      vertex 38.5436 -0.358973 5.5
    endloop
  endfacet
  facet normal -0 0 -1
    outer loop
      vertex 43.6406 2.64503 5.5
      vertex 40.8521 1.23448 5.5
      vertex 43.0111 3.34415 5.5
    endloop
  endfacet
  facet normal -0 0 -1
    outer loop
      vertex 43.0111 3.34415 5.5
      vertex 40.8521 1.23448 5.5
      vertex 42.25 3.89711 5.5
    endloop
  endfacet
  facet normal -0 0 -1
    outer loop
      vertex 42.25 3.89711 5.5
      vertex 40.8521 1.23448 5.5
      vertex 41.3906 4.27975 5.5
    endloop
  endfacet
  facet normal 0 0 -1
    outer loop
      vertex 40.1808 1.48906 5.5
      vertex 41.3906 4.27975 5.5
      vertex 40.8521 1.23448 5.5
    endloop
  endfacet
  facet normal -0 0 -1
    outer loop
      vertex 41.3906 4.27975 5.5
      vertex 40.1808 1.48906 5.5
      vertex 40.4704 4.47535 5.5
    endloop
  endfacet
  facet normal 0 0 -1
    outer loop
      vertex 39.4681 1.40252 5.5
      vertex 40.4704 4.47535 5.5
      vertex 40.1808 1.48906 5.5
    endloop
  endfacet
  facet normal 0 0 -1
    outer loop
      vertex 38.8772 0.994683 5.5
      vertex 40.4704 4.47535 5.5
      vertex 39.4681 1.40252 5.5
    endloop
  endfacet
  facet normal 0 0 -1
    outer loop
      vertex 9.9691 4.40489 5.5
      vertex 38.8772 0.994683 5.5
      vertex 38.5436 0.358973 5.5
    endloop
  endfacet
  facet normal 0 0 -1
    outer loop
      vertex 9.9691 4.40489 5.5
      vertex 38.5436 0.358973 5.5
      vertex 36.0792 -4.47535 5.5
    endloop
  endfacet
  facet normal 0 0 -1
    outer loop
      vertex 38.8772 0.994683 5.5
      vertex 9.9691 4.40489 5.5
      vertex 40.4704 4.47535 5.5
    endloop
  endfacet
  facet normal -0 0 -1
    outer loop
      vertex 40.4704 4.47535 5.5
      vertex 9.9691 4.40489 5.5
      vertex 9.91791 4.47535 5.5
    endloop
  endfacet
  facet normal 0 0 1
    outer loop
      vertex 41.5 0 2
      vertex 44.5 0 2
      vertex 44.4017 0.935602 2
    endloop
  endfacet
  facet normal 0 0 1
    outer loop
      vertex 41.3282 0.697084 2
      vertex 44.4017 0.935602 2
      vertex 44.111 1.83031 2
    endloop
  endfacet
  facet normal 0 0 1
    outer loop
      vertex 44.5 0 2
      vertex 41.5 0 2
      vertex 44.4017 -0.935602 2
    endloop
  endfacet
  facet normal 0 0 1
    outer loop
      vertex 41.3282 0.697084 2
      vertex 44.111 1.83031 2
      vertex 43.6406 2.64503 2
    endloop
  endfacet
  facet normal -0 0 1
    outer loop
      vertex 41.3282 -0.697084 2
      vertex 44.4017 -0.935602 2
      vertex 41.5 0 2
    endloop
  endfacet
  facet normal 0 0 1
    outer loop
      vertex 40.8521 1.23448 2
      vertex 43.6406 2.64503 2
      vertex 43.0111 3.34415 2
    endloop
  endfacet
  facet normal 0 0 1
    outer loop
      vertex 44.4017 -0.935602 2
      vertex 41.3282 -0.697084 2
      vertex 44.111 -1.83031 2
    endloop
  endfacet
  facet normal 0 0 1
    outer loop
      vertex 40.8521 1.23448 2
      vertex 43.0111 3.34415 2
      vertex 42.25 3.89711 2
    endloop
  endfacet
  facet normal 0 0 1
    outer loop
      vertex 44.111 -1.83031 2
      vertex 41.3282 -0.697084 2
      vertex 43.6406 -2.64503 2
    endloop
  endfacet
  facet normal -0 0 1
    outer loop
      vertex 40.8521 -1.23448 2
      vertex 43.6406 -2.64503 2
      vertex 41.3282 -0.697084 2
    endloop
  endfacet
  facet normal 0 0 1
    outer loop
      vertex 40.8521 1.23448 2
      vertex 42.25 3.89711 2
      vertex 41.3906 4.27975 2
    endloop
  endfacet
  facet normal 0 0 1
    outer loop
      vertex 44.4017 0.935602 2
      vertex 41.3282 0.697084 2
      vertex 41.5 0 2
    endloop
  endfacet
  facet normal 0 0 1
    outer loop
      vertex 43.6406 2.64503 2
      vertex 40.8521 1.23448 2
      vertex 41.3282 0.697084 2
    endloop
  endfacet
  facet normal 0 0 1
    outer loop
      vertex 40.1808 1.48906 2
      vertex 41.3906 4.27975 2
      vertex 40.4704 4.47535 2
    endloop
  endfacet
  facet normal 0 0 1
    outer loop
      vertex 41.3906 4.27975 2
      vertex 40.1808 1.48906 2
      vertex 40.8521 1.23448 2
    endloop
  endfacet
  facet normal 0 0 1
    outer loop
      vertex 40.4704 4.47535 2
      vertex 39.4681 1.40252 2
      vertex 40.1808 1.48906 2
    endloop
  endfacet
  facet normal 0 0 1
    outer loop
      vertex 40.4704 4.47535 2
      vertex 38.8772 0.994683 2
      vertex 39.4681 1.40252 2
    endloop
  endfacet
  facet normal -0 0 1
    outer loop
      vertex 30.0821 4.47535 2
      vertex 38.8772 0.994683 2
      vertex 40.4704 4.47535 2
    endloop
  endfacet
  facet normal 0 0 1
    outer loop
      vertex 38.5436 0.358973 2
      vertex 36.0792 -4.47535 2
      vertex 38.5436 -0.358973 2
    endloop
  endfacet
  facet normal 0 0 1
    outer loop
      vertex 38.8772 0.994683 2
      vertex 30.0821 4.47535 2
      vertex 38.5436 0.358973 2
    endloop
  endfacet
  facet normal -0 0 1
    outer loop
      vertex 30.0309 4.40489 2
      vertex 38.5436 0.358973 2
      vertex 30.0821 4.47535 2
    endloop
  endfacet
  facet normal 0 0 1
    outer loop
      vertex 38.5436 0.358973 2
      vertex 30.0309 4.40489 2
      vertex 36.0792 -4.47535 2
    endloop
  endfacet
  facet normal 0 0 1
    outer loop
      vertex 36.0792 -4.47535 2
      vertex 30.0309 4.40489 2
      vertex 20 0.993304 2
    endloop
  endfacet
  facet normal 0 0 1
    outer loop
      vertex 43.6406 -2.64503 2
      vertex 40.8521 -1.23448 2
      vertex 43.0111 -3.34415 2
    endloop
  endfacet
  facet normal 0 0 1
    outer loop
      vertex 43.0111 -3.34415 2
      vertex 40.8521 -1.23448 2
      vertex 42.25 -3.89711 2
    endloop
  endfacet
  facet normal 0 0 1
    outer loop
      vertex 42.25 -3.89711 2
      vertex 40.8521 -1.23448 2
      vertex 41.3906 -4.27975 2
    endloop
  endfacet
  facet normal -0 0 1
    outer loop
      vertex 40.1808 -1.48906 2
      vertex 41.3906 -4.27975 2
      vertex 40.8521 -1.23448 2
    endloop
  endfacet
  facet normal 0 0 1
    outer loop
      vertex 41.3906 -4.27975 2
      vertex 40.1808 -1.48906 2
      vertex 40.4704 -4.47535 2
    endloop
  endfacet
  facet normal 0 0 1
    outer loop
      vertex 39.4681 -1.40252 2
      vertex 40.4704 -4.47535 2
      vertex 40.1808 -1.48906 2
    endloop
  endfacet
  facet normal 0 0 1
    outer loop
      vertex 36.0792 -4.47535 2
      vertex 39.4681 -1.40252 2
      vertex 38.8772 -0.994683 2
    endloop
  endfacet
  facet normal 0 0 1
    outer loop
      vertex 36.0792 -4.47535 2
      vertex 38.8772 -0.994683 2
      vertex 38.5436 -0.358973 2
    endloop
  endfacet
  facet normal 0 0 1
    outer loop
      vertex 39.4681 -1.40252 2
      vertex 36.0792 -4.47535 2
      vertex 40.4704 -4.47535 2
    endloop
  endfacet
  facet normal 0.321994 0.946742 3.70798e-008
    outer loop
      vertex 36.0792 -4.47535 5.5
      vertex 20 0.993304 3.75
      vertex 9.9691 4.40489 5.5
    endloop
  endfacet
  facet normal 0.321994 0.946742 -0
    outer loop
      vertex 36.0792 -4.47535 2
      vertex 20 0.993304 3.75
      vertex 36.0792 -4.47535 5.5
    endloop
  endfacet
  facet normal 0.321994 0.946742 0
    outer loop
      vertex 20 0.993304 3.75
      vertex 36.0792 -4.47535 2
      vertex 20 0.993304 2
    endloop
  endfacet
  facet normal 0.321994 0.946742 0
    outer loop
      vertex 9.9691 4.40489 5.5
      vertex 20 0.993304 3.75
      vertex 9.9691 4.40489 3.75
    endloop
  endfacet
endsolid OpenSCAD_Model
